<svg xmlns="http://www.w3.org/2000/svg" width="550.136" height="358.55" viewBox="0 0 550.136 358.55">
  <g id="Group_1538" data-name="Group 1538" transform="translate(-245.485 -253.226)">
    <path id="Path_2766" data-name="Path 2766" d="M1447.675,667.813l5.949-4.409a1.641,1.641,0,0,1,1.708-.136q1.05.538,2.159.994a27.517,27.517,0,0,0,4.153,1.352,1.619,1.619,0,0,1,1.239,1.34l1.175,7.649a1.59,1.59,0,0,0,1.689,1.351l7.06-.465A1.572,1.572,0,0,0,1474.27,674l.3-7.119a1.578,1.578,0,0,1,1.185-1.478,28.618,28.618,0,0,0,8.212-3.731,1.63,1.63,0,0,1,1.979.16l3.2,2.925a1.646,1.646,0,0,0,2.175.022l5.257-4.659a1.441,1.441,0,0,0,.278-.314,1.579,1.579,0,0,0-.048-1.837l-3.289-4.448-.8-1.083a28.311,28.311,0,0,0,1.781-3.583,28.746,28.746,0,0,0,1.569-5.1,1.578,1.578,0,0,1,1.311-1.252l6.163-.939a1.636,1.636,0,0,0,1.385-1.728l-.355-5.4-.106-1.547a1.657,1.657,0,0,0-1.58-1.551l-5.95-.257a1.576,1.576,0,0,1-1.474-1.131,28.408,28.408,0,0,0-2.362-5.595,4.91,4.91,0,0,0-.243-.45.873.873,0,0,1-.076-.154,1.614,1.614,0,0,1,.291-1.767l4.739-5.205a1.19,1.19,0,0,0,.146-.184,1.642,1.642,0,0,0-.127-1.983l-4.637-5.248a1.634,1.634,0,0,0-2.194-.231l-6.2,4.6a1.579,1.579,0,0,1-1.788.076,28.862,28.862,0,0,0-3.923-1.974q-1.1-.452-2.211-.806a1.666,1.666,0,0,1-1.137-1.333l-1.131-7.352a1.589,1.589,0,0,0-1.675-1.345l-6.983.471a1.661,1.661,0,0,0-1.554,1.588l-.24,5.633a1.631,1.631,0,0,1-1.3,1.534,28.534,28.534,0,0,0-8.269,3,1.621,1.621,0,0,1-1.893-.22L1448,608.728a1.677,1.677,0,0,0-2.229-.018l-5.231,4.617a1.6,1.6,0,0,0-.226,2.161l.189.262,3.823,5.166a1.639,1.639,0,0,1,.06,1.869l0,.007a28.364,28.364,0,0,0-2.318,4.463c-.348.844-.645,1.692-.911,2.552a1.607,1.607,0,0,1-1.3,1.135l-6.256.954a1.662,1.662,0,0,0-1.411,1.752l.465,6.955a1.79,1.79,0,0,0,.138.555,1.655,1.655,0,0,0,1.419.969l4.753.192a1.654,1.654,0,0,1,1.372.871,1.783,1.783,0,0,1,.155.431,28.434,28.434,0,0,0,4.344,10.37,1.6,1.6,0,0,1,.027,1.759,1.66,1.66,0,0,1-.169.219l-3.84,4.212a1.628,1.628,0,0,0-.019,2.168l.107.123,4.515,5.119A1.657,1.657,0,0,0,1447.675,667.813Zm30.235-41.7a19.033,19.033,0,0,1,2.57,2.439,14.952,14.952,0,0,1,3.133,7.521c.019.252.03.5.041.751.479,15.174-17.18,22.345-27.436,10.86a15.5,15.5,0,0,1-3.056-6.37,10.1,10.1,0,0,1-.21-1.484,17.581,17.581,0,0,1,.613-5.943A15.338,15.338,0,0,1,1477.91,626.117Z" transform="translate(-944.559 -289.571)" fill="#dfebfd"/>
    <path id="Path_2767" data-name="Path 2767" d="M1657.983,426.473l5.108-2.769a1.287,1.287,0,0,1,1.341.083q.757.534,1.568,1.011a21.628,21.628,0,0,0,3.077,1.509,1.27,1.27,0,0,1,.815,1.178l.068,6.072a1.247,1.247,0,0,0,1.163,1.236l5.536.418a1.234,1.234,0,0,0,1.3-1l1.02-5.5a1.238,1.238,0,0,1,1.084-1.017,22.457,22.457,0,0,0,6.792-1.992,1.279,1.279,0,0,1,1.52.342l2.162,2.626a1.291,1.291,0,0,0,1.688.257l4.6-3.039a1.128,1.128,0,0,0,.25-.213,1.239,1.239,0,0,0,.166-1.432l-2.064-3.818-.5-.93a22.219,22.219,0,0,0,1.779-2.587,22.57,22.57,0,0,0,1.782-3.792,1.238,1.238,0,0,1,1.156-.828l4.891-.05a1.284,1.284,0,0,0,1.266-1.189l.32-4.232.089-1.213a1.3,1.3,0,0,0-1.057-1.379l-4.594-.856a1.236,1.236,0,0,1-1.02-1.042,22.257,22.257,0,0,0-1.217-4.607,3.861,3.861,0,0,0-.139-.376.676.676,0,0,1-.042-.128,1.267,1.267,0,0,1,.421-1.341l4.256-3.521a.9.9,0,0,0,.134-.127,1.288,1.288,0,0,0,.12-1.555l-3.023-4.589a1.282,1.282,0,0,0-1.679-.422l-5.327,2.89a1.239,1.239,0,0,1-1.4-.138,22.687,22.687,0,0,0-2.83-1.966q-.8-.473-1.629-.87a1.306,1.306,0,0,1-.736-1.161l-.068-5.836a1.247,1.247,0,0,0-1.152-1.23l-5.477-.405a1.3,1.3,0,0,0-1.383,1.062l-.809,4.35a1.279,1.279,0,0,1-1.182,1.048,22.4,22.4,0,0,0-6.755,1.417,1.271,1.271,0,0,1-1.446-.38l-3.171-3.837a1.315,1.315,0,0,0-1.73-.26l-4.573,3.01a1.258,1.258,0,0,0-.414,1.654l.118.224,2.4,4.435a1.286,1.286,0,0,1-.159,1.458l0,.005a22.245,22.245,0,0,0-2.294,3.211c-.364.617-.687,1.243-.99,1.882a1.261,1.261,0,0,1-1.133.738l-4.965.05a1.305,1.305,0,0,0-1.29,1.205l-.406,5.454a1.4,1.4,0,0,0,.046.447,1.3,1.3,0,0,0,.995.909l3.671.674a1.3,1.3,0,0,1,.969.828,1.391,1.391,0,0,1,.073.352,22.309,22.309,0,0,0,2.231,8.536,1.256,1.256,0,0,1-.173,1.369,1.283,1.283,0,0,1-.155.151l-3.448,2.848a1.277,1.277,0,0,0-.254,1.682l.07.107,2.943,4.475A1.3,1.3,0,0,0,1657.983,426.473Zm28.091-29.056a14.943,14.943,0,0,1,1.727,2.178,11.73,11.73,0,0,1,1.6,6.188c-.014.2-.032.393-.052.588-1.3,11.841-15.813,15.463-22.513,5.409a12.165,12.165,0,0,1-1.671-5.286,7.932,7.932,0,0,1,0-1.176,13.787,13.787,0,0,1,1.132-4.549A12.036,12.036,0,0,1,1686.075,397.418Z" transform="translate(-1107.433 -121.507)" fill="#dfebfd"/>
    <path id="Path_2770" data-name="Path 2770" d="M485.61,1132.946l5.3-2.872a1.335,1.335,0,0,1,1.392.086q.785.554,1.627,1.049a22.454,22.454,0,0,0,3.193,1.565,1.318,1.318,0,0,1,.846,1.222l.071,6.3a1.294,1.294,0,0,0,1.207,1.282l5.744.433a1.279,1.279,0,0,0,1.35-1.037l1.058-5.7a1.286,1.286,0,0,1,1.125-1.056,23.288,23.288,0,0,0,7.046-2.066,1.326,1.326,0,0,1,1.577.355l2.244,2.724a1.339,1.339,0,0,0,1.751.267l4.771-3.154a1.172,1.172,0,0,0,.26-.221,1.286,1.286,0,0,0,.172-1.486l-2.141-3.962-.524-.965a22.97,22.97,0,0,0,1.846-2.684,23.357,23.357,0,0,0,1.849-3.934,1.284,1.284,0,0,1,1.2-.859l5.075-.052a1.331,1.331,0,0,0,1.314-1.234l.332-4.392.092-1.258a1.348,1.348,0,0,0-1.1-1.431l-4.766-.889a1.283,1.283,0,0,1-1.058-1.08,23.117,23.117,0,0,0-1.263-4.78,4.077,4.077,0,0,0-.145-.39.7.7,0,0,1-.044-.133,1.315,1.315,0,0,1,.437-1.391l4.415-3.653a.973.973,0,0,0,.139-.132,1.338,1.338,0,0,0,.125-1.613l-3.137-4.76a1.33,1.33,0,0,0-1.742-.437l-5.526,3a1.285,1.285,0,0,1-1.45-.143,23.534,23.534,0,0,0-2.936-2.041q-.833-.49-1.69-.9a1.355,1.355,0,0,1-.764-1.2l-.07-6.055a1.294,1.294,0,0,0-1.2-1.276l-5.682-.42a1.352,1.352,0,0,0-1.435,1.1l-.839,4.513a1.327,1.327,0,0,1-1.227,1.086,23.236,23.236,0,0,0-7.008,1.471,1.32,1.32,0,0,1-1.5-.394l-3.29-3.981a1.364,1.364,0,0,0-1.795-.27l-4.745,3.122a1.3,1.3,0,0,0-.43,1.716l.123.233,2.49,4.6a1.335,1.335,0,0,1-.165,1.513l0,.005a23.17,23.17,0,0,0-2.38,3.331c-.377.641-.713,1.29-1.027,1.953a1.308,1.308,0,0,1-1.176.766l-5.152.052a1.354,1.354,0,0,0-1.338,1.25l-.422,5.659a1.458,1.458,0,0,0,.048.463,1.348,1.348,0,0,0,1.033.943l3.809.7a1.346,1.346,0,0,1,1.006.859,1.427,1.427,0,0,1,.075.365,23.149,23.149,0,0,0,2.315,8.856,1.3,1.3,0,0,1-.179,1.421,1.339,1.339,0,0,1-.161.157l-3.577,2.955a1.325,1.325,0,0,0-.264,1.745l.072.111,3.053,4.642A1.348,1.348,0,0,0,485.61,1132.946Zm29.145-30.145a15.472,15.472,0,0,1,1.792,2.26,12.169,12.169,0,0,1,1.664,6.42c-.014.206-.034.408-.053.609-1.352,12.286-16.406,16.043-23.357,5.612a12.619,12.619,0,0,1-1.734-5.484,8.154,8.154,0,0,1,0-1.221,14.308,14.308,0,0,1,1.174-4.72A12.487,12.487,0,0,1,514.755,1102.8Z" transform="translate(-179.512 -718.306)" fill="#dfebfd"/>
    <path id="Path_2771" data-name="Path 2771" d="M1781.607,662.487l9.509-6.806a2.591,2.591,0,0,1,2.7-.169q1.644.876,3.384,1.626a43.5,43.5,0,0,0,6.522,2.244,2.557,2.557,0,0,1,1.921,2.149l1.654,12.108a2.511,2.511,0,0,0,2.632,2.178l11.159-.549a2.482,2.482,0,0,0,2.349-2.321l.664-11.233a2.491,2.491,0,0,1,1.91-2.3,45.181,45.181,0,0,0,13.064-5.675,2.574,2.574,0,0,1,3.121.3l4.974,4.7a2.6,2.6,0,0,0,3.434.092l8.423-7.219a2.279,2.279,0,0,0,.447-.488,2.494,2.494,0,0,0-.026-2.9l-5.076-7.109-1.241-1.73a44.75,44.75,0,0,0,2.907-5.61,45.347,45.347,0,0,0,2.611-8.017,2.493,2.493,0,0,1,2.1-1.942l9.755-1.322a2.583,2.583,0,0,0,2.231-2.692l-.418-8.532-.127-2.445a2.616,2.616,0,0,0-2.455-2.49l-9.387-.562a2.489,2.489,0,0,1-2.3-1.825,44.832,44.832,0,0,0-3.582-8.9,7.9,7.9,0,0,0-.372-.716,1.415,1.415,0,0,1-.117-.245,2.551,2.551,0,0,1,.506-2.783l7.619-8.093a1.933,1.933,0,0,0,.235-.288,2.594,2.594,0,0,0-.148-3.135l-7.184-8.407a2.58,2.58,0,0,0-3.458-.422l-9.915,7.1a2.494,2.494,0,0,1-2.825.073,45.636,45.636,0,0,0-6.142-3.22q-1.722-.743-3.47-1.33a2.629,2.629,0,0,1-1.761-2.135l-1.594-11.638a2.509,2.509,0,0,0-2.608-2.167l-11.038.56a2.622,2.622,0,0,0-2.5,2.467l-.527,8.888a2.575,2.575,0,0,1-2.1,2.387,45.052,45.052,0,0,0-13.135,4.519,2.56,2.56,0,0,1-2.983-.4l-7.291-6.87a2.648,2.648,0,0,0-3.52-.087l-8.38,7.154a2.53,2.53,0,0,0-.414,3.406l.292.418,5.9,8.257a2.587,2.587,0,0,1,.046,2.952l-.005.012a44.836,44.836,0,0,0-3.778,6.985c-.571,1.324-1.062,2.655-1.506,4.005a2.537,2.537,0,0,1-2.078,1.757l-9.9,1.342a2.625,2.625,0,0,0-2.275,2.729l.551,10.993a2.833,2.833,0,0,0,.2.88,2.615,2.615,0,0,0,2.214,1.567l7.5.429a2.61,2.61,0,0,1,2.143,1.411,2.793,2.793,0,0,1,.233.684,44.9,44.9,0,0,0,6.587,16.488,2.526,2.526,0,0,1,0,2.778,2.591,2.591,0,0,1-.272.341l-6.174,6.549a2.57,2.57,0,0,0-.087,3.422l.165.2,6.995,8.2A2.616,2.616,0,0,0,1781.607,662.487Zm48.835-65.042a30.059,30.059,0,0,1,3.993,3.918,23.611,23.611,0,0,1,4.749,11.957c.023.4.034.792.044,1.186.357,23.972-27.714,34.83-43.605,16.427a24.489,24.489,0,0,1-4.658-10.139,15.976,15.976,0,0,1-.293-2.349,27.773,27.773,0,0,1,1.124-9.367A24.222,24.222,0,0,1,1830.443,597.444Z" transform="translate(-1188.996 -257.057)" fill="#dfebfd"/>
    <path id="Path_2773" data-name="Path 2773" d="M1447.087,1121.755l-13.4,159.271s-1.4,9.655,5.778,9.672c11.808.028,58.771,0,58.771,0s-8.887-2.01-8.779-6.532c.127-5.33,15.656-163.918,15.656-163.918Z" transform="translate(-945.609 -679.075)" fill="#759be0"/>
    <path id="Path_2774" data-name="Path 2774" d="M1513.639,1279.133c-2.322.007-47.178.147-58.677,0-5.011-.062-5.89-4.456-5.931-7.3a14.247,14.247,0,0,1,.152-2.371l.348-4.14.888-10.551.784-9.322,1.008-11.979.849-10.11,9.518-113.173,58.031-1.506s-6.54,66.368-11.167,114.679c-.517,5.383-1.008,10.544-1.462,15.362q-.222,2.307-.427,4.506c-.429,4.571-.821,8.768-1.162,12.474-.18,1.953-.346,3.768-.5,5.431-.591,6.515-.937,10.676-.941,11.467a6.667,6.667,0,0,0,.113,1.289C1506.02,1278.967,1512.767,1279.133,1513.639,1279.133Z" transform="translate(-957.197 -670.399)" fill="#aec3ff"/>
    <path id="Path_2775" data-name="Path 2775" d="M923.631,779.435l32.628,131.06,4.468,17.949,15.2,61.044h282.328l-56.012-210.053Z" transform="translate(-563.085 -423.423)" fill="#aec3ff"/>
    <path id="Path_2776" data-name="Path 2776" d="M910.054,779.434l-4.522,1.507,50.8,213.106,6.012-4.559Z" transform="translate(-549.509 -423.422)" fill="#759be0"/>
    <path id="Path_2777" data-name="Path 2777" d="M1108.842,1624.618h280.59l7.748-4.559H1114.854Z" transform="translate(-702.016 -1053.994)" fill="#759be0"/>
    <rect id="Rectangle_347" data-name="Rectangle 347" width="60.752" height="2.887" transform="translate(566.113 611.684) rotate(180)" fill="#759be0"/>
    <path id="Path_2778" data-name="Path 2778" d="M1512.04,1638.3l-.314,2.207-57.134,11.542.784-9.322.374-4.428Z" transform="translate(-961.37 -1067.675)" fill="#759be0" opacity="0.7"/>
    <path id="Path_2779" data-name="Path 2779" d="M1513.645,1736.786c-2.323.007-47.178.147-58.677,0-5.011-.062-5.89-4.456-5.931-7.3l56.864-10.7c-.591,6.515-.937,10.676-.941,11.467a6.679,6.679,0,0,0,.113,1.289C1506.025,1736.62,1512.772,1736.786,1513.645,1736.786Z" transform="translate(-957.202 -1128.052)" fill="#94b0ed"/>
    <path id="Path_2780" data-name="Path 2780" d="M1211.3,1394.283l-124.022,42.524-15.2-61.045Z" transform="translate(-674.443 -870.741)" fill="#94b0ed"/>
    <path id="Path_2781" data-name="Path 2781" d="M923.629,779.434h278.608L1247.1,948.251H965.672Z" transform="translate(-563.083 -423.422)" fill="#d2e0ff"/>
    <path id="Path_2782" data-name="Path 2782" d="M968.566,803.436l40.022,153.783h258.726l-40.462-152.012Z" transform="translate(-596.792 -441.427)" fill="#aec3ff" opacity="0.5"/>
    <rect id="Rectangle_348" data-name="Rectangle 348" width="97.863" height="61.748" transform="translate(465.43 454.038)" fill="#ed7d2b"/>
    <rect id="Rectangle_349" data-name="Rectangle 349" width="97.861" height="61.746" transform="translate(514.362 454.04)" fill="#f99746"/>
    <path id="Path_2783" data-name="Path 2783" d="M1392.475,1180.851l-20.628,20.628H1343.6v-29.75h48.874Z" transform="translate(-878.114 -717.691)" fill="#e06d20"/>
    <path id="Path_2784" data-name="Path 2784" d="M1277.324,1171.729l-22,21.232h48.962l21.971-21.232Z" transform="translate(-811.894 -717.691)" fill="#f99746"/>
    <path id="Path_2785" data-name="Path 2785" d="M1637.052,1173.923l-97.862-2.188v7.823h0v1.279l18.2,19.951h79.666v-19.86l-.5-.592h.5Z" transform="translate(-1024.829 -717.696)" fill="#ed7d2b"/>
    <path id="Path_2786" data-name="Path 2786" d="M1539.191,1171.729l19.364,21.232h96.567l-18.069-21.232Z" transform="translate(-1024.83 -717.691)" fill="#f99746"/>
    <path id="Path_2787" data-name="Path 2787" d="M777.032,1118.2s.68-7.415-7.605-7.415a9.735,9.735,0,0,1,3.809,2.043s-5.284-3.1-11.035,1.665-2.177,16.723-3.926,18.993-8.559,2.724-7.726,10.064,21.613,16.533,20.279,22.605c0,0,8.144-11.971,2.321-17.435,0,0,2.838,2.674,3.128,5.852,0,0,.77-6.2-3.178-8.189-3.494-1.756-6.356-8.179-6.053-9.327S777.032,1118.2,777.032,1118.2Z" transform="translate(-433.199 -671.977)" fill="#2c3a64"/>
    <path id="Path_2788" data-name="Path 2788" d="M797.751,1282.945s6.19,25.607,12.266,30.726c3.652,3.077,14.511,10.138,14.511,10.138l-4.517,1.639s-15.062-5.087-18.434-9.051-12.6-23.831-12.6-23.831Z" transform="translate(-462.075 -801.117)" fill="#ffb27d"/>
    <g id="Group_1524" data-name="Group 1524" transform="translate(333.542 522.058)">
      <path id="Path_2789" data-name="Path 2789" d="M853.325,1453.938l-1.455-3.6a10.217,10.217,0,0,0-9.474-6.391H815.563v89.718h111v-72.691H863.751A11.244,11.244,0,0,1,853.325,1453.938Z" transform="translate(-815.563 -1443.944)" fill="#f99746"/>
      <g id="Group_1523" data-name="Group 1523" transform="translate(16.743 30.422)">
        <path id="Path_2790" data-name="Path 2790" d="M882.569,1613.042v-6.467l22.683-9.936v6.608l-15.841,6.514,15.841,6.514v6.7Z" transform="translate(-882.569 -1588.906)" fill="#fff"/>
        <path id="Path_2791" data-name="Path 2791" d="M1005.358,1565.691h6.046l-20.762,43.4H984.6Z" transform="translate(-959.102 -1565.691)" fill="#fff"/>
        <path id="Path_2792" data-name="Path 2792" d="M1124.686,1606.574v6.467L1102,1622.977v-6.608l15.841-6.515L1102,1603.341v-6.7Z" transform="translate(-1047.171 -1588.906)" fill="#fff"/>
      </g>
    </g>
    <path id="Path_2793" data-name="Path 2793" d="M579.709,1390.317c.054.1.112.2.17.3,1.354,2.354,4.462,8.123,7.884,14.436,1.619,3,3.314,6.113,4.922,9.047,2.77,5.063,5.291,9.572,6.761,11.955,1.5,2.423,2.6,4.125,3.042,4.806l0,0a1.128,1.128,0,0,1,.145.7,36.706,36.706,0,0,0,.1,6.349,48.7,48.7,0,0,0,15.913,31.544l4.118.608s-5.827-21.588-7.544-33.793a23.445,23.445,0,0,1-.315-4.838c.3-3.18-.261-7.848-1.329-13.208a295.893,295.893,0,0,0-8.42-30.573c-.192-.6-5.983-21.544-5.983-21.544-4.86,4.248-22.588,6-22.588,6S573.581,1379.419,579.709,1390.317Z" transform="translate(-302.207 -863.501)" fill="#2f539b"/>
    <path id="Path_2794" data-name="Path 2794" d="M746.316,1774.283H729.131a9.433,9.433,0,0,1,.486-4.606c.86-1.907,2.086-1.968.156-4.957,1.092,1.125,4.6,1.59,7.087,1.255.3.494,1.963,3.8,2.98,4.535C740.963,1771.318,745.971,1771.031,746.316,1774.283Z" transform="translate(-417.115 -1162.507)" fill="#233862"/>
    <path id="Path_2795" data-name="Path 2795" d="M591.293,1432.563c.055.1.112.2.17.3,1.354,2.354,8.68,15.884,12.1,22.2-3.966-16.315-1.207-32.63-1.207-32.63Z" transform="translate(-313.791 -905.748)" fill="#233862"/>
    <path id="Path_2796" data-name="Path 2796" d="M807.134,1135.927c.112-.452-9.816,4.487-10.319,5.045-4.656,5.165-3.328,11.9-.664,11.969,1.709.042,1.378,2.882,1.378,2.882l19.035-8.053S814.271,1134.407,807.134,1135.927Z" transform="translate(-465.645 -690.745)" fill="#2c3a64"/>
    <path id="Path_2797" data-name="Path 2797" d="M791.7,1267.556s2.9,5.786,2.535,10.483c0,0-3.493,5.514-12.552,6.909C781.68,1284.948,789.469,1267.552,791.7,1267.556Z" transform="translate(-456.605 -789.573)" fill="#f99746"/>
    <path id="Path_2798" data-name="Path 2798" d="M515.416,1362.624l.058-3.214c-6.4.808-22.081-7.653-22.081-7.653s-6.7,4.456-7.617,17.182c-.448,6.211-3.28,32.48-3.593,40.324-.114,2.843-.152,4.872-.165,5.682a.013.013,0,0,1,0,.008,1.119,1.119,0,0,1-.272.661,36.719,36.719,0,0,0-3.47,5.319c-9.772,18.181-4.662,42.886-4.662,42.886l2.269-.577s8.263-25.61,13.663-36.688a23.187,23.187,0,0,1,2.446-4.187c2.031-2.466,4.172-6.654,6.282-11.695C502.264,1401.144,515.416,1362.624,515.416,1362.624Z" transform="translate(-224.516 -852.734)" fill="#2f539b"/>
    <path id="Path_2799" data-name="Path 2799" d="M480.442,1773.911H463.257a9.434,9.434,0,0,1,.486-4.606c.86-1.907,2.207-2.774,1.885-5.081a6.189,6.189,0,0,0,5.356,2.049,18.858,18.858,0,0,0,2.982,3.865C475.088,1770.946,480.1,1770.659,480.442,1773.911Z" transform="translate(-217.678 -1162.135)" fill="#233862"/>
    <path id="Path_2800" data-name="Path 2800" d="M609.763,1259.4c-2.308.394.377,2.229-2.8,2.574-4.519.493-9.185.831-11.629,1.805a2.626,2.626,0,0,0-1.674,1.356c-1.059,3.186-7.768,8.66-7.768,8.66-29.925-1.362-31.853-14.7-31.853-14.7,19.422-18.863,35.945-29.144,49.6-30.417,3.323-.31,7.8.106,9.9,1.042,4.776,2.126,7.393,8.6,7.393,8.6S618.534,1257.9,609.763,1259.4Z" transform="translate(-285.848 -760.334)" fill="#f99746"/>
    <path id="Path_2801" data-name="Path 2801" d="M730.639,1289.144c-4.519.493-9.185.831-11.629,1.805a47.656,47.656,0,0,1,6.044-26.151S729.65,1283.5,730.639,1289.144Z" transform="translate(-409.522 -787.505)" fill="#ed7d2b"/>
    <path id="Path_2802" data-name="Path 2802" d="M740,1254.648s-11.364-.621-13.383,6.514,3.788,35.613,5.04,38.552c2.279,5.351,13.371,20.624,13.371,20.624l4.079-1.242s-7.4-23.332-9.048-25.641C737.465,1289.831,743.4,1257.752,740,1254.648Z" transform="translate(-414.982 -779.881)" fill="#ffb27d"/>
    <path id="Path_2803" data-name="Path 2803" d="M804.664,1511.114a6.423,6.423,0,0,0,.975,2.743c.765.934,2.989,3.194,3.027,4.517,0,0-.112.587-.589.48s-2.133-1.747-2.983-1.63a16.47,16.47,0,0,0,.9,3.4c.45.747.092,3.914-.178,4.558s-3.585-3.459-4.949-5.292-.021-9.271-.021-9.271Z" transform="translate(-470.541 -971.898)" fill="#ffb27d"/>
    <path id="Path_2804" data-name="Path 2804" d="M718.914,1264.376c.03.167,10.754,1.973,17.461-1.431,0,0,5.6-17.555-2.4-16.715s-12.75,3.362-12.952,7.2S718.914,1264.376,718.914,1264.376Z" transform="translate(-409.522 -773.554)" fill="#f99746"/>
    <path id="Path_2805" data-name="Path 2805" d="M790.974,1217.507c.854,2.676,3.7,10.3,7.649,7.366-.134-.569.7-2.224,1.673-3.9,1.25-2.147,2.738-4.342,2.738-4.342l-6.432-5.635-.384-.337a16.392,16.392,0,0,1-4.784,5.432A1.283,1.283,0,0,0,790.974,1217.507Z" transform="translate(-463.53 -746.891)" fill="#ffb27d"/>
    <path id="Path_2806" data-name="Path 2806" d="M819.755,1217.641s-1.487,2.19-2.737,4.34c-4-2.465-4-7.414-3.694-9.978Z" transform="translate(-480.252 -747.902)" fill="#ed985f"/>
    <path id="Path_2807" data-name="Path 2807" d="M819.133,1185.961s-9.707-5.4-6.25-11.394,4.532-10.727,10.875-7.532,6.218,6.17,5.551,8.451S821.747,1187.211,819.133,1185.961Z" transform="translate(-479.452 -713.399)" fill="#ffb27d"/>
    <path id="Path_2808" data-name="Path 2808" d="M827.886,1169.554c-.445-2.661-1.8-2.915-2.739-2.738a7.763,7.763,0,0,0-9.441-3.615,13.217,13.217,0,0,1-7.651,4.6s1.127,2.1,5.767,3.393a7.932,7.932,0,0,0,4.579-.366,25.906,25.906,0,0,1-6.587,2.483c6.116.56,11.935-5.031,12.538-5.63a8.705,8.705,0,0,1,.481,4.007c-.4,1.8-2,5.067-1.026,5.489C823.808,1177.173,828.552,1173.544,827.886,1169.554Z" transform="translate(-476.389 -710.962)" fill="#2c3a64"/>
    <path id="Path_2809" data-name="Path 2809" d="M934.082,1445.978s-2.709,2.032-.667,3.36,5.686,1.687,5.7.816C939.166,1447.229,937.708,1445.149,934.082,1445.978Z" transform="translate(-569.853 -923.274)" fill="#ffb27d"/>
    <path id="Path_2810" data-name="Path 2810" d="M1095.018,993.284c-.315-1.3.255-2.321,1.46-2.324a2.836,2.836,0,0,1,2.57,2.317c.315,1.3-.248,2.322-1.46,2.323A2.823,2.823,0,0,1,1095.018,993.284Zm3.006-.005c-.2-.814-.748-1.429-1.344-1.427s-.841.6-.639,1.431.741,1.429,1.344,1.428S1098.225,994.105,1098.025,993.278Z" transform="translate(-691.582 -582.093)" fill="#f99746"/>
    <path id="Path_2811" data-name="Path 2811" d="M1022.12,862.329l-.744.194-.4-.807,1.209-.387h.68l1.094,4.518-.985,0Z" transform="translate(-636.103 -484.853)" fill="#94b0ed"/>
    <path id="Path_2812" data-name="Path 2812" d="M1039.454,863.443c-.315-1.3.255-2.321,1.46-2.323a2.836,2.836,0,0,1,2.571,2.317c.315,1.3-.248,2.321-1.46,2.323A2.824,2.824,0,0,1,1039.454,863.443Zm3.006-.005c-.2-.814-.748-1.429-1.344-1.427s-.841.6-.639,1.431.741,1.429,1.344,1.427S1042.661,864.265,1042.461,863.438Z" transform="translate(-649.902 -484.697)" fill="#94b0ed"/>
    <path id="Path_2813" data-name="Path 2813" d="M1354,861.726l-.744.194-.4-.807,1.209-.387h.68l1.094,4.518-.985,0Z" transform="translate(-885.056 -484.401)" fill="#94b0ed"/>
    <path id="Path_2814" data-name="Path 2814" d="M1371.339,862.84c-.315-1.3.255-2.322,1.46-2.323a2.836,2.836,0,0,1,2.57,2.316c.315,1.3-.249,2.321-1.46,2.323A2.824,2.824,0,0,1,1371.339,862.84Zm3.007-.005c-.2-.814-.748-1.429-1.344-1.427s-.841.6-.639,1.431.741,1.428,1.344,1.428S1374.546,863.662,1374.345,862.835Z" transform="translate(-898.856 -484.245)" fill="#94b0ed"/>
    <path id="Path_2815" data-name="Path 2815" d="M1395.454,862.8c-.315-1.3.255-2.321,1.46-2.323a2.836,2.836,0,0,1,2.57,2.317c.315,1.3-.248,2.321-1.46,2.323A2.824,2.824,0,0,1,1395.454,862.8Zm3.006-.005c-.2-.814-.748-1.428-1.344-1.427s-.841.6-.639,1.431.741,1.429,1.344,1.428S1398.66,863.621,1398.46,862.794Z" transform="translate(-916.945 -484.214)" fill="#94b0ed"/>
    <path id="Path_2816" data-name="Path 2816" d="M1518.787,862.84c-.315-1.3.255-2.322,1.46-2.323a2.835,2.835,0,0,1,2.57,2.316c.315,1.3-.248,2.321-1.46,2.323A2.823,2.823,0,0,1,1518.787,862.84Zm3.006-.005c-.2-.814-.748-1.429-1.344-1.427s-.841.6-.639,1.431.741,1.428,1.344,1.428S1521.994,863.662,1521.793,862.835Z" transform="translate(-1009.46 -484.245)" fill="#94b0ed"/>
    <path id="Path_2817" data-name="Path 2817" d="M1542.9,862.8c-.315-1.3.255-2.321,1.46-2.323a2.836,2.836,0,0,1,2.57,2.317c.315,1.3-.248,2.321-1.46,2.323A2.825,2.825,0,0,1,1542.9,862.8Zm3.007-.005c-.2-.814-.748-1.428-1.344-1.427s-.84.6-.639,1.431.741,1.429,1.344,1.428S1546.108,863.621,1545.908,862.794Z" transform="translate(-1027.548 -484.214)" fill="#94b0ed"/>
    <path id="Path_2818" data-name="Path 2818" d="M1567.017,862.758c-.315-1.3.255-2.321,1.46-2.323a2.836,2.836,0,0,1,2.57,2.317c.315,1.3-.248,2.321-1.46,2.323A2.824,2.824,0,0,1,1567.017,862.758Zm3.006,0c-.2-.814-.748-1.429-1.344-1.428s-.84.6-.639,1.431.741,1.428,1.344,1.427S1570.224,863.58,1570.023,862.753Z" transform="translate(-1045.638 -484.183)" fill="#94b0ed"/>
    <path id="Path_2819" data-name="Path 2819" d="M1734.669,862.349c-.315-1.3.254-2.322,1.46-2.324a2.836,2.836,0,0,1,2.571,2.317c.315,1.3-.249,2.321-1.46,2.323A2.823,2.823,0,0,1,1734.669,862.349Zm3.006-.005c-.2-.814-.748-1.429-1.344-1.427s-.841.6-.639,1.431.741,1.429,1.344,1.428S1737.875,863.17,1737.675,862.343Z" transform="translate(-1171.397 -483.876)" fill="#94b0ed"/>
    <path id="Path_2820" data-name="Path 2820" d="M1757.747,862.31c-.315-1.3.255-2.321,1.46-2.324a2.836,2.836,0,0,1,2.57,2.317c.315,1.3-.248,2.321-1.46,2.323A2.824,2.824,0,0,1,1757.747,862.31Zm3.006-.005c-.2-.814-.748-1.429-1.344-1.428s-.841.6-.639,1.431.741,1.428,1.344,1.427S1760.954,863.131,1760.754,862.3Z" transform="translate(-1188.709 -483.847)" fill="#94b0ed"/>
    <path id="Path_2821" data-name="Path 2821" d="M1782.848,862.267c-.315-1.3.255-2.321,1.46-2.323a2.836,2.836,0,0,1,2.57,2.317c.315,1.3-.248,2.321-1.459,2.323A2.824,2.824,0,0,1,1782.848,862.267Zm3.007-.005c-.2-.814-.748-1.429-1.344-1.428s-.84.6-.639,1.431.741,1.429,1.344,1.428S1786.055,863.089,1785.855,862.262Z" transform="translate(-1207.538 -483.815)" fill="#94b0ed"/>
    <path id="Path_2822" data-name="Path 2822" d="M1823.845,862.2c-.315-1.3.254-2.321,1.46-2.323a2.836,2.836,0,0,1,2.57,2.317c.315,1.3-.248,2.321-1.46,2.323A2.823,2.823,0,0,1,1823.845,862.2Zm3.006-.005c-.2-.814-.748-1.429-1.344-1.427s-.841.6-.639,1.431.741,1.428,1.344,1.427S1827.051,863.02,1826.851,862.193Z" transform="translate(-1238.29 -483.763)" fill="#94b0ed"/>
    <path id="Path_2823" data-name="Path 2823" d="M1846.625,861.017l-.744.194-.4-.807,1.209-.387h.68l1.094,4.518-.985,0Z" transform="translate(-1254.582 -483.869)" fill="#94b0ed"/>
    <path id="Path_2824" data-name="Path 2824" d="M1863.959,862.131c-.315-1.3.254-2.322,1.46-2.323a2.836,2.836,0,0,1,2.57,2.317c.315,1.3-.248,2.321-1.46,2.323A2.824,2.824,0,0,1,1863.959,862.131Zm3.006-.005c-.2-.814-.748-1.428-1.344-1.427s-.841.6-.639,1.431.741,1.428,1.344,1.427S1867.166,862.953,1866.965,862.126Z" transform="translate(-1268.381 -483.713)" fill="#94b0ed"/>
    <path id="Path_2825" data-name="Path 2825" d="M1904.144,862.023c-.315-1.3.254-2.321,1.46-2.324a2.835,2.835,0,0,1,2.57,2.317c.315,1.3-.248,2.321-1.46,2.323A2.824,2.824,0,0,1,1904.144,862.023Zm3.007-.005c-.2-.814-.748-1.429-1.344-1.428s-.841.6-.639,1.431.741,1.428,1.344,1.427S1907.351,862.844,1907.151,862.018Z" transform="translate(-1298.525 -483.631)" fill="#94b0ed"/>
    <path id="Path_2826" data-name="Path 2826" d="M1208.7,902.256c-.315-1.3.255-2.321,1.46-2.323a2.836,2.836,0,0,1,2.57,2.317c.315,1.3-.248,2.321-1.46,2.323A2.824,2.824,0,0,1,1208.7,902.256Zm3.007,0c-.2-.814-.748-1.429-1.344-1.428s-.841.6-.639,1.431.741,1.428,1.344,1.427S1211.908,903.078,1211.708,902.251Z" transform="translate(-776.858 -513.812)" fill="#94b0ed"/>
    <path id="Path_2827" data-name="Path 2827" d="M1232.817,902.216c-.315-1.3.255-2.321,1.46-2.323a2.836,2.836,0,0,1,2.57,2.317c.315,1.3-.248,2.321-1.46,2.323A2.824,2.824,0,0,1,1232.817,902.216Zm3.007-.005c-.2-.814-.748-1.428-1.344-1.427s-.841.6-.639,1.431.741,1.428,1.344,1.427S1236.024,903.038,1235.824,902.211Z" transform="translate(-794.948 -513.782)" fill="#94b0ed"/>
    <path id="Path_2828" data-name="Path 2828" d="M1833.308,901.28c-.315-1.3.254-2.321,1.46-2.323a2.836,2.836,0,0,1,2.57,2.317c.315,1.3-.248,2.321-1.46,2.323A2.824,2.824,0,0,1,1833.308,901.28Zm3.006-.005c-.2-.814-.748-1.429-1.344-1.427s-.841.6-.639,1.43.741,1.429,1.344,1.428S1836.514,902.1,1836.314,901.275Z" transform="translate(-1245.389 -513.08)" fill="#94b0ed"/>
    <path id="Path_2829" data-name="Path 2829" d="M1856.087,900.1l-.744.194-.4-.807,1.209-.387h.681l1.094,4.518h-.985Z" transform="translate(-1261.679 -513.185)" fill="#94b0ed"/>
    <path id="Path_2830" data-name="Path 2830" d="M1873.422,901.213c-.315-1.3.254-2.321,1.46-2.323a2.836,2.836,0,0,1,2.57,2.317c.315,1.3-.248,2.321-1.46,2.323A2.823,2.823,0,0,1,1873.422,901.213Zm3.006-.005c-.2-.814-.748-1.428-1.344-1.427s-.841.6-.639,1.431.741,1.428,1.344,1.427S1876.628,902.035,1876.428,901.208Z" transform="translate(-1275.479 -513.029)" fill="#94b0ed"/>
    <path id="Path_2831" data-name="Path 2831" d="M1961.839,901.023c-.315-1.3.254-2.321,1.46-2.323a2.836,2.836,0,0,1,2.57,2.317c.315,1.3-.249,2.321-1.46,2.324A2.824,2.824,0,0,1,1961.839,901.023Zm3.006,0c-.2-.814-.748-1.429-1.344-1.428s-.841.6-.639,1.431.741,1.428,1.344,1.427S1965.045,901.845,1964.845,901.019Z" transform="translate(-1341.802 -512.887)" fill="#94b0ed"/>
    <path id="Path_2832" data-name="Path 2832" d="M1984.619,899.843l-.744.193-.4-.807,1.209-.387h.68l1.094,4.518-.985,0Z" transform="translate(-1358.094 -512.993)" fill="#94b0ed"/>
    <path id="Path_2833" data-name="Path 2833" d="M1188.414,1113.258c-.315-1.3.255-2.321,1.46-2.323a2.836,2.836,0,0,1,2.57,2.317c.315,1.3-.248,2.321-1.46,2.323A2.824,2.824,0,0,1,1188.414,1113.258Zm3.006-.005c-.2-.814-.748-1.429-1.344-1.428s-.841.6-.639,1.431.741,1.428,1.344,1.427S1191.621,1114.08,1191.421,1113.253Z" transform="translate(-761.64 -672.089)" fill="#94b0ed"/>
    <path id="Path_2834" data-name="Path 2834" d="M1212.529,1113.218c-.315-1.3.255-2.321,1.46-2.323a2.836,2.836,0,0,1,2.571,2.316c.315,1.3-.248,2.321-1.46,2.323A2.824,2.824,0,0,1,1212.529,1113.218Zm3.007-.005c-.2-.814-.748-1.429-1.344-1.427s-.841.6-.639,1.431.741,1.429,1.344,1.427S1215.736,1114.04,1215.536,1113.213Z" transform="translate(-779.729 -672.059)" fill="#94b0ed"/>
    <path id="Path_2835" data-name="Path 2835" d="M1235.309,1112.036l-.744.193-.4-.807,1.209-.387h.68l1.094,4.518-.985,0Z" transform="translate(-796.021 -672.164)" fill="#94b0ed"/>
    <path id="Path_2836" data-name="Path 2836" d="M1276.759,1113.109c-.315-1.3.255-2.321,1.46-2.323a2.836,2.836,0,0,1,2.57,2.317c.315,1.3-.248,2.322-1.46,2.323A2.824,2.824,0,0,1,1276.759,1113.109Zm3.006,0c-.2-.814-.748-1.429-1.344-1.428s-.84.6-.639,1.431.741,1.429,1.344,1.428S1279.966,1113.931,1279.766,1113.1Z" transform="translate(-827.91 -671.977)" fill="#94b0ed"/>
    <path id="Path_2837" data-name="Path 2837" d="M1300.875,1113.069c-.315-1.3.255-2.321,1.46-2.324a2.836,2.836,0,0,1,2.57,2.317c.315,1.3-.248,2.321-1.46,2.323A2.824,2.824,0,0,1,1300.875,1113.069Zm3.006-.005c-.2-.814-.748-1.428-1.344-1.427s-.841.6-.639,1.431.741,1.429,1.344,1.427S1304.082,1113.89,1303.881,1113.063Z" transform="translate(-845.999 -671.946)" fill="#94b0ed"/>
    <path id="Path_2838" data-name="Path 2838" d="M1324.991,1113.028c-.315-1.3.255-2.321,1.46-2.323a2.835,2.835,0,0,1,2.57,2.317c.315,1.3-.248,2.322-1.46,2.323A2.823,2.823,0,0,1,1324.991,1113.028Zm3.006-.005c-.2-.814-.748-1.428-1.344-1.427s-.841.6-.639,1.431.741,1.429,1.344,1.428S1328.2,1113.85,1328,1113.023Z" transform="translate(-864.089 -671.916)" fill="#94b0ed"/>
    <path id="Path_2839" data-name="Path 2839" d="M1626.049,1113.258c-.315-1.3.254-2.321,1.459-2.323a2.836,2.836,0,0,1,2.571,2.317c.315,1.3-.248,2.321-1.46,2.323A2.823,2.823,0,0,1,1626.049,1113.258Zm3.006-.005c-.2-.814-.748-1.429-1.344-1.428s-.841.6-.639,1.431.741,1.428,1.344,1.427S1629.255,1114.08,1629.055,1113.253Z" transform="translate(-1089.919 -672.089)" fill="#94b0ed"/>
    <path id="Path_2840" data-name="Path 2840" d="M1650.163,1113.218c-.315-1.3.255-2.321,1.46-2.323a2.835,2.835,0,0,1,2.571,2.316c.315,1.3-.248,2.321-1.46,2.323A2.823,2.823,0,0,1,1650.163,1113.218Zm3.007-.005c-.2-.814-.748-1.429-1.344-1.427s-.84.6-.639,1.431.741,1.429,1.344,1.427S1653.37,1114.04,1653.17,1113.213Z" transform="translate(-1108.008 -672.059)" fill="#94b0ed"/>
    <path id="Path_2841" data-name="Path 2841" d="M1672.943,1112.036l-.744.193-.4-.807,1.209-.387h.68l1.094,4.518-.985,0Z" transform="translate(-1124.299 -672.164)" fill="#94b0ed"/>
    <path id="Path_2842" data-name="Path 2842" d="M1787.723,1113.258c-.315-1.3.255-2.321,1.46-2.323a2.836,2.836,0,0,1,2.571,2.317c.315,1.3-.248,2.321-1.46,2.323A2.825,2.825,0,0,1,1787.723,1113.258Zm3.007-.005c-.2-.814-.748-1.429-1.344-1.428s-.841.6-.639,1.431.741,1.428,1.344,1.427S1790.93,1114.08,1790.73,1113.253Z" transform="translate(-1211.195 -672.089)" fill="#94b0ed"/>
    <path id="Path_2843" data-name="Path 2843" d="M1811.839,1113.218c-.315-1.3.254-2.321,1.46-2.323a2.835,2.835,0,0,1,2.57,2.316c.315,1.3-.248,2.321-1.46,2.323A2.823,2.823,0,0,1,1811.839,1113.218Zm3.006-.005c-.2-.814-.748-1.429-1.344-1.427s-.84.6-.639,1.431.741,1.429,1.344,1.427S1815.045,1114.04,1814.845,1113.213Z" transform="translate(-1229.284 -672.059)" fill="#94b0ed"/>
    <path id="Path_2844" data-name="Path 2844" d="M1834.618,1112.036l-.744.193-.4-.807,1.209-.387h.681l1.094,4.518-.985,0Z" transform="translate(-1245.575 -672.164)" fill="#94b0ed"/>
    <path id="Path_2845" data-name="Path 2845" d="M1714.393,1113.109c-.315-1.3.254-2.321,1.46-2.323a2.835,2.835,0,0,1,2.57,2.317c.315,1.3-.248,2.322-1.46,2.323A2.824,2.824,0,0,1,1714.393,1113.109Zm3.006,0c-.2-.814-.748-1.429-1.344-1.428s-.841.6-.639,1.431.741,1.429,1.344,1.428S1717.6,1113.931,1717.4,1113.1Z" transform="translate(-1156.188 -671.977)" fill="#94b0ed"/>
    <path id="Path_2846" data-name="Path 2846" d="M1738.509,1113.069c-.315-1.3.254-2.321,1.46-2.324a2.837,2.837,0,0,1,2.571,2.317c.315,1.3-.249,2.321-1.46,2.323A2.824,2.824,0,0,1,1738.509,1113.069Zm3.006-.005c-.2-.814-.748-1.428-1.344-1.427s-.84.6-.639,1.431.741,1.429,1.344,1.427S1741.716,1113.89,1741.515,1113.063Z" transform="translate(-1174.278 -671.946)" fill="#94b0ed"/>
    <path id="Path_2847" data-name="Path 2847" d="M1762.624,1113.028c-.315-1.3.254-2.321,1.46-2.323a2.835,2.835,0,0,1,2.57,2.317c.315,1.3-.248,2.322-1.46,2.323A2.823,2.823,0,0,1,1762.624,1113.028Zm3.006-.005c-.2-.814-.748-1.428-1.344-1.427s-.84.6-.638,1.431.741,1.429,1.344,1.428S1765.831,1113.85,1765.63,1113.023Z" transform="translate(-1192.367 -671.916)" fill="#94b0ed"/>
    <path id="Path_2848" data-name="Path 2848" d="M1407.464,1112.622c-.315-1.3.255-2.321,1.46-2.323a2.836,2.836,0,0,1,2.57,2.317c.315,1.3-.248,2.321-1.46,2.323A2.824,2.824,0,0,1,1407.464,1112.622Zm3.006,0c-.2-.814-.748-1.429-1.344-1.428s-.841.6-.639,1.431.741,1.429,1.344,1.427S1410.671,1113.444,1410.47,1112.617Z" transform="translate(-925.954 -671.612)" fill="#94b0ed"/>
    <path id="Path_2849" data-name="Path 2849" d="M1430.244,1111.441l-.744.194-.4-.807,1.209-.387h.68l1.094,4.518h-.985Z" transform="translate(-942.246 -671.717)" fill="#94b0ed"/>
    <path id="Path_2850" data-name="Path 2850" d="M1447.579,1112.554c-.315-1.3.255-2.322,1.46-2.323a2.836,2.836,0,0,1,2.57,2.317c.315,1.3-.248,2.321-1.46,2.323A2.824,2.824,0,0,1,1447.579,1112.554Zm3.006,0c-.2-.814-.748-1.429-1.344-1.428s-.84.6-.639,1.431.741,1.429,1.344,1.428S1450.786,1113.376,1450.585,1112.55Z" transform="translate(-956.045 -671.561)" fill="#94b0ed"/>
    <path id="Path_2851" data-name="Path 2851" d="M1924.554,1112.054c-.315-1.3.255-2.322,1.46-2.324a2.837,2.837,0,0,1,2.571,2.317c.315,1.3-.248,2.321-1.46,2.323A2.824,2.824,0,0,1,1924.554,1112.054Zm3.007-.005c-.2-.814-.748-1.429-1.344-1.428s-.84.6-.639,1.431.741,1.428,1.344,1.427S1927.761,1112.875,1927.561,1112.049Z" transform="translate(-1313.834 -671.185)" fill="#94b0ed"/>
    <path id="Path_2852" data-name="Path 2852" d="M1947.334,1110.873l-.744.194-.4-.807,1.209-.387h.681l1.094,4.518-.985,0Z" transform="translate(-1330.127 -671.29)" fill="#94b0ed"/>
    <path id="Path_2853" data-name="Path 2853" d="M1964.669,1111.986c-.315-1.3.254-2.321,1.46-2.323a2.836,2.836,0,0,1,2.57,2.317c.315,1.3-.248,2.321-1.46,2.323A2.824,2.824,0,0,1,1964.669,1111.986Zm3.006,0c-.2-.814-.748-1.428-1.344-1.428s-.841.6-.639,1.431.741,1.428,1.344,1.427S1967.875,1112.808,1967.675,1111.981Z" transform="translate(-1343.925 -671.134)" fill="#94b0ed"/>
    <path id="Path_2854" data-name="Path 2854" d="M1042.576,946.811l-.744.194-.4-.807,1.209-.387h.68l1.094,4.518h-.985Z" transform="translate(-651.448 -548.225)" fill="#94b0ed"/>
    <path id="Path_2855" data-name="Path 2855" d="M1059.91,947.925c-.315-1.3.255-2.321,1.46-2.323a2.836,2.836,0,0,1,2.57,2.317c.315,1.3-.248,2.321-1.46,2.323A2.824,2.824,0,0,1,1059.91,947.925Zm3.007-.005c-.2-.814-.748-1.428-1.344-1.427s-.841.6-.639,1.431.741,1.429,1.344,1.427S1063.116,948.747,1062.917,947.92Z" transform="translate(-665.247 -548.069)" fill="#94b0ed"/>
    <path id="Path_2856" data-name="Path 2856" d="M1196.487,947.7c-.315-1.3.255-2.321,1.46-2.323a2.835,2.835,0,0,1,2.57,2.317c.315,1.3-.248,2.321-1.46,2.323A2.823,2.823,0,0,1,1196.487,947.7Zm3.006-.005c-.2-.814-.748-1.428-1.344-1.427s-.841.6-.639,1.431.741,1.428,1.344,1.428S1199.693,948.517,1199.493,947.69Z" transform="translate(-767.696 -547.896)" fill="#94b0ed"/>
    <path id="Path_2857" data-name="Path 2857" d="M1220.6,947.654c-.315-1.3.255-2.321,1.46-2.323a2.836,2.836,0,0,1,2.57,2.317c.315,1.3-.248,2.321-1.46,2.323A2.824,2.824,0,0,1,1220.6,947.654Zm3.006-.005c-.2-.814-.748-1.429-1.344-1.428s-.841.6-.639,1.431.741,1.429,1.344,1.428S1223.808,948.476,1223.608,947.649Z" transform="translate(-785.784 -547.866)" fill="#94b0ed"/>
    <path id="Path_2858" data-name="Path 2858" d="M1244.717,947.613c-.315-1.3.255-2.321,1.46-2.323a2.836,2.836,0,0,1,2.571,2.317c.315,1.3-.248,2.321-1.46,2.323A2.824,2.824,0,0,1,1244.717,947.613Zm3.007-.005c-.2-.814-.748-1.429-1.344-1.428s-.84.6-.639,1.431.741,1.428,1.344,1.427S1247.924,948.435,1247.724,947.608Z" transform="translate(-803.874 -547.835)" fill="#94b0ed"/>
    <path id="Path_2859" data-name="Path 2859" d="M1267.5,946.433l-.744.193-.4-.807,1.209-.387h.68l1.094,4.518h-.985Z" transform="translate(-820.166 -547.941)" fill="#94b0ed"/>
    <path id="Path_2860" data-name="Path 2860" d="M1283.626,946.405l-.744.194-.4-.807,1.209-.387h.681l1.094,4.518-.985,0Z" transform="translate(-832.264 -547.92)" fill="#94b0ed"/>
    <path id="Path_2861" data-name="Path 2861" d="M1300.961,947.519c-.315-1.3.255-2.321,1.46-2.324a2.836,2.836,0,0,1,2.57,2.317c.315,1.3-.248,2.321-1.46,2.323A2.824,2.824,0,0,1,1300.961,947.519Zm3.007-.005c-.2-.814-.748-1.429-1.344-1.428s-.841.6-.639,1.431.741,1.429,1.344,1.427S1304.168,948.34,1303.968,947.514Z" transform="translate(-846.064 -547.764)" fill="#94b0ed"/>
    <path id="Path_2862" data-name="Path 2862" d="M1924.6,946.5c-.315-1.3.255-2.321,1.46-2.323a2.835,2.835,0,0,1,2.57,2.317c.315,1.3-.248,2.321-1.459,2.323A2.824,2.824,0,0,1,1924.6,946.5Zm3.007-.005c-.2-.814-.748-1.429-1.344-1.428s-.841.6-.639,1.431.741,1.429,1.344,1.428S1927.806,947.326,1927.606,946.5Z" transform="translate(-1313.868 -547.003)" fill="#f99746"/>
    <path id="Path_2863" data-name="Path 2863" d="M1948.716,946.464c-.315-1.3.254-2.322,1.46-2.324a2.836,2.836,0,0,1,2.57,2.317c.315,1.3-.249,2.321-1.46,2.323A2.824,2.824,0,0,1,1948.716,946.464Zm3.006-.005c-.2-.814-.748-1.429-1.344-1.427s-.841.6-.639,1.431.741,1.428,1.344,1.427S1951.922,947.285,1951.722,946.458Z" transform="translate(-1331.959 -546.972)" fill="#f99746"/>
    <path id="Path_2864" data-name="Path 2864" d="M1972.831,946.423c-.315-1.3.255-2.321,1.46-2.323a2.836,2.836,0,0,1,2.57,2.317c.315,1.3-.248,2.321-1.46,2.323A2.824,2.824,0,0,1,1972.831,946.423Zm3.006-.005c-.2-.814-.748-1.429-1.344-1.428s-.84.6-.639,1.431.741,1.428,1.344,1.428S1976.038,947.245,1975.837,946.418Z" transform="translate(-1350.048 -546.942)" fill="#94b0ed"/>
    <path id="Path_2865" data-name="Path 2865" d="M1995.611,945.241l-.744.194-.4-.807,1.209-.387h.68l1.094,4.518-.985,0Z" transform="translate(-1366.339 -547.047)" fill="#94b0ed"/>
    <path id="Path_2866" data-name="Path 2866" d="M1053.568,992.211l-.744.194-.4-.807,1.209-.387h.68l1.094,4.518-.985,0Z" transform="translate(-659.693 -582.28)" fill="#94b0ed"/>
    <path id="Path_2867" data-name="Path 2867" d="M1070.9,993.324c-.315-1.3.255-2.321,1.46-2.323a2.836,2.836,0,0,1,2.57,2.317c.315,1.3-.248,2.321-1.46,2.323A2.824,2.824,0,0,1,1070.9,993.324Zm3.006-.005c-.2-.814-.748-1.429-1.344-1.428s-.841.6-.639,1.431.741,1.429,1.344,1.428S1074.109,994.146,1073.909,993.319Z" transform="translate(-673.493 -582.124)" fill="#94b0ed"/>
    <path id="Path_2868" data-name="Path 2868" d="M1183.364,993.135c-.315-1.3.255-2.321,1.46-2.324a2.836,2.836,0,0,1,2.57,2.317c.315,1.3-.248,2.321-1.46,2.323A2.824,2.824,0,0,1,1183.364,993.135Zm3.006-.005c-.2-.814-.748-1.429-1.344-1.428s-.841.6-.639,1.431.741,1.428,1.344,1.427S1186.571,993.956,1186.37,993.13Z" transform="translate(-757.852 -581.981)" fill="#94b0ed"/>
    <path id="Path_2869" data-name="Path 2869" d="M1207.479,993.094c-.315-1.3.255-2.321,1.46-2.323a2.836,2.836,0,0,1,2.57,2.317c.315,1.3-.248,2.321-1.46,2.323A2.824,2.824,0,0,1,1207.479,993.094Zm3.006-.005c-.2-.814-.748-1.429-1.344-1.428s-.841.6-.639,1.431.741,1.428,1.344,1.427S1210.686,993.916,1210.486,993.089Z" transform="translate(-775.941 -581.951)" fill="#94b0ed"/>
    <path id="Path_2870" data-name="Path 2870" d="M1116.02,1080.98c-.315-1.3.255-2.321,1.46-2.323a2.836,2.836,0,0,1,2.57,2.317c.315,1.3-.248,2.321-1.46,2.323A2.825,2.825,0,0,1,1116.02,1080.98Zm3.006-.005c-.2-.814-.748-1.428-1.344-1.427s-.841.6-.639,1.431.741,1.428,1.344,1.427S1119.227,1081.8,1119.027,1080.975Z" transform="translate(-707.336 -647.876)" fill="#f99746"/>
    <path id="Path_2871" data-name="Path 2871" d="M1138.8,1079.8l-.744.193-.4-.807,1.209-.387h.68l1.094,4.518-.985,0Z" transform="translate(-723.627 -647.982)" fill="#f99746"/>
    <path id="Path_2872" data-name="Path 2872" d="M1063.578,1034.508l-.744.193-.4-.807,1.209-.386h.68l1.094,4.518-.985,0Z" transform="translate(-667.202 -614.008)" fill="#94b0ed"/>
    <path id="Path_2873" data-name="Path 2873" d="M1080.912,1035.622c-.315-1.3.255-2.321,1.46-2.323a2.836,2.836,0,0,1,2.57,2.316c.315,1.3-.249,2.321-1.46,2.323A2.824,2.824,0,0,1,1080.912,1035.622Zm3.007-.005c-.2-.814-.748-1.429-1.344-1.427s-.841.6-.639,1.431.741,1.429,1.344,1.427S1084.119,1036.444,1083.918,1035.617Z" transform="translate(-681 -613.852)" fill="#94b0ed"/>
    <path id="Path_2874" data-name="Path 2874" d="M1105.028,1035.582c-.315-1.3.255-2.322,1.46-2.324a2.836,2.836,0,0,1,2.57,2.317c.315,1.3-.248,2.321-1.46,2.323A2.824,2.824,0,0,1,1105.028,1035.582Zm3.006-.005c-.2-.814-.748-1.429-1.344-1.427s-.841.6-.639,1.431.741,1.429,1.344,1.428S1108.235,1036.4,1108.034,1035.576Z" transform="translate(-699.091 -613.822)" fill="#94b0ed"/>
    <path id="Path_2875" data-name="Path 2875" d="M1127.808,1034.4l-.744.194-.4-.807,1.209-.387h.68l1.094,4.518-.985,0Z" transform="translate(-715.382 -613.926)" fill="#94b0ed"/>
    <path id="Path_2876" data-name="Path 2876" d="M1145.143,1035.513c-.315-1.3.255-2.322,1.46-2.323a2.836,2.836,0,0,1,2.57,2.317c.315,1.3-.248,2.321-1.46,2.323A2.824,2.824,0,0,1,1145.143,1035.513Zm3.006,0c-.2-.814-.748-1.429-1.344-1.427s-.84.6-.639,1.431.741,1.429,1.344,1.428S1148.35,1036.335,1148.149,1035.509Z" transform="translate(-729.182 -613.77)" fill="#94b0ed"/>
    <path id="Path_2877" data-name="Path 2877" d="M1169.258,1035.473c-.315-1.3.255-2.321,1.46-2.324a2.837,2.837,0,0,1,2.571,2.317c.315,1.3-.248,2.321-1.46,2.323A2.824,2.824,0,0,1,1169.258,1035.473Zm3.006-.005c-.2-.814-.748-1.428-1.344-1.427s-.841.6-.639,1.431.741,1.429,1.344,1.427S1172.465,1036.294,1172.265,1035.468Z" transform="translate(-747.271 -613.74)" fill="#94b0ed"/>
    <path id="Path_2878" data-name="Path 2878" d="M1193.373,1035.432c-.315-1.3.255-2.321,1.46-2.323a2.836,2.836,0,0,1,2.57,2.317c.315,1.3-.248,2.322-1.46,2.323A2.824,2.824,0,0,1,1193.373,1035.432Zm3.006-.005c-.2-.814-.748-1.429-1.344-1.428s-.841.6-.639,1.431.741,1.428,1.344,1.427S1196.58,1036.254,1196.38,1035.427Z" transform="translate(-765.36 -613.71)" fill="#94b0ed"/>
    <path id="Path_2879" data-name="Path 2879" d="M1217.489,1035.392c-.315-1.3.255-2.322,1.46-2.324a2.836,2.836,0,0,1,2.571,2.317c.315,1.3-.248,2.321-1.46,2.323A2.824,2.824,0,0,1,1217.489,1035.392Zm3.006-.005c-.2-.814-.748-1.429-1.344-1.428s-.841.6-.639,1.431.741,1.429,1.344,1.428S1220.7,1036.213,1220.5,1035.387Z" transform="translate(-783.45 -613.679)" fill="#94b0ed"/>
    <path id="Path_2880" data-name="Path 2880" d="M1241.6,1035.351c-.315-1.3.255-2.321,1.46-2.323a2.836,2.836,0,0,1,2.57,2.317c.315,1.3-.248,2.322-1.46,2.323A2.824,2.824,0,0,1,1241.6,1035.351Zm3.006,0c-.2-.814-.748-1.429-1.344-1.428s-.841.6-.639,1.431.741,1.429,1.344,1.427S1244.81,1036.173,1244.61,1035.346Z" transform="translate(-801.539 -613.649)" fill="#94b0ed"/>
    <path id="Path_2881" data-name="Path 2881" d="M1265.72,1035.31c-.315-1.3.255-2.321,1.46-2.323a2.836,2.836,0,0,1,2.571,2.317c.315,1.3-.248,2.321-1.46,2.324A2.824,2.824,0,0,1,1265.72,1035.31Zm3.006,0c-.2-.814-.748-1.429-1.344-1.428s-.841.6-.639,1.431.741,1.429,1.344,1.428S1268.926,1036.132,1268.726,1035.306Z" transform="translate(-819.629 -613.618)" fill="#94b0ed"/>
    <path id="Path_2882" data-name="Path 2882" d="M1288.5,1034.13l-.744.193-.4-.807,1.209-.387h.681l1.094,4.518-.985,0Z" transform="translate(-835.921 -613.724)" fill="#94b0ed"/>
    <path id="Path_2883" data-name="Path 2883" d="M1304.628,1034.1l-.744.194-.4-.807,1.209-.387h.681l1.094,4.518-.985,0Z" transform="translate(-848.018 -613.704)" fill="#94b0ed"/>
    <path id="Path_2884" data-name="Path 2884" d="M1321.963,1035.216c-.315-1.3.255-2.321,1.46-2.323a2.836,2.836,0,0,1,2.57,2.317c.315,1.3-.248,2.321-1.46,2.323A2.824,2.824,0,0,1,1321.963,1035.216Zm3.007,0c-.2-.814-.748-1.429-1.344-1.428s-.84.6-.639,1.431.741,1.428,1.344,1.427S1325.17,1036.038,1324.97,1035.211Z" transform="translate(-861.818 -613.548)" fill="#94b0ed"/>
    <path id="Path_2885" data-name="Path 2885" d="M1074.57,1079.907l-.744.194-.4-.807,1.209-.387h.68l1.094,4.518h-.985Z" transform="translate(-675.447 -648.063)" fill="#94b0ed"/>
    <path id="Path_2886" data-name="Path 2886" d="M1091.9,1081.021c-.315-1.3.255-2.321,1.46-2.323a2.836,2.836,0,0,1,2.571,2.317c.315,1.3-.248,2.321-1.46,2.323A2.824,2.824,0,0,1,1091.9,1081.021Zm3.006,0c-.2-.814-.748-1.429-1.344-1.428s-.841.6-.639,1.431.741,1.429,1.344,1.428S1095.112,1081.843,1094.911,1081.017Z" transform="translate(-689.247 -647.907)" fill="#94b0ed"/>
    <path id="Path_2887" data-name="Path 2887" d="M1156.136,1080.913c-.315-1.3.255-2.321,1.46-2.323a2.836,2.836,0,0,1,2.57,2.317c.315,1.3-.248,2.321-1.46,2.323A2.823,2.823,0,0,1,1156.136,1080.913Zm3.006-.005c-.2-.814-.748-1.429-1.344-1.428s-.841.6-.639,1.431.741,1.429,1.344,1.428S1159.343,1081.735,1159.142,1080.908Z" transform="translate(-737.428 -647.826)" fill="#94b0ed"/>
    <path id="Path_2888" data-name="Path 2888" d="M1180.25,1080.873c-.315-1.3.255-2.321,1.46-2.324a2.836,2.836,0,0,1,2.57,2.317c.315,1.3-.248,2.321-1.46,2.323A2.824,2.824,0,0,1,1180.25,1080.873Zm3.006-.005c-.2-.814-.748-1.429-1.344-1.428s-.841.6-.639,1.431.741,1.428,1.344,1.427S1183.457,1081.694,1183.257,1080.867Z" transform="translate(-755.516 -647.795)" fill="#94b0ed"/>
    <path id="Path_2889" data-name="Path 2889" d="M1137.345,1181.644c-.315-1.3.255-2.321,1.46-2.323a2.836,2.836,0,0,1,2.57,2.317c.315,1.3-.248,2.321-1.459,2.323A2.824,2.824,0,0,1,1137.345,1181.644Zm3.007-.005c-.2-.814-.748-1.428-1.344-1.427s-.84.6-.639,1.431.741,1.429,1.344,1.428S1140.552,1182.466,1140.352,1181.639Z" transform="translate(-723.332 -723.386)" fill="#94b0ed"/>
    <path id="Path_2890" data-name="Path 2890" d="M1160.126,1180.464l-.744.193-.4-.807,1.209-.387h.681l1.094,4.518-.985,0Z" transform="translate(-739.625 -723.492)" fill="#94b0ed"/>
    <path id="Path_2891" data-name="Path 2891" d="M1095.9,1180.571l-.744.194-.4-.807,1.209-.387h.681l1.094,4.518-.985,0Z" transform="translate(-691.443 -723.573)" fill="#94b0ed"/>
    <path id="Path_2892" data-name="Path 2892" d="M1113.229,1181.685c-.315-1.3.255-2.321,1.46-2.324a2.836,2.836,0,0,1,2.57,2.317c.315,1.3-.248,2.321-1.46,2.323A2.825,2.825,0,0,1,1113.229,1181.685Zm3.007-.005c-.2-.814-.748-1.428-1.344-1.427s-.841.6-.639,1.431.741,1.428,1.344,1.427S1116.436,1182.506,1116.236,1181.679Z" transform="translate(-705.242 -723.416)" fill="#94b0ed"/>
    <path id="Path_2893" data-name="Path 2893" d="M1177.46,1181.577c-.315-1.3.255-2.321,1.46-2.323a2.836,2.836,0,0,1,2.57,2.316c.315,1.3-.248,2.322-1.46,2.323A2.824,2.824,0,0,1,1177.46,1181.577Zm3.007-.005c-.2-.814-.748-1.428-1.344-1.427s-.841.6-.639,1.431.741,1.429,1.344,1.427S1180.667,1182.4,1180.467,1181.572Z" transform="translate(-753.423 -723.336)" fill="#f99746"/>
    <path id="Path_2894" data-name="Path 2894" d="M1201.575,1181.536c-.315-1.3.255-2.321,1.46-2.323a2.836,2.836,0,0,1,2.571,2.317c.315,1.3-.248,2.321-1.46,2.323A2.824,2.824,0,0,1,1201.575,1181.536Zm3.007-.005c-.2-.814-.748-1.429-1.344-1.428s-.84.6-.639,1.431.741,1.428,1.344,1.427S1204.782,1182.358,1204.582,1181.531Z" transform="translate(-771.512 -723.305)" fill="#f99746"/>
    <path id="Path_2895" data-name="Path 2895" d="M1107.548,1214.025c-.315-1.3.255-2.321,1.46-2.324a2.836,2.836,0,0,1,2.57,2.317c.315,1.3-.248,2.321-1.46,2.323A2.824,2.824,0,0,1,1107.548,1214.025Zm3.007-.005c-.2-.814-.748-1.428-1.344-1.427s-.84.6-.639,1.431.741,1.428,1.344,1.427S1110.755,1214.846,1110.555,1214.019Z" transform="translate(-700.981 -747.675)" fill="#94b0ed"/>
    <path id="Path_2896" data-name="Path 2896" d="M1130.328,1212.844l-.744.194-.4-.807,1.209-.387h.68l1.094,4.518-.985,0Z" transform="translate(-717.272 -747.781)" fill="#94b0ed"/>
    <path id="Path_2897" data-name="Path 2897" d="M1147.663,1213.958c-.315-1.3.255-2.321,1.46-2.324a2.836,2.836,0,0,1,2.57,2.317c.315,1.3-.248,2.321-1.46,2.323A2.824,2.824,0,0,1,1147.663,1213.958Zm3.007-.005c-.2-.814-.748-1.429-1.344-1.428s-.841.6-.639,1.431.741,1.428,1.344,1.427S1150.87,1214.779,1150.67,1213.952Z" transform="translate(-731.072 -747.625)" fill="#94b0ed"/>
    <path id="Path_2898" data-name="Path 2898" d="M1171.778,1213.917c-.315-1.3.255-2.321,1.46-2.323a2.835,2.835,0,0,1,2.57,2.316c.315,1.3-.248,2.322-1.46,2.323A2.824,2.824,0,0,1,1171.778,1213.917Zm3.007-.005c-.2-.814-.748-1.429-1.344-1.427s-.841.6-.639,1.431.741,1.429,1.344,1.428S1174.985,1214.739,1174.785,1213.912Z" transform="translate(-749.161 -747.595)" fill="#94b0ed"/>
    <path id="Path_2899" data-name="Path 2899" d="M1204.366,1080.832c-.315-1.3.255-2.321,1.46-2.323a2.836,2.836,0,0,1,2.571,2.316c.315,1.3-.249,2.321-1.46,2.323A2.823,2.823,0,0,1,1204.366,1080.832Zm3.007-.005c-.2-.814-.748-1.429-1.344-1.428s-.84.6-.639,1.431.741,1.429,1.344,1.427S1207.573,1081.654,1207.373,1080.827Z" transform="translate(-773.606 -647.765)" fill="#94b0ed"/>
    <path id="Path_2900" data-name="Path 2900" d="M1228.481,1080.792c-.315-1.3.255-2.321,1.46-2.324a2.836,2.836,0,0,1,2.57,2.317c.315,1.3-.248,2.321-1.46,2.323A2.824,2.824,0,0,1,1228.481,1080.792Zm3.007-.005c-.2-.814-.748-1.429-1.344-1.427s-.841.6-.639,1.431.741,1.428,1.344,1.427S1231.688,1081.613,1231.488,1080.786Z" transform="translate(-791.696 -647.734)" fill="#94b0ed"/>
    <path id="Path_2901" data-name="Path 2901" d="M1167.973,1298.774c-.315-1.3.255-2.321,1.46-2.323a2.835,2.835,0,0,1,2.57,2.317c.315,1.3-.248,2.321-1.46,2.323A2.824,2.824,0,0,1,1167.973,1298.774Zm3.006-.005c-.2-.814-.748-1.428-1.344-1.427s-.841.6-.639,1.431.741,1.429,1.344,1.428S1171.18,1299.6,1170.979,1298.769Z" transform="translate(-746.307 -811.248)" fill="#f99746"/>
    <path id="Path_2902" data-name="Path 2902" d="M1190.752,1297.594l-.744.193-.4-.807,1.209-.387h.68l1.094,4.518-.985,0Z" transform="translate(-762.598 -811.354)" fill="#f99746"/>
    <path id="Path_2903" data-name="Path 2903" d="M1115.53,1252.3l-.744.194-.4-.807,1.209-.387h.681l1.094,4.518-.985,0Z" transform="translate(-706.172 -777.379)" fill="#94b0ed"/>
    <path id="Path_2904" data-name="Path 2904" d="M1132.864,1253.416c-.315-1.3.255-2.322,1.46-2.324a2.836,2.836,0,0,1,2.57,2.317c.315,1.3-.248,2.321-1.46,2.323A2.825,2.825,0,0,1,1132.864,1253.416Zm3.007-.005c-.2-.814-.748-1.429-1.344-1.428s-.84.6-.639,1.431.741,1.428,1.344,1.427S1136.071,1254.237,1135.87,1253.41Z" transform="translate(-719.971 -777.223)" fill="#94b0ed"/>
    <path id="Path_2905" data-name="Path 2905" d="M1156.98,1253.375c-.315-1.3.255-2.321,1.46-2.323a2.835,2.835,0,0,1,2.57,2.316c.315,1.3-.248,2.321-1.46,2.323A2.824,2.824,0,0,1,1156.98,1253.375Zm3.007-.005c-.2-.814-.748-1.429-1.344-1.427s-.841.6-.639,1.431.741,1.429,1.344,1.428S1160.187,1254.2,1159.987,1253.37Z" transform="translate(-738.061 -777.193)" fill="#94b0ed"/>
    <path id="Path_2906" data-name="Path 2906" d="M1179.76,1252.193l-.744.194-.4-.807,1.209-.387h.68l1.094,4.518-.985,0Z" transform="translate(-754.352 -777.298)" fill="#94b0ed"/>
    <path id="Path_2907" data-name="Path 2907" d="M1126.523,1297.7l-.744.194-.4-.807,1.209-.387h.68l1.094,4.518-.985,0Z" transform="translate(-714.418 -811.434)" fill="#94b0ed"/>
    <path id="Path_2908" data-name="Path 2908" d="M1143.857,1298.815c-.315-1.3.255-2.322,1.46-2.324a2.837,2.837,0,0,1,2.57,2.317c.315,1.3-.248,2.321-1.46,2.323A2.824,2.824,0,0,1,1143.857,1298.815Zm3.007-.005c-.2-.814-.748-1.428-1.344-1.427s-.841.6-.639,1.431.741,1.428,1.344,1.427S1147.064,1299.636,1146.864,1298.81Z" transform="translate(-728.217 -811.278)" fill="#94b0ed"/>
    <path id="Path_2909" data-name="Path 2909" d="M1208.088,1298.707c-.315-1.3.255-2.321,1.46-2.323a2.837,2.837,0,0,1,2.571,2.317c.315,1.3-.249,2.321-1.46,2.323A2.824,2.824,0,0,1,1208.088,1298.707Zm3.007-.005c-.2-.814-.748-1.429-1.344-1.428s-.841.6-.639,1.431.741,1.429,1.344,1.427S1211.295,1299.528,1211.094,1298.7Z" transform="translate(-776.398 -811.197)" fill="#94b0ed"/>
    <path id="Path_2910" data-name="Path 2910" d="M1232.2,1298.666c-.315-1.3.255-2.321,1.46-2.323a2.835,2.835,0,0,1,2.57,2.316c.315,1.3-.248,2.321-1.46,2.323A2.824,2.824,0,0,1,1232.2,1298.666Zm3.006-.005c-.2-.814-.748-1.429-1.344-1.428s-.841.6-.639,1.431.741,1.429,1.344,1.428S1235.409,1299.488,1235.209,1298.661Z" transform="translate(-794.487 -811.167)" fill="#94b0ed"/>
    <path id="Path_2911" data-name="Path 2911" d="M1177.271,1330.828c-.315-1.3.255-2.321,1.46-2.323a2.836,2.836,0,0,1,2.571,2.316c.315,1.3-.248,2.321-1.46,2.323A2.824,2.824,0,0,1,1177.271,1330.828Zm3.007-.005c-.2-.814-.748-1.429-1.344-1.428s-.841.6-.639,1.431.741,1.428,1.344,1.427S1180.478,1331.65,1180.278,1330.823Z" transform="translate(-753.282 -835.292)" fill="#f99746"/>
    <path id="Path_2912" data-name="Path 2912" d="M1200.051,1329.647l-.744.194-.4-.807,1.209-.387h.681l1.094,4.518h-.985Z" transform="translate(-769.573 -835.398)" fill="#f99746"/>
    <path id="Path_2913" data-name="Path 2913" d="M1153.156,1330.869c-.315-1.3.255-2.321,1.46-2.324a2.836,2.836,0,0,1,2.57,2.317c.315,1.3-.248,2.322-1.46,2.323A2.824,2.824,0,0,1,1153.156,1330.869Zm3.006-.005c-.2-.814-.748-1.429-1.344-1.428s-.841.6-.639,1.431.741,1.428,1.344,1.427S1156.362,1331.69,1156.162,1330.863Z" transform="translate(-735.192 -835.323)" fill="#94b0ed"/>
    <path id="Path_2914" data-name="Path 2914" d="M1217.387,1330.761c-.315-1.3.255-2.321,1.46-2.323a2.836,2.836,0,0,1,2.571,2.316c.315,1.3-.248,2.321-1.46,2.323A2.824,2.824,0,0,1,1217.387,1330.761Zm3.006,0c-.2-.814-.748-1.429-1.344-1.427s-.841.6-.639,1.431.741,1.429,1.344,1.427S1220.593,1331.583,1220.393,1330.756Z" transform="translate(-783.373 -835.242)" fill="#94b0ed"/>
    <path id="Path_2915" data-name="Path 2915" d="M1241.5,1330.72c-.315-1.3.255-2.321,1.46-2.323a2.835,2.835,0,0,1,2.57,2.316c.315,1.3-.248,2.322-1.46,2.323A2.824,2.824,0,0,1,1241.5,1330.72Zm3.006-.005c-.2-.814-.748-1.429-1.344-1.427s-.841.6-.639,1.431.742,1.428,1.344,1.427S1244.708,1331.542,1244.508,1330.715Z" transform="translate(-801.462 -835.211)" fill="#94b0ed"/>
    <path id="Path_2916" data-name="Path 2916" d="M1256.318,1298.626c-.315-1.3.255-2.322,1.46-2.324a2.836,2.836,0,0,1,2.571,2.317c.315,1.3-.248,2.321-1.46,2.323A2.824,2.824,0,0,1,1256.318,1298.626Zm3.006-.005c-.2-.814-.748-1.429-1.344-1.428s-.841.6-.639,1.431.741,1.428,1.344,1.427S1259.525,1299.447,1259.325,1298.62Z" transform="translate(-812.577 -811.136)" fill="#94b0ed"/>
    <path id="Path_2917" data-name="Path 2917" d="M1280.433,1298.585c-.315-1.3.255-2.321,1.46-2.323a2.835,2.835,0,0,1,2.57,2.316c.315,1.3-.248,2.322-1.46,2.323A2.824,2.824,0,0,1,1280.433,1298.585Zm3.007-.005c-.2-.814-.748-1.429-1.344-1.427s-.841.6-.639,1.431.741,1.429,1.344,1.428S1283.64,1299.407,1283.44,1298.58Z" transform="translate(-830.666 -811.106)" fill="#94b0ed"/>
    <path id="Path_2918" data-name="Path 2918" d="M1918.258,990.79l-.744.194-.4-.807,1.209-.387H1919l1.094,4.518-.985,0Z" transform="translate(-1308.315 -581.214)" fill="#94b0ed"/>
    <path id="Path_2919" data-name="Path 2919" d="M1935.593,991.9c-.315-1.3.254-2.321,1.459-2.323a2.836,2.836,0,0,1,2.571,2.317c.315,1.3-.249,2.321-1.46,2.323A2.824,2.824,0,0,1,1935.593,991.9Zm3.006-.005c-.2-.814-.748-1.428-1.344-1.427s-.841.6-.639,1.431.741,1.428,1.344,1.427S1938.8,992.726,1938.6,991.9Z" transform="translate(-1322.115 -581.058)" fill="#94b0ed"/>
    <path id="Path_2920" data-name="Path 2920" d="M1959.708,991.863c-.315-1.3.254-2.321,1.46-2.323a2.836,2.836,0,0,1,2.57,2.316c.315,1.3-.248,2.322-1.46,2.323A2.823,2.823,0,0,1,1959.708,991.863Zm3.006-.005c-.2-.814-.748-1.429-1.344-1.428s-.84.6-.638,1.431.741,1.429,1.344,1.428S1962.915,992.685,1962.714,991.858Z" transform="translate(-1340.204 -581.028)" fill="#94b0ed"/>
    <path id="Path_2921" data-name="Path 2921" d="M1983.824,991.822c-.315-1.3.255-2.321,1.46-2.323a2.836,2.836,0,0,1,2.57,2.317c.315,1.3-.248,2.321-1.46,2.323A2.824,2.824,0,0,1,1983.824,991.822Zm3.006-.005c-.2-.814-.748-1.429-1.344-1.428s-.841.6-.639,1.431.741,1.428,1.344,1.427S1987.031,992.644,1986.83,991.817Z" transform="translate(-1358.294 -580.997)" fill="#94b0ed"/>
    <path id="Path_2922" data-name="Path 2922" d="M2006.6,990.641l-.744.193-.4-.807,1.209-.387h.681l1.094,4.518h-.985Z" transform="translate(-1374.586 -581.103)" fill="#94b0ed"/>
    <path id="Path_2923" data-name="Path 2923" d="M1895.478,1035.27c-.315-1.3.255-2.321,1.46-2.324a2.836,2.836,0,0,1,2.57,2.317c.315,1.3-.248,2.322-1.46,2.323A2.825,2.825,0,0,1,1895.478,1035.27Zm3.006-.005c-.2-.814-.748-1.429-1.344-1.428s-.841.6-.639,1.431.741,1.428,1.344,1.427S1898.685,1036.091,1898.485,1035.265Z" transform="translate(-1292.024 -613.587)" fill="#94b0ed"/>
    <path id="Path_2924" data-name="Path 2924" d="M1918.258,1034.089l-.744.194-.4-.807,1.209-.387H1919l1.094,4.518-.985,0Z" transform="translate(-1308.315 -613.693)" fill="#94b0ed"/>
    <path id="Path_2925" data-name="Path 2925" d="M1935.593,1035.2c-.315-1.3.254-2.322,1.459-2.324a2.837,2.837,0,0,1,2.571,2.317c.315,1.3-.249,2.321-1.46,2.323A2.824,2.824,0,0,1,1935.593,1035.2Zm3.006-.005c-.2-.814-.748-1.429-1.344-1.428s-.841.6-.639,1.431.741,1.428,1.344,1.427S1938.8,1036.024,1938.6,1035.2Z" transform="translate(-1322.115 -613.537)" fill="#f99746"/>
    <path id="Path_2926" data-name="Path 2926" d="M1959.708,1035.162c-.315-1.3.254-2.321,1.46-2.324a2.836,2.836,0,0,1,2.57,2.317c.315,1.3-.248,2.322-1.46,2.323A2.823,2.823,0,0,1,1959.708,1035.162Zm3.006-.005c-.2-.814-.748-1.429-1.344-1.428s-.84.6-.638,1.431.741,1.428,1.344,1.427S1962.915,1035.983,1962.714,1035.156Z" transform="translate(-1340.204 -613.506)" fill="#f99746"/>
    <path id="Path_2927" data-name="Path 2927" d="M1983.824,1035.121c-.315-1.3.255-2.321,1.46-2.323a2.836,2.836,0,0,1,2.57,2.316c.315,1.3-.248,2.321-1.46,2.324A2.824,2.824,0,0,1,1983.824,1035.121Zm3.006,0c-.2-.814-.748-1.429-1.344-1.428s-.841.6-.639,1.431.741,1.428,1.344,1.427S1987.031,1035.943,1986.83,1035.116Z" transform="translate(-1358.294 -613.476)" fill="#f99746"/>
    <path id="Path_2928" data-name="Path 2928" d="M2006.6,1033.94l-.744.194-.4-.807,1.209-.387h.681l1.094,4.518h-.985Z" transform="translate(-1374.586 -613.582)" fill="#f99746"/>
    <path id="Path_2929" data-name="Path 2929" d="M2001.7,1284.121l-.744.194-.4-.807,1.209-.387h.68l1.094,4.518-.985,0Z" transform="translate(-1370.908 -801.247)" fill="#94b0ed"/>
    <path id="Path_2930" data-name="Path 2930" d="M2019.035,1285.234c-.315-1.3.255-2.321,1.46-2.323a2.836,2.836,0,0,1,2.57,2.317c.315,1.3-.248,2.321-1.46,2.323A2.824,2.824,0,0,1,2019.035,1285.234Zm3.007,0c-.2-.814-.748-1.429-1.344-1.427s-.84.6-.639,1.431.741,1.428,1.344,1.427S2022.242,1286.056,2022.041,1285.229Z" transform="translate(-1384.706 -801.091)" fill="#94b0ed"/>
    <path id="Path_2931" data-name="Path 2931" d="M2043.151,1285.194c-.315-1.3.255-2.321,1.46-2.324a2.836,2.836,0,0,1,2.57,2.317c.315,1.3-.248,2.321-1.46,2.323A2.824,2.824,0,0,1,2043.151,1285.194Zm3.007-.005c-.2-.814-.748-1.428-1.344-1.428s-.841.6-.639,1.431.741,1.429,1.344,1.427S2046.357,1286.015,2046.157,1285.188Z" transform="translate(-1402.796 -801.061)" fill="#94b0ed"/>
    <path id="Path_2932" data-name="Path 2932" d="M1978.007,1313.552l-.744.194-.4-.807,1.209-.387h.681l1.094,4.518-.985,0Z" transform="translate(-1353.134 -823.325)" fill="#94b0ed"/>
    <path id="Path_2933" data-name="Path 2933" d="M1995.343,1314.667c-.315-1.3.254-2.321,1.46-2.323a2.837,2.837,0,0,1,2.571,2.317c.315,1.3-.249,2.321-1.46,2.323A2.824,2.824,0,0,1,1995.343,1314.667Zm3.006-.005c-.2-.814-.748-1.429-1.344-1.427s-.84.6-.639,1.431.741,1.429,1.344,1.427S1998.549,1315.488,1998.349,1314.661Z" transform="translate(-1366.934 -823.169)" fill="#94b0ed"/>
    <path id="Path_2934" data-name="Path 2934" d="M2019.458,1314.626c-.315-1.3.254-2.322,1.46-2.323a2.835,2.835,0,0,1,2.57,2.316c.315,1.3-.248,2.321-1.46,2.323A2.823,2.823,0,0,1,2019.458,1314.626Zm3.006-.005c-.2-.814-.748-1.429-1.344-1.427s-.841.6-.639,1.431.741,1.428,1.344,1.428S2022.664,1315.448,2022.464,1314.621Z" transform="translate(-1385.024 -823.139)" fill="#94b0ed"/>
    <path id="Path_2935" data-name="Path 2935" d="M2067.266,1285.153c-.315-1.3.255-2.321,1.46-2.323a2.836,2.836,0,0,1,2.571,2.317c.315,1.3-.249,2.321-1.46,2.323A2.824,2.824,0,0,1,2067.266,1285.153Zm3.007-.005c-.2-.814-.748-1.428-1.344-1.427s-.841.6-.639,1.431.741,1.428,1.344,1.427S2070.473,1285.975,2070.273,1285.148Z" transform="translate(-1420.886 -801.031)" fill="#94b0ed"/>
    <path id="Path_2936" data-name="Path 2936" d="M2090.046,1283.972l-.744.194-.4-.807,1.209-.387h.681l1.094,4.518-.985,0Z" transform="translate(-1437.177 -801.136)" fill="#94b0ed"/>
    <g id="Group_1528" data-name="Group 1528" transform="translate(685.495 339.986)">
      <g id="Group_1525" data-name="Group 1525" transform="translate(14.48 80.251)">
        <path id="Path_2937" data-name="Path 2937" d="M2377.544,1083.236a12.376,12.376,0,0,1,10.746,4.979c3.361,4.588,1.034,10,9.437,14.166s7.2,9.426,5.516,16.019-8.727,14.565-17.131,14.177-22.774-17.69-22.257-23.492,3.014-6.5,1.034-10.33C2361.788,1092.746,2367.541,1084.184,2377.544,1083.236Z" transform="translate(-2343.393 -1071.521)" fill="#163560"/>
        <path id="Path_2938" data-name="Path 2938" d="M2401.126,1171.114a.424.424,0,0,0,.06-.1c-.93-.333-1.011-1.692-.148-7.35l-.446.021-7.5.359s-.175,2.318-.491,4.479c-.063.43-.132.854-.206,1.252C2386.747,1175.4,2398.9,1177.942,2401.126,1171.114Z" transform="translate(-2363.698 -1131.881)" fill="#ffb27d"/>
        <path id="Path_2939" data-name="Path 2939" d="M2370.432,1776.716h16.208a8.9,8.9,0,0,0-.458-4.344c-.811-1.8-2.073-2.908-2.188-4.286a4.869,4.869,0,0,1-4.64,1.427,17.768,17.768,0,0,1-2.812,3.646C2375.481,1773.92,2370.758,1773.648,2370.432,1776.716Z" transform="translate(-2348.335 -1585.269)" fill="#143d7a"/>
        <path id="Path_2940" data-name="Path 2940" d="M2374.521,1401.31c-1.51,3.726-2.671,7.113-2.306,10.1a.085.085,0,0,0,0,.015,8.185,8.185,0,0,0,.181.975c5.319,21.267-2.221,48.958-2.221,48.958a31.3,31.3,0,0,1-3.434.589c-2.554.228-2.927-.532-2.927-.532s-2.537-22.583-10.749-65.751a119.8,119.8,0,0,1-2.079-15.227c-.129-1.66-.254-3.506-.391-5.67-.372-5.818.509-15.609,4.876-18.182,1.986-1.174,4.69-.851,8.325,2.011.287.227.558.5.879.726C2387.011,1375.4,2379.136,1389.941,2374.521,1401.31Z" transform="translate(-2333.401 -1276.115)" fill="#2f539b"/>
        <path id="Path_2941" data-name="Path 2941" d="M2412.043,1481.753c-.251-.876-8.284-28.94-8.419-31.071-.292-4.584,10.324,8.075,10.725,20.971C2412.839,1475.38,2411.678,1478.767,2412.043,1481.753Z" transform="translate(-2373.229 -1346.459)" fill="#233862"/>
        <path id="Path_2942" data-name="Path 2942" d="M2617.647,1621.879l-6.746-14.737a8.9,8.9,0,0,0-3.76,2.224c-1.3,1.486-2.237,1.222-5.192-.829,1.112,1.719,1.263,2.731,1.952,4.993.543.067,3.633,3.057,6.8,3.881C2611.961,1617.74,2614.722,1622.859,2617.647,1621.879Z" transform="translate(-2522.001 -1464.541)" fill="#143d7a"/>
        <path id="Path_2943" data-name="Path 2943" d="M2380.057,1373.16s14.523,50.488,19.845,53.738,31.632,9.714,39.4,11.265a15,15,0,0,0-.128-4.223,18.674,18.674,0,0,0-.893-2.167s-13.816-13.821-27.317-15.758c-2.828-.406,1.134-44.553-18.043-46.284C2375.4,1368.15,2380.057,1373.16,2380.057,1373.16Z" transform="translate(-2355.136 -1286.223)" fill="#2f539b"/>
        <path id="Path_2944" data-name="Path 2944" d="M2285.4,1043.947s.325-1.619.69-2.854c.161-.547-.966-4.136-1.746-4.578s-2.812,1.976-2.237,3.832c.3.953.781,4.056.781,4.056Z" transform="translate(-2282.004 -1036.462)" fill="#ffb27d"/>
        <path id="Path_2945" data-name="Path 2945" d="M2561.5,1066.334c.1.2.237.572.36.916,0-.094,0-.187,0-.278.006-.686,2.568-4.421,3.622-4.654s2.54,3.264,1.224,5.2c-.676.993-2.717,4.533-2.717,4.533l-2.26-1.365a3.162,3.162,0,0,0-.624-1.725c-.308-.389-.319-2.221-.429-3.02C2560.678,1065.94,2561.131,1065.578,2561.5,1066.334Z" transform="translate(-2491.043 -1055.849)" fill="#ffb27d"/>
        <path id="Path_2946" data-name="Path 2946" d="M2398.155,1164.109s-.175,2.318-.492,4.479c4.095.492,6.8-2.908,7.994-4.838Z" transform="translate(-2368.762 -1131.943)" fill="#ed975d"/>
        <path id="Path_2947" data-name="Path 2947" d="M2397.767,1108.7a23.534,23.534,0,0,0,3.891-6.377c.731-2.18.825-10.651-7.694-10.7A11.459,11.459,0,0,0,2389,1092.7c-1.993.954-5,3.206-3.155,10.884l.4,2.56Z" transform="translate(-2359.466 -1077.84)" fill="#163560"/>
        <path id="Path_2948" data-name="Path 2948" d="M2385.5,1120.568s10.456,1.732,11.434-4.8,2.987-10.7-3.647-12.083-8.308.914-9.164,3.014S2382.809,1119.949,2385.5,1120.568Z" transform="translate(-2358.108 -1086.575)" fill="#ffb27d"/>
        <path id="Path_2949" data-name="Path 2949" d="M2399.6,1098.341s2.779,8.13,7.015,9.917,6.322.892,6.322.892a12.61,12.61,0,0,1-2.983-7.975S2402.3,1095.017,2399.6,1098.341Z" transform="translate(-2370.212 -1082.14)" fill="#163560"/>
        <path id="Path_2950" data-name="Path 2950" d="M2388.263,1099.746a7.873,7.873,0,0,0-3.639,2.576c-1.124,1.357-1.519,3.243-2.023,5.108,0,0-1.387-5.528,1.48-8.112C2387.123,1096.578,2388.263,1099.746,2388.263,1099.746Z" transform="translate(-2357.213 -1082.775)" fill="#163560"/>
        <path id="Path_2951" data-name="Path 2951" d="M2355.465,1073.117s-2.3,18.753-7.139,23.237c-3.361,3.111-15.254,8.13-18.1,12.755a15.029,15.029,0,0,0-1.079,4.44,78.256,78.256,0,0,0,3.229,33.405q.309.926.647,1.852a3.134,3.134,0,0,1-1.861,4.058,53.45,53.45,0,0,1-8.759,2.29c-.688.121-1.4.227-2.123.318-9.977,1.267-16.728-1.074-20.159-2.805a4.567,4.567,0,0,1-2.5-4.331c.206-3.7,2.058-7.362,2.893-16.26.632-6.751-3.975-16.272-3.728-19.865.1-1.42.8-7.728.085-8.7-4.746-6.516-12.726-12.758-13.952-18.709-1.414-6.86-.5-20.55-.5-20.55a7.842,7.842,0,0,1,2.214-.559,3.267,3.267,0,0,1,2.293,1.238s3.561,13.334,3.74,14.231c.947,4.784,10.044,11.714,12.8,13.105a21.643,21.643,0,0,0,7.328,2.52s-2.244,3.876,1.076,4.413c4,.647,7.081-3.946,7.081-3.946a17.891,17.891,0,0,0,6.8.038c3.625-.532,16.531-4.9,18.395-8.207,1.359-2.408,8.524-15.763,8.524-15.763a1.867,1.867,0,0,1,1.735.17A1.957,1.957,0,0,1,2355.465,1073.117Z" transform="translate(-2282.099 -1056.886)" fill="#aec3ff"/>
        <path id="Path_2952" data-name="Path 2952" d="M2392.863,1156.9s-.448.9-1.049.918a7.112,7.112,0,0,1-2.234-.284,8.652,8.652,0,0,1-.358-1.1A10.16,10.16,0,0,1,2392.863,1156.9Z" transform="translate(-2362.431 -1126.45)" fill="#fff"/>
        <path id="Path_2953" data-name="Path 2953" d="M2454.363,1296.586s-8.975-1.538-9.571-7.927c-.635-6.807,6.337-25.493,6.337-25.493l.006.015A78.251,78.251,0,0,0,2454.363,1296.586Z" transform="translate(-2404.084 -1206.518)" fill="#94b0ed"/>
      </g>
      <g id="Group_1527" data-name="Group 1527">
        <path id="Path_2954" data-name="Path 2954" d="M2266.943,728.441l-.936-3.431a9.353,9.353,0,0,0-7.926-6.827L2233.69,715.3l-1.828,15.477-7.8,66.076,100.9,11.918,7.8-66.076-57.1-6.744A10.291,10.291,0,0,1,2266.943,728.441Z" transform="translate(-2224.057 -715.302)" fill="#f99746"/>
        <g id="Group_1526" data-name="Group 1526" transform="translate(18.995 34.418)">
          <path id="Path_2955" data-name="Path 2955" d="M2300.072,883.517l.695-5.879,21.686-6.6-.71,6.007-15.1,4.221,13.7,7.622-.72,6.092Z" transform="translate(-2300.072 -866.544)" fill="#fff"/>
          <path id="Path_2956" data-name="Path 2956" d="M2408.071,853.041l5.5.649-23.532,37.22-5.5-.649Z" transform="translate(-2363.433 -853.041)" fill="#fff"/>
          <path id="Path_2957" data-name="Path 2957" d="M2517.65,896.323l-.695,5.879-21.686,6.6.709-6.007,15.1-4.221-13.7-7.622.72-6.092Z" transform="translate(-2446.494 -876.906)" fill="#fff"/>
        </g>
      </g>
      <path id="Path_2958" data-name="Path 2958" d="M2559.842,1076.587a19.134,19.134,0,0,0-.556-3.083c-.259-.485.387-.625.938.485s1.648.776,2.2,1.875.065,1.39-.614,1.325A9.714,9.714,0,0,1,2559.842,1076.587Z" transform="translate(-2475.475 -983.724)" fill="#ffb27d"/>
      <path id="Path_2959" data-name="Path 2959" d="M2294.558,1047.342s1.479-1.6,1.472-2.316,1.034-2.489.743-2.812-.807.194-1.082.679-1.406.455-1.665,1.779A4.374,4.374,0,0,0,2294.558,1047.342Z" transform="translate(-2276.504 -960.45)" fill="#ffb27d"/>
    </g>
    <g id="Group_1532" data-name="Group 1532" transform="translate(469.292 375.007)">
      <g id="Group_1531" data-name="Group 1531" transform="translate(0 3.951)">
        <g id="Group_1530" data-name="Group 1530">
          <g id="Group_1529" data-name="Group 1529">
            <path id="Path_2960" data-name="Path 2960" d="M1358.827,942.017l38.315,16.782V943.867l-19.963-8.209,19.963-8.209V912.655l-38.315,16.783Z" transform="translate(-1358.827 -902.314)" fill="#2c3a64"/>
            <path id="Path_2961" data-name="Path 2961" d="M1553.744,871.269l-33.107,69.2h13.993l33.107-69.2Z" transform="translate(-1480.204 -871.269)" fill="#2c3a64"/>
          </g>
          <path id="Path_2962" data-name="Path 2962" d="M1719.388,912.655v14.933l19.963,8.21-19.963,8.209V958.8l38.315-16.782v-12.58Z" transform="translate(-1629.291 -902.314)" fill="#2c3a64"/>
        </g>
      </g>
      <rect id="Rectangle_351" data-name="Rectangle 351" width="13.993" height="3.952" transform="translate(40.433 69.204)" fill="#2c3a64"/>
      <rect id="Rectangle_352" data-name="Rectangle 352" width="6.537" height="3.951" transform="translate(80.996)" fill="#2c3a64"/>
    </g>
    <g id="Group_1535" data-name="Group 1535" transform="translate(469.292 375.007)">
      <g id="Group_1534" data-name="Group 1534">
        <g id="Group_1533" data-name="Group 1533">
          <path id="Path_2963" data-name="Path 2963" d="M1358.827,926.2l38.315,16.782V928.053l-19.963-8.209,19.963-8.209V896.841l-38.315,16.782Z" transform="translate(-1358.827 -886.5)" fill="#2b478b"/>
          <path id="Path_2964" data-name="Path 2964" d="M1553.744,855.454l-33.107,69.2h13.993l33.107-69.2Z" transform="translate(-1480.204 -855.454)" fill="#2b478b"/>
        </g>
        <path id="Path_2965" data-name="Path 2965" d="M1719.388,896.841v14.933l19.963,8.209-19.963,8.21v14.793L1757.7,926.2v-12.58Z" transform="translate(-1629.291 -886.5)" fill="#2b478b"/>
      </g>
    </g>
    <path id="Path_2966" data-name="Path 2966" d="M1247.258,947.527h-2.333l-19.1-72.874-24.55-93.68H927.1l41.532,166.554-2.965.031L923.633,778.712l279.572-.242.245.932,24.542,94.184Z" transform="translate(-563.087 -422.699)" fill="#94b0ed"/>
    <path id="Path_2967" data-name="Path 2967" d="M2154.844,1234.683l-2.252.3-19.6-74.8,2.167-1.068Z" transform="translate(-1470.249 -708.23)" fill="#aec3ff"/>
    <path id="Path_2968" data-name="Path 2968" d="M1092.891,896.6a1.816,1.816,0,0,0-.324,1.943.014.014,0,0,0,.005.009c.469,1.295,2.016,2.741,3.815,4.185.23.185.434.354.612.51.047.041.094.082.137.123s.071.065.106.1c1.677,1.546,1.046,1.9,4.058,5.037,3.435,3.574,5.8,3.638,6.473,3.313.569-.277-.588-2.173-1.869-4.3-.062-.1-.123-.207-.187-.311-.171-.283-.34-.571-.51-.856-1.5-2.564-1.116-3.767-.76-7.583.289-3.1,4.824-17.324,4.824-17.324l-6.583-1.134s-1.983,11.326-4.167,13.07c-1.168.93-2.475.942-3.6,1.63q-.119.072-.234.148A8.644,8.644,0,0,0,1092.891,896.6Z" transform="translate(-689.7 -499.085)" fill="#ffb27d"/>
    <path id="Path_2969" data-name="Path 2969" d="M1092.891,940.725a1.816,1.816,0,0,0-.324,1.943.014.014,0,0,0,.005.009,13.983,13.983,0,0,0,3.821,4.172c.227.188.428.362.606.523.047.041.094.082.137.123s.071.065.106.1c1.677,1.546,1.046,1.9,4.058,5.037,3.435,3.574,5.8,3.638,6.473,3.313.569-.277-.588-2.173-1.869-4.3a14.637,14.637,0,0,1-6.123-4.512c-2.068-2.639-3.448-6.031-4.856-8q-.119.072-.234.148A8.644,8.644,0,0,0,1092.891,940.725Z" transform="translate(-689.7 -543.214)" fill="#233862"/>
    <path id="Path_2970" data-name="Path 2970" d="M1290.909,886.47c.406,2.032,3.3,1.693,6.539.9s2.467.149,7.072-.36,6-2.227,6.141-2.912c.126-.608-2.15-.822-4.59-1.1-.307-.034-.615-.072-.924-.11-2.756-.346-4.774-2.124-7.277-3.584-2.371-1.383-5.909-7.019-5.909-7.019l-6.316.5s3.314,5.034,4.6,7.222a7.634,7.634,0,0,1,.62,4.3A8.1,8.1,0,0,0,1290.909,886.47Z" transform="translate(-834.639 -493.071)" fill="#ffb27d"/>
    <path id="Path_2971" data-name="Path 2971" d="M1312.962,919.536c3.236-.791,2.467.149,7.072-.36s6-2.227,6.141-2.912c.126-.608-2.15-.822-4.591-1.1l-.023.047a12.982,12.982,0,0,1-6.6,2.05c-3.125.076-6.434-.819-8.592-.784a8.108,8.108,0,0,0,.048,2.16C1306.83,920.666,1309.726,920.327,1312.962,919.536Z" transform="translate(-850.153 -525.234)" fill="#233862"/>
    <path id="Path_2972" data-name="Path 2972" d="M1144.8,737.049l-5.9,15.888-7.708,20.744a12.488,12.488,0,0,1-4.1-.374,17.75,17.75,0,0,1-3.96-1.928s2.14-22.274,6.133-35.06c1.023-3.282,2.17-5.936,3.435-7.431C1138.9,721.573,1144.8,737.049,1144.8,737.049Z" transform="translate(-712.739 -384.034)" fill="#2c3a64"/>
    <path id="Path_2973" data-name="Path 2973" d="M1014.39,656.943c-3.868-1.248-14.9.354-25.983,2.524l-2.32-3.827L962.15,653.77s-7.9,17.516-3.575,28.678a4.048,4.048,0,0,0,4.051,2.727s.349,0,.349,0,14.247-.009,18.873-.009c11.9,0,25.193-8.183,26.913-8.527,2.814-.563,3.939,5.065,6.753,10.974s26.45,26.169,26.45,26.169a20.807,20.807,0,0,0,5.134-.527,5.058,5.058,0,0,0,2.2-1.392S1023.112,659.757,1014.39,656.943Z" transform="translate(-588.326 -329.16)" fill="#2f539b"/>
    <path id="Path_2974" data-name="Path 2974" d="M949.125,368.477c-3.354-.863-7.945,0-8.707.071-9.108.9-12.168,11.058-10.79,18.94,1.272,7.275-2.418,9.288-6.694,15.033-8.574,11.521-2.97,21.235,3.8,23.74,4.059,1.5,9.7-2.288,9.7-2.288.1.041,17.709-11.535,24.927-18.061C973.372,401.209,957.672,370.676,949.125,368.477Z" transform="translate(-559.296 -114.869)" fill="#2b478b"/>
    <path id="Path_2975" data-name="Path 2975" d="M1009.339,469.4c.239.843-3.744,2.393-6.786,1.823-2.861-.533-6.068-3.884-5.406-4.2,1.1-.521,1.832-1.814,1.233-8.81l.544.061,9.154,1.045s.028,2.852.24,5.523A18.084,18.084,0,0,0,1009.339,469.4Z" transform="translate(-618.165 -182.471)" fill="#ffb27d"/>
    <path id="Path_2976" data-name="Path 2976" d="M1013.676,459.508s.028,2.852.24,5.523c-5.052.271-8.094-4.109-9.394-6.568Z" transform="translate(-623.763 -182.656)" fill="#ed975d"/>
    <path id="Path_2977" data-name="Path 2977" d="M1009.054,412.672s-11.91,1.175-12.527-6.253-2.57-12.279,5.008-13.343,9.293,1.647,10.1,4.077S1012.136,412.175,1009.054,412.672Z" transform="translate(-617.25 -133.429)" fill="#ffb27d"/>
    <path id="Path_2978" data-name="Path 2978" d="M997.169,385.565s-1.5,9.074-8.283,11.228c-4.948,1.571-7.189.535-7.189.535a20.17,20.17,0,0,0,3.229-7.55,3.631,3.631,0,0,1,2.422-2.771C990.864,385.85,995.125,382.687,997.169,385.565Z" transform="translate(-606.642 -127.091)" fill="#2b478b"/>
    <path id="Path_2979" data-name="Path 2979" d="M1034.634,390.6a7.88,7.88,0,0,1,4.233,3.4c1.087,1.583,2.346,5.572,2.131,7.339,0,0,2.084-8.4-.955-11.523C1036.821,386.5,1034.634,390.6,1034.634,390.6Z" transform="translate(-646.351 -130.188)" fill="#2b478b"/>
    <path id="Path_2980" data-name="Path 2980" d="M957.094,518.271c.212.9.394,1.732.542,2.5.243,1.235.409,2.3.527,3.24.364,2.929.254,4.665.5,6.564a16.365,16.365,0,0,0,.891,3.574c.493,1.361,13.435,2.573,20.8,2.084,2.338-.152,4.119-.481,4.752-1.027,2.627-2.281,2.365,2.736,2.725-21.272.174-11.71-9.937-22.14-9.937-22.14s-.807,5-10.835-.951c-.356-.208-4.305,5.639-8.106,12.84C954.763,511.635,955.912,513.318,957.094,518.271Z" transform="translate(-587.366 -206.939)" fill="#f99746"/>
    <path id="Path_2981" data-name="Path 2981" d="M1138.9,781.138l-7.708,20.744a12.487,12.487,0,0,1-4.1-.374,17.751,17.751,0,0,1-3.96-1.928s2.14-22.274,6.133-35.06Z" transform="translate(-712.739 -412.236)" fill="#2b478b"/>
    <path id="Path_2982" data-name="Path 2982" d="M1043.615,494.656s10.318,1.749,11.529,6.192,9.582,29.287,9.582,29.287-6.486,2.213-8.909-.21-8.431-22.481-8.431-22.481Z" transform="translate(-653.088 -209.805)" fill="#f99746"/>
    <path id="Path_2983" data-name="Path 2983" d="M1211.941,610.37l2.445-.97a5.836,5.836,0,0,1,2.264-.076c.794.25,2.781.224,2.79.549s-2.265,1.34-2.265,1.34l-.071-.027c.864,1.957,5.185,3.074,5.393,3.792.253.87-1.757,1.32-2.853,1.591s-3.778.244-5.1-1.15c-.967-1.02-2.6-2.422-2.6-2.422Z" transform="translate(-779.352 -295.749)" fill="#ffb27d"/>
    <path id="Path_2984" data-name="Path 2984" d="M1037.722,453.95a2.048,2.048,0,0,0,1.818,1.221c1.319,0,1.675-.2,1.925-.477a4.132,4.132,0,0,0,.5-.817A11.2,11.2,0,0,0,1037.722,453.95Z" transform="translate(-648.667 -179.087)" fill="#fff"/>
    <path id="Path_2985" data-name="Path 2985" d="M1087.277,591.385l24.979,1.907a7.788,7.788,0,0,1-1.088,5.169s-22.535,4.405-28.416,2.155-5.218-12.861-5.218-12.861Z" transform="translate(-678.514 -279.641)" fill="#f99746"/>
    <path id="Path_2986" data-name="Path 2986" d="M964.656,621.581c.364,2.929.254,4.665.5,6.564,9.368.03,21.893-7.234,21.893-7.234Z" transform="translate(-593.859 -304.511)" fill="#ed7d2b"/>
    <path id="Path_2987" data-name="Path 2987" d="M985.878,560.313s-14.594-.435-17.054-8.73c-2.7-9.113-5.729,3.748-5.729,3.748l1.611,8.208h16.012Z" transform="translate(-592.687 -250.058)" fill="#ed7d2b"/>
    <g id="Group_1537" data-name="Group 1537" transform="translate(398.159 282.327)">
      <path id="Path_2988" data-name="Path 2988" d="M1094.631,489.974l-.789-1.953a5.54,5.54,0,0,0-5.137-3.465h-14.549V533.2h60.184V493.787h-34.057A6.1,6.1,0,0,1,1094.631,489.974Z" transform="translate(-1074.157 -484.555)" fill="#aec3ff"/>
      <g id="Group_1536" data-name="Group 1536" transform="translate(9.078 16.495)">
        <path id="Path_2989" data-name="Path 2989" d="M1110.487,576.239v-3.507l12.3-5.387v3.583l-8.589,3.532,8.589,3.532v3.634Z" transform="translate(-1110.487 -563.152)" fill="#fff"/>
        <path id="Path_2990" data-name="Path 2990" d="M1177.063,550.566h3.278l-11.257,23.53h-3.278Z" transform="translate(-1151.983 -550.566)" fill="#fff"/>
        <path id="Path_2991" data-name="Path 2991" d="M1241.762,572.732v3.507l-12.3,5.387v-3.583l8.589-3.532-8.589-3.532v-3.634Z" transform="translate(-1199.733 -563.152)" fill="#fff"/>
      </g>
    </g>
    <path id="Path_2992" data-name="Path 2992" d="M1054.267,588.845l1.056-1.657a8.5,8.5,0,0,0,2.008-1.1c1.394-.979,1.21-2.445,1.906-2.29l.009,3.223-.076.011c2.991.8,6.489-.069,6.558.675.193,2.048-1.392,2.971-2.719,3.612a4.815,4.815,0,0,1-4.006.657c-1.342-.418-3.453-.843-3.453-.843Z" transform="translate(-661.078 -276.666)" fill="#ffb27d"/>
    <path id="Path_2993" data-name="Path 2993" d="M951.6,490.863s-9.474.62-11.842,4.315-5.306,22.454-4.074,28.9,31.57-1.232,31.57-1.232l-.968-5.59s-17.509.1-18.507-2.179C946.45,512.043,951.6,490.863,951.6,490.863Z" transform="translate(-571.906 -206.96)" fill="#f99746"/>
    <path id="Path_2994" data-name="Path 2994" d="M1183.253,515.973c-.082.245,1.425,2.728,3.576,2.3,1.341-.269,3.085-3.157,1.553-3.794A4.357,4.357,0,0,0,1183.253,515.973Z" transform="translate(-757.831 -224.435)" fill="#ffb27d"/>
  </g>
</svg>
