<svg xmlns="http://www.w3.org/2000/svg" width="682.524" height="332.404" viewBox="0 0 682.524 332.404">
  <g id="Group_1387" data-name="Group 1387" transform="translate(-2338.009 -908.954)">
    <g id="Group_1370" data-name="Group 1370" transform="translate(2338.009 1017.489)">
      <g id="Group_1367" data-name="Group 1367" transform="translate(14.156 44.577)">
        <path id="Path_2378" data-name="Path 2378" d="M2720.757,1836.423l2.433,1.975s6.655-2.386,8.156,5.522c0,0,.4,3.37-1.735,3.376s-1.254-.368-4.277-.28-5.529-1.505-5.971-3.958l-1.446-2.078Z" transform="translate(-2648.148 -1789.768)" fill="#ea8e50"/>
        <path id="Path_2379" data-name="Path 2379" d="M2474.424,1676.122c1.941-2.027,1.785-3.524,1.785-3.524s-22.474-18.4-24.753-19.9c-1.553-1.021-18.1-15.694-25.841-24.64-3.838-4.437-8.591-2.716-14.03-1.155l-4.479,1.285c-5.408,1.551-6.814,9.115-2.377,12.791,12.5,10.352,33.287,22,37.177,24.442,9.657,6.074,28.559,13.293,28.559,13.293A11.984,11.984,0,0,0,2474.424,1676.122Z" transform="translate(-2402.09 -1625.228)" fill="#1e3d70"/>
      </g>
      <path id="Path_2380" data-name="Path 2380" d="M2820.311,2367.349s5.454,4.086,13.811,1.927c0,0,6.738-1.535,8.216,1.825,0,0-10.334,5.25-12.949,6.686a31.252,31.252,0,0,0-5.482,4.111,2.711,2.711,0,0,1-3.924-.3c-.455-.559-.975-1.225-1.545-2-1.593-2.16-5.306-9.135-5.306-9.135Z" transform="translate(-2708.173 -2158.83)" fill="#233862"/>
      <path id="Path_2381" data-name="Path 2381" d="M2563.561,2014.274s-3.321,7.658-10.988,6.25c0,0-15.643-12.919-26.373-26.339a59.6,59.6,0,0,1-8.2-12.808c-7.115-16.474-26.321-41.046-38.532-53.5l30.551-11.052s9.785,19.685,22.805,43.864C2542.211,1978.11,2553.271,1997.866,2563.561,2014.274Z" transform="translate(-2448.222 -1807.831)" fill="#2b478b"/>
      <g id="Group_1368" data-name="Group 1368" transform="translate(33.321 11.094)">
        <path id="Path_2382" data-name="Path 2382" d="M2572.644,1523.61a36.759,36.759,0,0,0,.178-5.621,2.1,2.1,0,0,1,1.211-2.007l9.022-4.187a2.059,2.059,0,0,0,1.068-2.573l-3.114-8.562a2.006,2.006,0,0,0-2.363-1.262l-8.9,2.184a2.063,2.063,0,0,1-2.249-.932,36.656,36.656,0,0,0-7.556-8.814,2.079,2.079,0,0,1-.513-2.5l2.459-5.007a2.084,2.084,0,0,0-.755-2.68l-7.63-4.836a2.067,2.067,0,0,0-2.751.494l-5.354,7.035a36.851,36.851,0,0,0-11.934-1.014,2.036,2.036,0,0,1-2.012-1.169l-3.377-7.277a2.109,2.109,0,0,0-2.635-1.094l-8.41,3.059a2.135,2.135,0,0,0-1.343,2.516l1.825,7.438a2.068,2.068,0,0,1-.88,2.232,36.672,36.672,0,0,0-6.539,5.385,2.1,2.1,0,0,1-2.437.423l-8.122-3.991a2.093,2.093,0,0,0-2.691.758l-4.816,7.6a2.1,2.1,0,0,0,.5,2.794l7.908,6.019a2.062,2.062,0,0,1,.738,2.177,36.715,36.715,0,0,0-1.038,5.555q-.165,1.516-.2,3.013a2.149,2.149,0,0,1-1.24,1.9l-8.666,4.022a2.047,2.047,0,0,0-1.062,2.557l3.077,8.459a2.139,2.139,0,0,0,2.521,1.347l7.052-1.731a2.086,2.086,0,0,1,2.352,1.063,36.656,36.656,0,0,0,6.679,9.131,2.112,2.112,0,0,1,.411,2.427l-3.6,7.324a2.145,2.145,0,0,0,.777,2.758l7.582,4.805a2.071,2.071,0,0,0,2.756-.495l5.251-6.9a2.133,2.133,0,0,1,2.3-.748,36.639,36.639,0,0,0,6.333,1.256q1.757.19,3.491.212a2.086,2.086,0,0,1,1.864,1.207l3.427,7.384a2.131,2.131,0,0,0,2.662,1.106l8.422-3.064a2.1,2.1,0,0,0,1.32-2.471l-1.456-5.935a2.093,2.093,0,0,1,1.06-2.354,36.661,36.661,0,0,0,11.236-9.086,2.071,2.071,0,0,1,2.507-.534l6.572,3.229a2.087,2.087,0,0,0,2.683-.756l4.813-7.593a2.112,2.112,0,0,0-.5-2.811l-7.587-5.774a2.085,2.085,0,0,1-.781-2.055Q2572.476,1525.146,2572.644,1523.61Zm-28.545,14.375c-18.951,6.775-34.7-12.924-23.806-29.96a19.263,19.263,0,0,1,8.167-6.569c18.976-6.987,34.841,12.617,24.161,29.675A19.485,19.485,0,0,1,2544.1,1537.985Z" transform="translate(-2488.846 -1473.659)" fill="#afcdfb"/>
      </g>
      <path id="Path_2383" data-name="Path 2383" d="M2532.828,1960.689l-6.628,33.5a59.6,59.6,0,0,1-8.2-12.808c-7.115-16.474-26.321-41.046-38.532-53.5l30.551-11.052S2519.808,1936.51,2532.828,1960.689Z" transform="translate(-2448.222 -1807.831)" fill="#233862"/>
      <path id="Path_2384" data-name="Path 2384" d="M2569.2,2375.654s-.333,6.111,7.074,6.926c0,0,4.471.091,4.482,3.98H2558.99a16.74,16.74,0,0,1-.776-4.929c-.117-2.58,2.5-9.326,2.5-9.326Z" transform="translate(-2509.565 -2162.691)" fill="#233862"/>
      <path id="Path_2385" data-name="Path 2385" d="M2467.739,1912.044s13.61,14.955,22.249,41.9c4.7,14.659-8.616,51.516-11.211,64.321,0,0-8.933.758-15.041-1.6,0,0-.464-26.449,3.108-46.834,2-11.409-17.92-24.4-26.624-45.014-5.922-14.024,1.282-13.786,10.135-14.123Z" transform="translate(-2415.958 -1803.05)" fill="#2b478b"/>
      <path id="Path_2386" data-name="Path 2386" d="M2419.909,1549.71c-7.572,4.276-23.074.333-23.074.333s6.3-7.2,3.435-18.788l5.946,3.019,6.386,3.243a52.935,52.935,0,0,1,.7,5.724c.073.947.138,2,.184,3.16A19.86,19.86,0,0,1,2419.909,1549.71Z" transform="translate(-2383.84 -1507.436)" fill="#ffb07b"/>
      <path id="Path_2387" data-name="Path 2387" d="M2427.555,1667.948c0,1.331-1.533,1.968-1.858,2.033-3.055.558-11.582,3.875-19.264,4.636a61.588,61.588,0,0,1-19.072-1.291c-.874-.176-2.925-.728-3.07-1.565-.182-.914-25.449-51.51-5.807-73.243.461-.51,4.339.409,7.884,1.25a14.557,14.557,0,0,0,8.961-.732l3.325,1.75c4.084,2.276,11.81,10.36,12.714,16.7.459,3.226,2.3,5.615,2.838,8.453q.3,1.575.606,3.075.6,2.94,1.244,5.6c1.155,4.8,2.375,8.928,3.572,12.5,1.274,3.788,2.524,6.94,3.64,9.575,1.449,3.418,2.672,5.973,3.437,7.929A9.761,9.761,0,0,1,2427.555,1667.948Z" transform="translate(-2363.72 -1559.727)" fill="#2a4e96"/>
      <path id="Path_2388" data-name="Path 2388" d="M2453.775,1725.173c-35.668-16.8-48.02-49.072-48.02-49.072s28.979,10.69,36.127,13.473q.6,2.94,1.244,5.6c1.155,4.8,2.375,8.928,3.572,12.5,1.274,3.788,2.524,6.939,3.64,9.575C2451.787,1720.663,2453.011,1723.217,2453.775,1725.173Z" transform="translate(-2390.789 -1620.285)" fill="#1e3d70"/>
      <g id="Group_1369" data-name="Group 1369" transform="translate(10.18 46.172)">
        <path id="Path_2389" data-name="Path 2389" d="M2711.924,1853.46l3.082,1.13s6.172-4.364,10.015,2.734c0,0,1.39,3.1-.811,3.774s-1.4.039-4.492,1.07-6.14.288-7.308-1.921l-2.095-1.537Z" transform="translate(-2638.25 -1804.482)" fill="#ffb07b"/>
        <path id="Path_2390" data-name="Path 2390" d="M2460.3,1685.783c1.139-2.973,1.659-4.32,1.659-4.32s-23.289-18.984-25.662-20.612c-1.617-1.109-17.716-13.143-25.564-22.521a16.425,16.425,0,0,0-15.969-5.533l-4.889,1.025a7.271,7.271,0,0,0-3.242,12.636c12.9,11.057,34.65,23.881,38.706,26.548,10.069,6.622,32.339,15.9,32.339,15.9A5.733,5.733,0,0,0,2460.3,1685.783Z" transform="translate(-2384.093 -1632.447)" fill="#2a4e96"/>
      </g>
      <path id="Path_2391" data-name="Path 2391" d="M2428.035,1553.89c-7.446.418-12.289-5.73-12.289-5.73a59.231,59.231,0,0,0,5.2-3.237l6.386,3.243A53.014,53.014,0,0,1,2428.035,1553.89Z" transform="translate(-2398.573 -1518.085)" fill="#ea8e50"/>
      <path id="Path_2392" data-name="Path 2392" d="M2406.547,1483.914s-11.282,8.1-16.217.993-9.713-10.843-2.718-16.313,10.292-3.742,12.516-1.771S2409.354,1481.624,2406.547,1483.914Z" transform="translate(-2373.912 -1455.754)" fill="#ffb07b"/>
      <path id="Path_2393" data-name="Path 2393" d="M2365.417,1428.089a18.2,18.2,0,0,0-1.315-4.652s-.708,2.933-6.068,2.528-13.855.527-16.687,6.635a12.886,12.886,0,0,0-.484,1.2,14.134,14.134,0,0,1-.636-3.383,10.428,10.428,0,0,0,0,5.918h0c-.016.1-.028.192-.042.288-1.183,1-2.177,4.109-2.177,4.109a3.722,3.722,0,0,1,2-1.781c-.024,4.753,1.9,9.4,5.287,10.782,4.947,2.023,4.907.48,9.882,3.78,0,0,1.335-1.656.424-2.768s-4.349-2.731-2.427-4.349,2.629.2,3.338-.91-2.832-4.349,1.719-7.383S2365.821,1430.82,2365.417,1428.089Z" transform="translate(-2338.009 -1423.437)" fill="#233862"/>
    </g>
    <g id="Group_1372" data-name="Group 1372" transform="translate(2833.78 1022.05)">
      <path id="Path_2394" data-name="Path 2394" d="M4842.942,2380.614s.607,9.8,2.5,9.943c.252.019,9.619.019,9.619.019h11.972a3.946,3.946,0,0,0-3.588-3.559c-3.495-.609-9.345-3.066-11.462-7.685C4849.759,2374.471,4842.942,2380.614,4842.942,2380.614Z" transform="translate(-4785.35 -2171.269)" fill="#163560"/>
      <path id="Path_2395" data-name="Path 2395" d="M4602.215,1930.963a82.1,82.1,0,0,0,5.716,9.121c6.29,8.854,13.136,16.155,14.329,23.056a34.021,34.021,0,0,0,1.106,4.417c.5,1.581,1.113,3.243,1.824,4.961a157.78,157.78,0,0,0,10.645,20.294c6.889,11.383,13.367,20.882,13.367,20.882l11.88-.564c-.476-1.328-5.657-17.045-12.588-36.253-2.815-7.8-5.808-16.092-8.7-24.091q-.577-1.6-1.15-3.186c-.883-2.448-1.751-4.857-2.6-7.2-6.508-18.036-11.692-32.4-11.692-32.4s-26.012-10.989-28.713-3.868C4593.415,1912,4595.229,1917.752,4602.215,1930.963Z" transform="translate(-4591.981 -1802.189)" fill="#599dad"/>
      <path id="Path_2396" data-name="Path 2396" d="M4714.74,2336.9s-4.351,4.033-3.5,6.9,4.775,4.775,5.306,8.277,2.653,5.413,4.563,5.413h9.107s1.406-2.464-1.99-3.208-4.676-4.858-4.463-8.678a68.357,68.357,0,0,0-.319-8.914l-7.216-1.7Z" transform="translate(-4682.655 -2138.182)" fill="#233862"/>
      <path id="Path_2397" data-name="Path 2397" d="M4632.55,1925.984s27.372,44.4,27.372,47.932c0,7.813-20.681,52.8-20.681,52.8s-10.978-5.8-10.538-9.871c0,0,6.586-31.58,8.5-36.656s-34.594-24.2-36.509-47.307Z" transform="translate(-4596.618 -1819.528)" fill="#6bb7bf"/>
      <path id="Path_2398" data-name="Path 2398" d="M4798.184,1822.632s5.644,3.21,7.225,3.209,7.783-1.2,9.514-.315,4.858,4.438,5.445,5.6c1.056,2.088-4.251,1.166-6.759-.613a1.581,1.581,0,0,0-1.253-.259c-1.3.283-4,.774-5.3.291-1.753-.649-10.984-1.369-10.984-1.369Z" transform="translate(-4748.832 -1739.008)" fill="#e49963"/>
      <path id="Path_2399" data-name="Path 2399" d="M4611.225,1604.254s5.852,41.591,15.542,45.316c4.781,1.838,25.912,6.005,32.162,6.423,0,0,1.532-1.242,1.159-6.3,0,0-22.139-8.128-25.284-12.548-4.681-6.578,2.906-26.874-2.967-33.052S4616.07,1595.262,4611.225,1604.254Z" transform="translate(-4604.821 -1564.348)" fill="#ed7d2b"/>
      <path id="Path_2400" data-name="Path 2400" d="M4641.465,1549.218c-7.822,2.022-20.789-5.225-20.789-5.225a19.2,19.2,0,0,0,6.9-10.818c.094-.375.179-.758.256-1.153l4.017-.852,5.975,5.352a51.46,51.46,0,0,1-.883,6.043q-.194,1-.451,2.144A18.425,18.425,0,0,1,4641.465,1549.218Z" transform="translate(-4612.185 -1511.933)" fill="#e49963"/>
      <path id="Path_2401" data-name="Path 2401" d="M4582.445,1615.941c1.12,15.069-.353,37.988.917,41.957,1.1,3.425,13.6,1.389,18.585.245,1.846-.423,4.082-1.028,6.393-1.742,6.443-2,13.464-4.844,14.218-6.959a1.837,1.837,0,0,0,.069-.244,1.932,1.932,0,0,0-.014-.886c-.25-1.078-1.218-2.244-1.332-4.913-.127-2.981-.108-6.49-.22-10.264-.006-.425-.012-.889-.058-1.312v-.154c0-.081,0-.161-.006-.241-.108-4.209-.328-8.633-.583-13.022-.162-2.756-.35-5.485-.566-8.1a108.361,108.361,0,0,0-2.321-16.549,26.574,26.574,0,0,0-8.538-13.178l-2.377-2.04a13.746,13.746,0,0,1-8.627-1.149c-3.071-1.458-4.132-2.5-4.667-2.109C4586.223,1580.752,4581.122,1597.518,4582.445,1615.941Z" transform="translate(-4582.236 -1546.232)" fill="#f99746"/>
      <path id="Path_2402" data-name="Path 2402" d="M4635.743,1737.676c6.443-2,13.464-4.844,14.217-6.959a1.836,1.836,0,0,0,.07-.244c0-.3-.008-.591-.014-.886-.251-1.078-1.219-2.244-1.333-4.914-.127-2.981-.108-6.49-.22-10.264-.006-.425-.011-.889-.058-1.312l0-.154c0-.081,0-.16-.006-.241l-26.048-33.186S4604.839,1715.978,4635.743,1737.676Z" transform="translate(-4609.638 -1627.507)" fill="#ed7d2b"/>
      <path id="Path_2403" data-name="Path 2403" d="M4662.164,1536.523a51.413,51.413,0,0,1-.884,6.043c-5.834-1.886-8.48-7.156-9.364-9.391.1-.375.18-.758.256-1.153l4.017-.852Z" transform="translate(-4636.523 -1511.933)" fill="#d68d5d"/>
      <path id="Path_2404" data-name="Path 2404" d="M4661.676,1490.857s-12.723-2.124-11.279-10.027.775-13.5,8.959-12.478,9.208,4.325,9.367,7.08S4665.022,1491.2,4661.676,1490.857Z" transform="translate(-4635.25 -1462.897)" fill="#e49963"/>
      <g id="Group_1371" data-name="Group 1371" transform="translate(45.22 66.201)">
        <rect id="Rectangle_313" data-name="Rectangle 313" width="1.18" height="30.892" transform="matrix(-0.951, -0.309, 0.309, -0.951, 32.407, 29.743)" fill="#4a75cb"/>
        <rect id="Rectangle_314" data-name="Rectangle 314" width="32.417" height="1.939" transform="matrix(-1, -0.021, 0.021, -1, 32.41, 29.744)" fill="#4a75cb"/>
      </g>
      <path id="Path_2405" data-name="Path 2405" d="M4789.875,1861.49s10.413,2.746,14.319,2.457,7.153-2.145,7.644-3.115,1.524-2.689-1.135-2.372-6.289.883-6.4.372,2.167-.462,2.167-.462.689-1-.178-1.038-3.4-.723-4.34-.253-1.808,2.206-2.495,2.134-8.714-3.616-8.714-3.616Z" transform="translate(-4744.006 -1764.689)" fill="#e49963"/>
      <path id="Path_2406" data-name="Path 2406" d="M4622.914,1615.378s1.23,41.983,10.451,46.754c4.55,2.354,25.093,8.825,31.259,9.93,0,0,1.658-1.066,1.845-6.132,0,0-21.108-10.519-23.746-15.259-3.927-7.054,5.85-26.39.694-33.178S4628.721,1606.976,4622.914,1615.378Z" transform="translate(-4613.928 -1573.765)" fill="#f99746"/>
      <path id="Path_2407" data-name="Path 2407" d="M4642.457,1465.328a6.022,6.022,0,0,1,1.527-4.265s-.583-2.719.493-3.167,1.3,1.838,1.792,1.479a10.992,10.992,0,0,0,3.63-4.571c.941-2.51,9.553.53,10.558.982s4.231-1.206,4.857-2.551a18.889,18.889,0,0,1-2.6-2.509c-.806-1.076-6.453-8.335-14.34-6.274s-8.962,5.826-8.514,9.052S4639.227,1464.245,4642.457,1465.328Z" transform="translate(-4627.064 -1444.086)" fill="#2b478b"/>
    </g>
    <g id="Group_1373" data-name="Group 1373" transform="translate(2558.464 969.38)">
      <path id="Path_2408" data-name="Path 2408" d="M3614.065,1370.672l-24.649-14.852a6.378,6.378,0,0,1-3.014-5.935q.378-4.568.377-9.232a107.092,107.092,0,0,0-1.288-16.924,6.292,6.292,0,0,1,2.983-6.437l25.748-15.543a6.178,6.178,0,0,0,2.355-8.069L3604.457,1269a6.109,6.109,0,0,0-7.536-3.046l-26.031,9.451a6.134,6.134,0,0,1-7.065-2.073,111.2,111.2,0,0,0-25.56-23.99,6.332,6.332,0,0,1-2.355-7.347l5.778-15.825a6.4,6.4,0,0,0-3.14-7.85l-24.524-11.995a5.583,5.583,0,0,0-1.538-.533,6.137,6.137,0,0,0-6.531,2.889l-11.116,18.4-2.7,4.49a110.022,110.022,0,0,0-15.511-1.1,111.6,111.6,0,0,0-20.661,1.915,6.133,6.133,0,0,1-6.437-2.858l-12.5-20.755a6.357,6.357,0,0,0-8.258-2.418l-18.871,9.262-5.4,2.669a6.44,6.44,0,0,0-3.234,7.976l7.881,21.76a6.125,6.125,0,0,1-1.884,6.971,110.338,110.338,0,0,0-16.611,16.768,19.122,19.122,0,0,0-1.256,1.539,3.393,3.393,0,0,1-.44.5,6.275,6.275,0,0,1-6.783,1.57l-25.716-9.326a4.594,4.594,0,0,0-.879-.251,6.383,6.383,0,0,0-6.939,3.391l-12,24.429a6.351,6.351,0,0,0,2.418,8.227l25.717,15.48a6.138,6.138,0,0,1,2.92,6.312,112.2,112.2,0,0,0-1.288,17.018q0,4.616.377,9.137a6.469,6.469,0,0,1-3.109,6.061l-24.743,14.947a6.175,6.175,0,0,0-2.355,8.007l12.027,24.4a6.453,6.453,0,0,0,8.007,3.234l20.6-7.473a6.338,6.338,0,0,1,7.442,2.418,110.9,110.9,0,0,0,23.016,25.277,6.3,6.3,0,0,1,2.009,7.128l-8.415,23.173A6.515,6.515,0,0,0,3404.5,1465l24.335,11.963a6.226,6.226,0,0,0,8.1-2.386l.66-1.068,12.906-21.383a6.367,6.367,0,0,1,6.625-2.983h.031a110.313,110.313,0,0,0,19.468,1.727c3.548,0,7.033-.188,10.519-.5a6.246,6.246,0,0,1,6,2.983l12.685,21.069a6.462,6.462,0,0,0,8.384,2.48l24.3-11.963a6.97,6.97,0,0,0,1.79-1.319,6.435,6.435,0,0,0,1.382-6.531l-6.343-17.364a6.428,6.428,0,0,1,1.1-6.217,6.9,6.9,0,0,1,1.319-1.193,110.5,110.5,0,0,0,30.835-30.96,6.219,6.219,0,0,1,6.28-2.7,6.394,6.394,0,0,1,1.036.283l20.819,7.567a6.325,6.325,0,0,0,7.818-3.14l.283-.566,11.712-23.8A6.439,6.439,0,0,0,3614.065,1370.672Zm-194.586-46.943a73.969,73.969,0,0,1,4.961-12.843c4.082-8.2,14.161-18.337,22.389-22.388.879-.44,1.758-.848,2.637-1.256,53.82-24.178,105.724,28.668,79.63,82.519-3.423,7.033-10.99,15.291-18.369,20.41a39.2,39.2,0,0,1-5.023,2.952,68.318,68.318,0,0,1-22.263,6.594C3441.931,1404.333,3407.767,1366.182,3419.479,1323.729Z" transform="translate(-3335.953 -1205.66)" fill="#ffe295"/>
    </g>
    <g id="Group_1374" data-name="Group 1374" transform="translate(2776.965 1180.665)">
      <path id="Path_2409" data-name="Path 2409" d="M4387.117,2198.92l-5.5-3.315a1.424,1.424,0,0,1-.673-1.324q.084-1.02.084-2.061a23.83,23.83,0,0,0-.288-3.777,1.4,1.4,0,0,1,.666-1.437l5.747-3.469a1.379,1.379,0,0,0,.526-1.8l-2.705-5.508a1.364,1.364,0,0,0-1.683-.68l-5.809,2.11a1.369,1.369,0,0,1-1.576-.462,24.816,24.816,0,0,0-5.7-5.354,1.414,1.414,0,0,1-.525-1.64l1.289-3.532a1.427,1.427,0,0,0-.7-1.751l-5.474-2.677a1.234,1.234,0,0,0-.343-.119,1.371,1.371,0,0,0-1.458.645l-2.48,4.106-.6,1a24.557,24.557,0,0,0-3.462-.245,24.9,24.9,0,0,0-4.611.427,1.369,1.369,0,0,1-1.437-.637l-2.789-4.632a1.418,1.418,0,0,0-1.842-.54l-4.212,2.067-1.206.6a1.437,1.437,0,0,0-.722,1.78l1.759,4.857a1.367,1.367,0,0,1-.42,1.555,24.667,24.667,0,0,0-3.707,3.742,4.192,4.192,0,0,0-.28.343.79.79,0,0,1-.1.112,1.4,1.4,0,0,1-1.514.351l-5.739-2.081a1.091,1.091,0,0,0-.2-.056,1.425,1.425,0,0,0-1.549.757l-2.677,5.452a1.417,1.417,0,0,0,.54,1.836l5.739,3.455a1.371,1.371,0,0,1,.652,1.409,25,25,0,0,0-.288,3.8q0,1.031.084,2.039a1.444,1.444,0,0,1-.693,1.353l-5.523,3.335a1.379,1.379,0,0,0-.525,1.787l2.684,5.445a1.44,1.44,0,0,0,1.787.722l4.6-1.668a1.415,1.415,0,0,1,1.661.54,24.735,24.735,0,0,0,5.137,5.641,1.406,1.406,0,0,1,.448,1.591l-1.878,5.172a1.455,1.455,0,0,0,.722,1.794l5.432,2.67a1.389,1.389,0,0,0,1.807-.533l.147-.239,2.881-4.772a1.42,1.42,0,0,1,1.479-.666h.006a24.592,24.592,0,0,0,4.345.385c.792,0,1.569-.042,2.348-.112a1.394,1.394,0,0,1,1.338.666l2.831,4.7a1.443,1.443,0,0,0,1.872.554l5.424-2.67a1.552,1.552,0,0,0,.4-.294,1.436,1.436,0,0,0,.308-1.458l-1.416-3.875a1.435,1.435,0,0,1,.246-1.388,1.522,1.522,0,0,1,.294-.266,24.673,24.673,0,0,0,6.882-6.91,1.387,1.387,0,0,1,1.4-.6,1.433,1.433,0,0,1,.23.063l4.647,1.689a1.412,1.412,0,0,0,1.745-.7l.063-.126,2.613-5.312A1.436,1.436,0,0,0,4387.117,2198.92Zm-43.428-10.477a16.485,16.485,0,0,1,1.107-2.867,12.969,12.969,0,0,1,5-5c.2-.1.392-.189.588-.28,12.012-5.4,23.6,6.4,17.772,18.417a13.446,13.446,0,0,1-4.1,4.555,8.725,8.725,0,0,1-1.121.658,15.232,15.232,0,0,1-4.969,1.472A13.3,13.3,0,0,1,4343.689,2188.444Z" transform="translate(-4325.048 -2162.093)" fill="#f99746"/>
    </g>
    <g id="Group_1375" data-name="Group 1375" transform="translate(2926.454 1059.708)">
      <path id="Path_2410" data-name="Path 2410" d="M5094.77,1669.744l-8.244-4.968a2.132,2.132,0,0,1-1.009-1.985q.126-1.528.125-3.088a35.841,35.841,0,0,0-.43-5.661,2.1,2.1,0,0,1,1-2.153l8.612-5.2a2.067,2.067,0,0,0,.788-2.7l-4.054-8.255a2.043,2.043,0,0,0-2.521-1.019l-8.707,3.161a2.052,2.052,0,0,1-2.363-.693,37.2,37.2,0,0,0-8.55-8.024,2.118,2.118,0,0,1-.787-2.457l1.933-5.293a2.141,2.141,0,0,0-1.051-2.626l-8.2-4.012a1.9,1.9,0,0,0-.516-.178,2.052,2.052,0,0,0-2.184.967l-3.718,6.154-.9,1.5a36.773,36.773,0,0,0-5.188-.368,37.36,37.36,0,0,0-6.911.641,2.05,2.05,0,0,1-2.152-.956l-4.181-6.942a2.126,2.126,0,0,0-2.762-.809l-6.312,3.1-1.807.893a2.153,2.153,0,0,0-1.082,2.668l2.636,7.278a2.049,2.049,0,0,1-.63,2.331,36.913,36.913,0,0,0-5.557,5.609,6.59,6.59,0,0,0-.419.515,1.131,1.131,0,0,1-.147.168,2.1,2.1,0,0,1-2.269.525l-8.6-3.119a1.543,1.543,0,0,0-.294-.084,2.134,2.134,0,0,0-2.32,1.134l-4.012,8.171a2.124,2.124,0,0,0,.809,2.752l8.6,5.178a2.054,2.054,0,0,1,.977,2.111,37.442,37.442,0,0,0-.431,5.692q0,1.544.126,3.056a2.165,2.165,0,0,1-1.04,2.027l-8.276,5a2.065,2.065,0,0,0-.788,2.678l4.023,8.16a2.158,2.158,0,0,0,2.678,1.082l6.89-2.5a2.119,2.119,0,0,1,2.489.809,37.125,37.125,0,0,0,7.7,8.454,2.106,2.106,0,0,1,.672,2.384l-2.814,7.751a2.179,2.179,0,0,0,1.082,2.688l8.14,4a2.083,2.083,0,0,0,2.709-.8l.221-.357,4.317-7.152a2.129,2.129,0,0,1,2.216-1h.01a36.9,36.9,0,0,0,6.512.578c1.187,0,2.352-.063,3.519-.168a2.087,2.087,0,0,1,2.005,1l4.243,7.047a2.162,2.162,0,0,0,2.8.829l8.129-4a2.321,2.321,0,0,0,.6-.441,2.153,2.153,0,0,0,.462-2.184l-2.122-5.808a2.148,2.148,0,0,1,.368-2.079,2.261,2.261,0,0,1,.441-.4A36.962,36.962,0,0,0,5079.562,1680a2.068,2.068,0,0,1,2.446-.809l6.963,2.531a2.117,2.117,0,0,0,2.616-1.05l.094-.189,3.918-7.961A2.154,2.154,0,0,0,5094.77,1669.744Zm-65.084-15.7a24.791,24.791,0,0,1,1.659-4.3,19.439,19.439,0,0,1,7.488-7.488c.294-.147.588-.283.882-.42,18-8.087,35.363,9.589,26.635,27.6a20.158,20.158,0,0,1-6.144,6.827,13.136,13.136,0,0,1-1.68.987,22.859,22.859,0,0,1-7.446,2.206A19.938,19.938,0,0,1,5029.685,1654.042Z" transform="translate(-5001.748 -1614.551)" fill="#ebf2f9"/>
    </g>
    <g id="Group_1376" data-name="Group 1376" transform="translate(2534.982 908.954)">
      <path id="Path_2411" data-name="Path 2411" d="M3324.811,983.3l-8.732-4.05a2.134,2.134,0,0,1-1.216-1.865q-.039-1.533-.207-3.083a35.832,35.832,0,0,0-1.039-5.582,2.1,2.1,0,0,1,.76-2.248l8-6.1a2.067,2.067,0,0,0,.492-2.768l-4.92-7.77a2.043,2.043,0,0,0-2.616-.741l-8.315,4.081a2.052,2.052,0,0,1-2.424-.435,37.184,37.184,0,0,0-9.364-7.056,2.119,2.119,0,0,1-1.048-2.358l1.35-5.471a2.139,2.139,0,0,0-1.327-2.5l-8.588-3.1a1.875,1.875,0,0,0-.531-.122,2.052,2.052,0,0,0-2.067,1.2l-3.033,6.519-.736,1.59a36.787,36.787,0,0,0-5.2.194,37.345,37.345,0,0,0-6.8,1.382,2.052,2.052,0,0,1-2.243-.718l-4.9-6.451a2.126,2.126,0,0,0-2.833-.506l-5.941,3.76-1.7,1.082a2.154,2.154,0,0,0-.788,2.769l3.406,6.952a2.05,2.05,0,0,1-.376,2.386,36.894,36.894,0,0,0-4.919,6.174,6.61,6.61,0,0,0-.362.557,1.118,1.118,0,0,1-.128.183,2.1,2.1,0,0,1-2.2.767l-8.888-2.174a1.534,1.534,0,0,0-.3-.052,2.135,2.135,0,0,0-2.185,1.378l-3.108,8.556a2.124,2.124,0,0,0,1.1,2.648l9.11,4.22a2.053,2.053,0,0,1,1.2,1.994,37.635,37.635,0,0,0,.186,5.706q.167,1.535.455,3.025a2.164,2.164,0,0,1-.815,2.127l-7.689,5.862a2.065,2.065,0,0,0-.495,2.748l4.879,7.68a2.158,2.158,0,0,0,2.779.787l6.58-3.227a2.119,2.119,0,0,1,2.562.535,37.092,37.092,0,0,0,8.564,7.576,2.107,2.107,0,0,1,.926,2.3l-1.963,8.009a2.18,2.18,0,0,0,1.365,2.557l8.523,3.1a2.084,2.084,0,0,0,2.608-1.086l.181-.379,3.52-7.576a2.13,2.13,0,0,1,2.1-1.231h.01a36.876,36.876,0,0,0,6.536-.128c1.179-.128,2.331-.316,3.479-.546a2.09,2.09,0,0,1,2.1.776l4.978,6.549a2.161,2.161,0,0,0,2.877.523l7.651-4.854a2.329,2.329,0,0,0,.548-.5,2.153,2.153,0,0,0,.224-2.222l-2.735-5.545a2.149,2.149,0,0,1,.142-2.107,2.288,2.288,0,0,1,.4-.445,36.968,36.968,0,0,0,9.138-11.407,2.066,2.066,0,0,1,2.345-1.068l7.2,1.766a2.117,2.117,0,0,0,2.487-1.326l.073-.2,3.036-8.337A2.154,2.154,0,0,0,3324.811,983.3Zm-66.4-8.595a24.739,24.739,0,0,1,1.187-4.449,19.441,19.441,0,0,1,6.638-8.252c.276-.178.554-.345.832-.513,17.025-9.98,36.189,5.722,29.454,24.569a20.147,20.147,0,0,1-5.373,7.449,13.134,13.134,0,0,1-1.564,1.163,22.848,22.848,0,0,1-7.165,3A19.939,19.939,0,0,1,3258.413,974.71Z" transform="translate(-3229.656 -932.129)" fill="#ebf2f9"/>
    </g>
    <g id="Group_1380" data-name="Group 1380" transform="translate(2610.862 1052.948)">
      <g id="Group_1377" data-name="Group 1377" transform="translate(0 0)">
        <path id="Path_2412" data-name="Path 2412" d="M3843.248,2219.773a1.806,1.806,0,0,1,.321,1.93.018.018,0,0,1-.005.01c-.465,1.286-2,2.722-3.789,4.156-.229.184-.431.352-.608.507-.047.04-.093.081-.136.122s-.071.064-.105.095c-1.666,1.535-1.039,1.887-4.031,5-3.411,3.55-5.76,3.614-6.429,3.29-.565-.275.583-2.158,1.856-4.274.062-.1.122-.205.186-.309.17-.281.338-.567.506-.849,1.492-2.547,1.108-3.742.755-7.532-.287-3.079-4.792-17.207-4.792-17.207l6.538-1.126s1.969,11.249,4.139,12.981c1.16.924,2.459.935,3.573,1.62.079.048.156.1.232.147A8.63,8.63,0,0,1,3843.248,2219.773Z" transform="translate(-3770.903 -2066.705)" fill="#e49963"/>
        <path id="Path_2413" data-name="Path 2413" d="M3847.977,2271.267a1.8,1.8,0,0,1,.321,1.93.018.018,0,0,1,0,.01,13.9,13.9,0,0,1-3.8,4.143c-.225.188-.425.359-.6.52-.046.041-.093.081-.136.122s-.071.065-.105.1c-1.666,1.535-1.039,1.887-4.031,5-3.411,3.55-5.76,3.614-6.429,3.29-.565-.276.583-2.159,1.856-4.275a14.538,14.538,0,0,0,6.082-4.481c2.054-2.621,3.425-5.99,4.823-7.941q.119.071.232.146A8.609,8.609,0,0,1,3847.977,2271.267Z" transform="translate(-3775.632 -2118.199)" fill="#c65447"/>
        <path id="Path_2414" data-name="Path 2414" d="M3592.77,2208.672c-.4,2.018-3.281,1.681-6.495.9s-2.45.148-7.024-.358-5.96-2.212-6.1-2.893c-.125-.6,2.135-.816,4.56-1.1.3-.034.611-.072.917-.11,2.737-.343,4.742-2.109,7.228-3.56,2.355-1.374,5.869-6.972,5.869-6.972l6.274.5s-3.292,5-4.565,7.174a7.589,7.589,0,0,0-.616,4.275A8.06,8.06,0,0,1,3592.77,2208.672Z" transform="translate(-3573.146 -2059.687)" fill="#e49963"/>
        <path id="Path_2415" data-name="Path 2415" d="M3586.275,2247.1c-3.214-.785-2.45.148-7.024-.358s-5.96-2.212-6.1-2.892c-.125-.6,2.135-.816,4.56-1.1l.022.047a12.9,12.9,0,0,0,6.551,2.036c3.1.076,6.391-.814,8.533-.779a8.063,8.063,0,0,1-.048,2.146C3592.366,2248.221,3589.489,2247.885,3586.275,2247.1Z" transform="translate(-3573.146 -2097.219)" fill="#c65447"/>
        <path id="Path_2416" data-name="Path 2416" d="M3688.035,1825.956s-1.494-3.662-3.138-3.811-6.875-.971-7.249-.224a5.172,5.172,0,0,0,1.12,4.409c1.121.971,8.071,2.541,8.071,2.541Z" transform="translate(-3654.453 -1769.11)" fill="#e49963"/>
        <path id="Path_2417" data-name="Path 2417" d="M3770.8,2041.322l13.52,36.385a12.387,12.387,0,0,0,4.069-.372,17.554,17.554,0,0,0,3.932-1.915s-3.354-34.936-9.5-42.2S3770.8,2041.322,3770.8,2041.322Z" transform="translate(-3727.139 -1932.451)" fill="#aa413e"/>
        <path id="Path_2418" data-name="Path 2418" d="M3723.005,1972.309s-38.849-13.136-47.513-10.341-34.679,54.552-34.679,54.552a5.026,5.026,0,0,0,2.19,1.382,20.658,20.658,0,0,0,5.1.523s23.477-20.123,26.272-25.992,3.912-11.459,6.708-10.9,36.054,13.695,43.6,5.87,5.573-17.994,5.573-17.994Z" transform="translate(-3625.865 -1878.157)" fill="#c65447"/>
        <path id="Path_2419" data-name="Path 2419" d="M3892.429,1617a22.089,22.089,0,0,1-1.654-7.612c.052.4.751,5.518,2.719,8.413,8.079,5.3,23.565,23.016,23.259,26.373,0,0,5.455-9.251,5.548-9.307,0,0,10.062-12.8-1.864-20.124-6.061-3.725-6.03-8.506-5.776-12.658s-1.653-22.031-13.794-17.353a7.919,7.919,0,0,0-2.821-.736,2.387,2.387,0,0,1,1.076.511,9.421,9.421,0,0,0-5.1.975C3889.57,1588.006,3885.587,1610.7,3892.429,1617Z" transform="translate(-3819.03 -1583.953)" fill="#b5453c"/>
        <path id="Path_2420" data-name="Path 2420" d="M3912.389,1696.164c-.04.018,3.9,2.065,6.866,1.254,2.789-.76,4.611-4.376,4.572-4.384-1.181-.235-1.521-1.858-1.5-8.832l-.534.105-8.977,1.778s.2,2.825.21,5.486C3913.036,1693.806,3912.9,1695.925,3912.389,1696.164Z" transform="translate(-3837.447 -1662.056)" fill="#e49963"/>
        <path id="Path_2421" data-name="Path 2421" d="M3914.341,1686.456s.2,2.825.21,5.486c5.023-.141,7.679-4.724,8.767-7.264Z" transform="translate(-3838.968 -1662.427)" fill="#d68d5d"/>
        <path id="Path_2422" data-name="Path 2422" d="M3904.306,1615.2a26.41,26.41,0,0,0,3.264-7.716c.451-2.539-.842-11.952-10.3-10.6a12.851,12.851,0,0,0-5.329,2.015c-2.054,1.387-5.017,4.381-1.7,12.594l.86,2.775Z" transform="translate(-3819.029 -1593.929)" fill="#b5453c"/>
        <path id="Path_2423" data-name="Path 2423" d="M3892.786,1633.4s11.885.2,11.893-7.208,1.547-12.364-6.041-12.8-9.065,2.385-9.669,4.855S3889.694,1633.162,3892.786,1633.4Z" transform="translate(-3819.091 -1606.855)" fill="#e49963"/>
        <path id="Path_2424" data-name="Path 2424" d="M3908.736,1607.426s3.255,8.686,8.248,9.97,7.16-.054,7.16-.054a14.142,14.142,0,0,1-4.625-8.355S3911.191,1603.292,3908.736,1607.426Z" transform="translate(-3834.601 -1601.068)" fill="#b5453c"/>
        <path id="Path_2425" data-name="Path 2425" d="M3891.165,1610.929s-2.43,1.939-3.023,3.825-.859,5.766-1.99,5.634c0,0-2.452-5.9.3-9.244C3889.377,1607.6,3891.165,1610.929,3891.165,1610.929Z" transform="translate(-3816.223 -1603.867)" fill="#b5453c"/>
        <path id="Path_2426" data-name="Path 2426" d="M3783.979,1759.266c1.172-4.915-2.815-14.454-6.978-22.351-3.777-7.157-7.7-12.963-8.05-12.754-9.961,5.912-10.861,1-10.861,1s-9.049,1.2-11.611,5.613c-3.544,6.1-7.4,24.4-11.2,24.13-1.74-.125-19.256-6.708-19.256-6.708s-2.918,2.733-2.359,6.087a182.853,182.853,0,0,0,15.962,9.486c3.868,1.955,7.364,3.323,9.007,2.935,3.332-.784,8.536-8.508,11.348-13.055l.019-.03c3.589,20.315-1.291,24.942,1.179,27.084,2.608,2.262,6.335-1.077,14.534,2.476,5.378,2.333,12.84,5.706,17.864,6.292,2.635.31,4.6-.149,5.241-1.928C3790.688,1782.37,3781.743,1768.637,3783.979,1759.266Z" transform="translate(-3682.571 -1693.183)" fill="#699dee"/>
        <path id="Path_2427" data-name="Path 2427" d="M3902.953,1681.7s-.221.941-2.561.8c0,0-1.964-.121-1.9-1.155A6.32,6.32,0,0,1,3902.953,1681.7Z" transform="translate(-3826.615 -1659.635)" fill="#fff"/>
        <path id="Path_2428" data-name="Path 2428" d="M3970.991,1864.864c-.641,1.78-2.607,2.238-5.242,1.928-3.477-1.514-18.5-7.334-18.33-11.277.25-5.838,2.888-6.024,1.025-13.23-1.5-5.786,12.382-16.544,14.6-18.882,4.163,7.9,4.278,8.27,3.106,13.186C3963.91,1845.96,3972.854,1859.693,3970.991,1864.864Z" transform="translate(-3864.738 -1770.507)" fill="#4a75cb"/>
        <path id="Path_2429" data-name="Path 2429" d="M3806.529,1854.11c-2.812,4.547-8.016,12.27-11.348,13.054-1.643.388-5.138-.98-9.007-2.935a23.394,23.394,0,0,0,8.231.451c2.888-.28,3.727-3.82,8.292-9.13C3805.657,1852.107,3806.384,1852.974,3806.529,1854.11Z" transform="translate(-3739.114 -1793.648)" fill="#4a75cb"/>
        <path id="Path_2430" data-name="Path 2430" d="M3911.883,1902.735s-2.516-1.956-4.891-1.49-3.541,2.1-3.447,2.841a4.235,4.235,0,0,0,3.167,3.028c1.817.187,6.988-1.118,6.988-1.118Z" transform="translate(-3830.553 -1831.096)" fill="#e49963"/>
        <path id="Path_2431" data-name="Path 2431" d="M3943.018,1724.18s9.688.6,13.041,5.274c4.72,6.584,12.919,33.463,10.683,39.612l-29.472-.124s-.715-3.339.279-4.953,17.143-4.224,17.888-4.969-9.317-14.534-9.317-16.77S3943.018,1724.18,3943.018,1724.18Z" transform="translate(-3856.638 -1693.203)" fill="#699dee"/>
      </g>
      <g id="Group_1379" data-name="Group 1379" transform="translate(36.69 62.368)">
        <g id="Group_1378" data-name="Group 1378">
          <path id="Path_2432" data-name="Path 2432" d="M3774.856,1866.276H3739.23l6.433,22.431h35.68Z" transform="translate(-3739.23 -1866.276)" fill="#1c468a"/>
          <rect id="Rectangle_315" data-name="Rectangle 315" width="46.646" height="0.874" transform="translate(6.554 21.557)" fill="#163560"/>
        </g>
        <path id="Path_2433" data-name="Path 2433" d="M3822.286,1910.361a2.046,2.046,0,0,0-1.837-1.427,1.039,1.039,0,0,0-1.018,1.427,2.045,2.045,0,0,0,1.837,1.428A1.039,1.039,0,0,0,3822.286,1910.361Z" transform="translate(-3801.668 -1899.51)" fill="#163560"/>
      </g>
    </g>
    <g id="Group_1385" data-name="Group 1385" transform="translate(2410.115 924.951)">
      <g id="Group_1383" data-name="Group 1383" transform="translate(77.314 250.225)">
        <path id="Rectangle_316" data-name="Rectangle 316" d="M8.322,0H55.016a8.322,8.322,0,0,1,8.322,8.322v0a8.321,8.321,0,0,1-8.321,8.321H8.321A8.321,8.321,0,0,1,0,8.322v0A8.322,8.322,0,0,1,8.322,0Z" transform="translate(0.663)" fill="#f99746"/>
        <path id="Path_2434" data-name="Path 2434" d="M3080.733,2188.1v1.73a3.579,3.579,0,0,1-3.569,3.569h-56.2a3.579,3.579,0,0,1-3.568-3.569v-1.873h62.315A3.732,3.732,0,0,1,3080.733,2188.1Z" transform="translate(-3016.732 -2176.754)" fill="#ed7d2b"/>
        <g id="Group_1381" data-name="Group 1381" transform="translate(0 16.557)">
          <path id="Path_2435" data-name="Path 2435" d="M3028.587,2212.285l-2.533,9.6,0,0-10.547,39.939h-1.109l6.1-33.135c.006-.033.015-.065.021-.1l3.015-16.388Z" transform="translate(-3014.394 -2212.199)" fill="#e8c6a7"/>
        </g>
        <path id="Path_2436" data-name="Path 2436" d="M3050.158,2212.285l-2.533,9.6,0,0c-.146.071-4.758,2.456-5.54,6.7l3.015-16.388Z" transform="translate(-3035.965 -2195.642)" fill="#c69d7b"/>
        <g id="Group_1382" data-name="Group 1382" transform="translate(49.808 16.557)">
          <path id="Path_2437" data-name="Path 2437" d="M3254.054,2261.823h-1.109l-8.594-32.534v-.006l-1.954-7.4,0,0-2.534-9.6,5.062-.086,1.725,9.37,1.29,7.018c.006.036.015.068.021.1Z" transform="translate(-3239.861 -2212.199)" fill="#e8c6a7"/>
        </g>
        <path id="Path_2438" data-name="Path 2438" d="M3226.449,2269.338c-.006,0-.012,0-.018-.012C3226.408,2269.284,3226.413,2269.293,3226.449,2269.338Z" transform="translate(-3179.579 -2240.128)" fill="#e8c6a7"/>
        <path id="Path_2439" data-name="Path 2439" d="M3246.647,2221.569a13.967,13.967,0,0,0-2.3,7.713l-1.954-7.4,0,0-2.534-9.6,5.062-.086Z" transform="translate(-3190.053 -2195.642)" fill="#c69d7b"/>
      </g>
      <g id="man">
        <path id="Path_2440" data-name="Path 2440" d="M2977.7,1286.679c1.306-1.362,2.193-.85,2.193-.85s15.424,11.843,16.9,12.7,21.532,1.443,21.532,1.443,8.035-.091,9.985,4.034c1.694,3.585.5,6.671-1.25,8.938a8.3,8.3,0,0,1-8.9,2.87c-7.354-2.146-21.981-6.527-24.718-8.2-6.091-3.726-17.092-18.6-17.092-18.6A5.938,5.938,0,0,1,2977.7,1286.679Z" transform="translate(-2907.436 -1223.617)" fill="#599dad"/>
        <g id="Group_1384" data-name="Group 1384">
          <path id="Path_2441" data-name="Path 2441" d="M2751.306,1056.1l-7.7-4.64a1.993,1.993,0,0,1-.941-1.854q.118-1.427.117-2.884a33.462,33.462,0,0,0-.4-5.288,1.966,1.966,0,0,1,.932-2.011l8.045-4.856a1.931,1.931,0,0,0,.736-2.521l-3.787-7.711a1.909,1.909,0,0,0-2.355-.951l-8.133,2.953a1.917,1.917,0,0,1-2.208-.648,34.732,34.732,0,0,0-7.985-7.495,1.979,1.979,0,0,1-.736-2.3l1.805-4.944a2,2,0,0,0-.981-2.453l-7.662-3.748a1.75,1.75,0,0,0-.481-.167,1.918,1.918,0,0,0-2.041.9l-3.473,5.749-.844,1.4a34.384,34.384,0,0,0-4.846-.343,34.861,34.861,0,0,0-6.455.6,1.916,1.916,0,0,1-2.011-.893l-3.9-6.485a1.985,1.985,0,0,0-2.58-.755l-5.9,2.894-1.687.834a2.012,2.012,0,0,0-1.011,2.492l2.463,6.8a1.915,1.915,0,0,1-.589,2.178,34.465,34.465,0,0,0-5.189,5.239,6.024,6.024,0,0,0-.393.48,1.04,1.04,0,0,1-.137.157,1.96,1.96,0,0,1-2.119.491l-8.034-2.913a1.441,1.441,0,0,0-.275-.079,1.994,1.994,0,0,0-2.168,1.059l-3.748,7.633a1.984,1.984,0,0,0,.756,2.57l8.034,4.837a1.918,1.918,0,0,1,.913,1.972,35.014,35.014,0,0,0-.4,5.317q0,1.442.117,2.855a2.022,2.022,0,0,1-.971,1.893l-7.731,4.67a1.929,1.929,0,0,0-.736,2.5l3.757,7.623a2.016,2.016,0,0,0,2.5,1.01l6.435-2.335a1.979,1.979,0,0,1,2.325.756,34.642,34.642,0,0,0,7.191,7.9,1.968,1.968,0,0,1,.627,2.227l-2.629,7.24a2.036,2.036,0,0,0,1.011,2.511l7.6,3.738a1.946,1.946,0,0,0,2.531-.745l.206-.334,4.032-6.681a1.99,1.99,0,0,1,2.07-.932h.009a34.475,34.475,0,0,0,6.083.54c1.108,0,2.2-.059,3.287-.157a1.952,1.952,0,0,1,1.874.932l3.963,6.583a2.019,2.019,0,0,0,2.619.775l7.593-3.738a2.186,2.186,0,0,0,.559-.412,2.01,2.01,0,0,0,.431-2.041l-1.982-5.425a2.01,2.01,0,0,1,.344-1.943,2.144,2.144,0,0,1,.412-.373,34.537,34.537,0,0,0,9.634-9.673,1.942,1.942,0,0,1,1.962-.844,1.967,1.967,0,0,1,.323.088l6.5,2.365a1.977,1.977,0,0,0,2.443-.981l.088-.176,3.659-7.436A2.011,2.011,0,0,0,2751.306,1056.1Zm-60.795-14.666a23.093,23.093,0,0,1,1.55-4.013,18.154,18.154,0,0,1,7-6.995c.274-.137.549-.265.824-.392,16.814-7.554,33.031,8.957,24.879,25.781a18.831,18.831,0,0,1-5.739,6.377,12.214,12.214,0,0,1-1.57.922,21.331,21.331,0,0,1-6.956,2.06A18.624,18.624,0,0,1,2690.511,1041.433Z" transform="translate(-2664.415 -1004.544)" fill="#f99746"/>
        </g>
        <path id="Path_2442" data-name="Path 2442" d="M2883.045,1270.389s.023-5.694-.877-7.351-2.96-3.727-4.134-3.065-1.533,6.212-1.173,7.206a44.081,44.081,0,0,0,3.025,4.722Z" transform="translate(-2829.826 -1203.448)" fill="#ffb27d"/>
        <path id="Path_2443" data-name="Path 2443" d="M3157.668,2102.3c1.27-1.086.509-7.174.509-7.174s-6.538-5.23-7.437-1.226-6.211,5.8-9.235,6.293a3.269,3.269,0,0,0-2.911,2.107Z" transform="translate(-3033.844 -1852.077)" fill="#2c3a64"/>
        <path id="Path_2444" data-name="Path 2444" d="M3136.723,1722.926c-6.053.939-8.266-.5-8.266-.5.079-5.961-1.759-19.4-4.28-34.838-3.322-20.351-7.828-44.164-10.676-58.845-1.638-8.444-2.729-13.866-2.729-13.866l4.947-.1,24.672-.488s-1.846,27.306-1.342,40.791a25.194,25.194,0,0,0,.823,6.739C3144.077,1672.037,3136.723,1722.926,3136.723,1722.926Z" transform="translate(-3012.167 -1479.592)" fill="#35488b"/>
        <path id="Path_2445" data-name="Path 2445" d="M3148.672,1655.081c-3.352,6.272-11.748,22.426-14.873,32.506-3.322-20.351-7.829-44.164-10.676-58.845.141-5.549.8-10.4,2.218-13.963l24.672-.488S3148.167,1641.6,3148.672,1655.081Z" transform="translate(-3021.79 -1479.592)" fill="#2c3a64"/>
        <path id="Path_2446" data-name="Path 2446" d="M3063.6,2102.3c1.27-1.086.509-7.174.509-7.174s-6.538-5.23-7.437-1.226-6.211,5.8-9.234,6.293a3.27,3.27,0,0,0-2.911,2.107Z" transform="translate(-2960.558 -1852.077)" fill="#2c3a64"/>
        <path id="Path_2447" data-name="Path 2447" d="M3062.221,1614.25s9.692,89.678,7.772,107.764c0,0,2.072,1.623,8.184,1.249,0,0,11.072-51.662,8.727-60.023-1.63-5.813,4.864-46.863,4.864-46.863Z" transform="translate(-2974.342 -1479.56)" fill="#35488b"/>
        <path id="Path_2448" data-name="Path 2448" d="M3105.206,1269.761s-12.324,6.155-18.438,3.348a18.7,18.7,0,0,1,5.444-4.705c-.061-1.1-.1-2.086-.114-2.962-.054-2.916.092-4.557.092-4.557l5.314-3.866,3.606-2.624a23.305,23.305,0,0,0-.146,4.5A17.789,17.789,0,0,0,3105.206,1269.761Z" transform="translate(-2993.466 -1199.201)" fill="#ffb27d"/>
        <path id="Path_2449" data-name="Path 2449" d="M3119.72,1268.148s-2.875,5.73-8.866,6.547c-.054-2.916.092-4.557.092-4.557l5.314-3.866A11.971,11.971,0,0,1,3119.72,1268.148Z" transform="translate(-3012.222 -1208.453)" fill="#ed975d"/>
        <path id="Path_2450" data-name="Path 2450" d="M3100.736,1218.041s11.031,3.928,13.372-2.979,5.342-11.052-1.6-13.853-9.213-.631-10.556,1.485S3097.927,1216.841,3100.736,1218.041Z" transform="translate(-3003.387 -1156.727)" fill="#ffb27d"/>
        <path id="Path_2451" data-name="Path 2451" d="M3091.741,1376.033c-1.727,3.6-39.957,3.438-41.846.9-.769-1.031-1.649-11.351-2.154-23.349-.278-6.647-.443-13.809-.411-20.192.057-10.414.64-18.75,2.108-19.387,8.193-3.554,13.258-5.816,23.961-5.489a8.875,8.875,0,0,1,7.726,4.979,64.6,64.6,0,0,1,6.5,25.888C3088.057,1356.546,3093.916,1371.5,3091.741,1376.033Z" transform="translate(-2962.738 -1241.342)" fill="#6bb7bf"/>
        <path id="Path_2452" data-name="Path 2452" d="M3059.7,1389.174s-1.244,17.946-11.958,27.26c-.278-6.647-.443-13.809-.411-20.192C3050.532,1391.962,3054.755,1388.88,3059.7,1389.174Z" transform="translate(-2962.738 -1304.191)" fill="#599dad"/>
        <path id="Path_2453" data-name="Path 2453" d="M2935.081,1300.307s-11.758.073-15.447,3.5c-2.644,2.456-19.635,15.848-20.714,15.668s-12.018-22.017-12.018-22.017-5.394.457-6.293,2.791c0,0,5.086,27.264,16.062,33.191,0,0,27.743-5.262,35.974-14.438C2936.885,1314.276,2935.081,1300.307,2935.081,1300.307Z" transform="translate(-2832.849 -1232.75)" fill="#6bb7bf"/>
        <path id="Path_2454" data-name="Path 2454" d="M3107.257,1184.24s.652,6.589,2.631,8.389,1.457,4.275,1.673,4.635,2.265-.7,2.625-.092c.829,1.394-.467,2.411-1.285,2.748s2.089,5.994,4.224,6.2c3.692.36,9.395-9.849,9.876-12.841.63-3.913-1.586-10.016-7.939-9.715C3109.078,1184.037,3107.056,1181.872,3107.257,1184.24Z" transform="translate(-3009.419 -1143.663)" fill="#2b478b"/>
      </g>
    </g>
    <g id="Group_1386" data-name="Group 1386" transform="translate(2794.148 916.208)">
      <rect id="Rectangle_317" data-name="Rectangle 317" width="11.786" height="73.422" transform="translate(0 20.466)" fill="#afcdfb"/>
      <rect id="Rectangle_318" data-name="Rectangle 318" width="11.786" height="93.887" transform="translate(19.841 0)" fill="#afcdfb"/>
      <rect id="Rectangle_319" data-name="Rectangle 319" width="11.786" height="55.666" transform="translate(40.91 38.221)" fill="#afcdfb"/>
      <path id="Path_2457" data-name="Path 2457" d="M4598.447,1088.378h-9.982a1.036,1.036,0,0,0-1.032,1.033h0a1.036,1.036,0,0,0,1.032,1.033h9.982a1.035,1.035,0,0,0,1.033-1.033h0A1.035,1.035,0,0,0,4598.447,1088.378Z" transform="translate(-4546.653 -1061.115)" fill="#afcdfb"/>
      <path id="Path_2458" data-name="Path 2458" d="M4588.465,1107.453h2.273a1.033,1.033,0,1,0,0-2.065h-2.273a1.033,1.033,0,0,0,0,2.065Z" transform="translate(-4546.653 -1074.368)" fill="#afcdfb"/>
    </g>
  </g>
</svg>
