<svg xmlns="http://www.w3.org/2000/svg" xmlns:xlink="http://www.w3.org/1999/xlink" width="494.057" height="444.798" viewBox="0 0 494.057 444.798">
  <defs>
    <radialGradient id="radial-gradient" cx="-6.324" cy="0.107" r="7.399" gradientTransform="translate(0.099) scale(0.803 1)" gradientUnits="objectBoundingBox">
      <stop offset="0" stop-color="#01c8ef"/>
      <stop offset="0.089" stop-color="#02bee8"/>
      <stop offset="0.239" stop-color="#07a4d7"/>
      <stop offset="0.429" stop-color="#107bba"/>
      <stop offset="0.446" stop-color="#1177b8"/>
      <stop offset="1" stop-color="#112564"/>
    </radialGradient>
  </defs>
  <g id="Group_1521" data-name="Group 1521" transform="translate(-204.587 -37.8)">
    <path id="Path_2539" data-name="Path 2539" d="M462.477,315.944l-.73-1.247,21.542-12.628a8.456,8.456,0,0,1,8.615.039l17.8,10.635-.74,1.239-17.8-10.637a7.007,7.007,0,0,0-7.144-.03Z" transform="translate(113.894 116.528)" fill="#d4ecff"/>
    <path id="Path_2540" data-name="Path 2540" d="M506.9,324.222l-.733-1.244,55.884-33.023a1.742,1.742,0,0,0,.012-2.993l-18.554-11.393.755-1.229,18.549,11.39a3.184,3.184,0,0,1-.028,5.467Z" transform="translate(133.568 104.761)" fill="#d4ecff"/>
    <path id="Path_2541" data-name="Path 2541" d="M464.719,329.852,464,328.6l54.465-31.36a1.8,1.8,0,0,0,0-3.118l-28.825-16.556a12.775,12.775,0,0,1-6.4-11.054V171.668a11.845,11.845,0,0,1,5.189-9.8l4.329-2.945.811,1.193-4.329,2.945a10.406,10.406,0,0,0-4.557,8.61v94.845a11.329,11.329,0,0,0,5.676,9.8l28.825,16.554a3.243,3.243,0,0,1,0,5.621Z" transform="translate(114.892 53.643)" fill="#d4ecff"/>
    <path id="Path_2542" data-name="Path 2542" d="M462.444,303.231a1.443,1.443,0,0,1-.732-2.687l21.542-12.628a9.167,9.167,0,0,1,9.349.039l17.8,10.637a1.443,1.443,0,1,1-1.479,2.477l-17.8-10.637a6.3,6.3,0,0,0-6.409-.029l-21.542,12.628A1.426,1.426,0,0,1,462.444,303.231Z" transform="translate(113.563 110.215)" fill="#ff2c9c"/>
    <path id="Path_2543" data-name="Path 2543" d="M478.485,369.771,358.616,300.565c-4.169-2.405-3.645-6.608,1.167-9.386h0c4.811-2.779,12.09-3.081,16.257-.674l119.869,69.207c4.169,2.405,3.645,6.608-1.167,9.386h0C489.932,371.876,482.652,372.178,478.485,369.771Z" transform="translate(66.971 111.201)" fill="#d4ecff"/>
    <g id="Group_1476" data-name="Group 1476" transform="translate(601.735 95.504)">
      <g id="Group_1470" data-name="Group 1470" transform="translate(6.317 99.455)">
        <g id="Group_1463" data-name="Group 1463" transform="translate(16.53 97.721)">
          <path id="Path_2544" data-name="Path 2544" d="M531.19,219.28a22.446,22.446,0,0,0-2.861-1.368h.029l-5.5-2.441.416.962a35.533,35.533,0,0,0-12.907-.138l.255-1.066-6.474,2.868.039,0a21.765,21.765,0,0,0-2.421,1.182c-8.126,4.691-8.126,12.3,0,16.99s21.3,4.692,29.429,0S539.316,223.972,531.19,219.28Z" transform="translate(-495.666 -214.099)" fill="#d4ecff"/>
          <path id="Path_2545" data-name="Path 2545" d="M519.977,224.056a15.24,15.24,0,0,1-13.791,0c-3.808-2.2-3.808-5.763,0-7.962a15.24,15.24,0,0,1,13.791,0C523.784,218.293,523.784,221.857,519.977,224.056Z" transform="translate(-492.272 -214.445)" fill="#5793ce"/>
        </g>
        <g id="Group_1464" data-name="Group 1464" transform="translate(33.895 57.835)">
          <path id="Path_2546" data-name="Path 2546" d="M511.106,233.279h0a3.316,3.316,0,0,1-3.316-3.316v-41.9h6.63v41.9A3.315,3.315,0,0,1,511.106,233.279Z" transform="translate(-507.661 -186.245)" fill="#5793ce"/>
          <path id="Path_2547" data-name="Path 2547" d="M513.477,190.137a5.285,5.285,0,0,1-4.785,0c-1.322-.763-1.322-2,0-2.763a5.3,5.3,0,0,1,4.786,0C514.8,188.137,514.8,189.373,513.477,190.137Z" transform="translate(-507.701 -186.802)" fill="#5793ce"/>
        </g>
        <path id="Path_2548" data-name="Path 2548" d="M510.913,201.972h0a2.688,2.688,0,0,1-2.688-2.687V159.893H513.6v39.392A2.687,2.687,0,0,1,510.913,201.972Z" transform="translate(-473.574 -140.885)" fill="#d4ecff"/>
        <g id="Group_1466" data-name="Group 1466" transform="translate(55.347 34.172)">
          <path id="Path_2549" data-name="Path 2549" d="M536.867,175.4v-1.542l2.179-.315,2.44-1.827a1.644,1.644,0,0,1,1.607-.059l1.8,1.04,1.785-.258v1.563h-.007a.594.594,0,0,1-.41.47l-5.682,2.531a1.785,1.785,0,0,1-1.489-.055l-1.892-1.092a.552.552,0,0,1-.322-.459Z" transform="translate(-516.236 -169.925)" fill="#396caa"/>
          <path id="Path_2550" data-name="Path 2550" d="M537.1,173.924l4.383-3.281a1.64,1.64,0,0,1,1.607-.059l3.27,1.889c.457.263.41.7-.1.928l-5.682,2.531a1.785,1.785,0,0,1-1.489-.056l-1.892-1.092C536.8,174.552,536.755,174.184,537.1,173.924Z" transform="translate(-516.236 -170.402)" fill="#5793ce"/>
          <g id="Group_1465" data-name="Group 1465" transform="translate(0 2.503)">
            <path id="Path_2551" data-name="Path 2551" d="M536.039,180.6a3.566,3.566,0,0,0,1.755-.433l6.812-3.933a.787.787,0,0,0-.788-1.362l-6.81,3.933a2.256,2.256,0,0,1-1.938,0l-11.321-6.558a.786.786,0,0,0-.786,1.361l11.322,6.558A3.544,3.544,0,0,0,536.039,180.6Z" transform="translate(-522.568 -172.137)" fill="#d4ecff"/>
          </g>
        </g>
        <g id="Group_1469" data-name="Group 1469">
          <path id="Path_2552" data-name="Path 2552" d="M486.642,170.813l10.938-6.358-6.128-2.768-5.243,3.718Z" transform="translate(-483.325 -140.09)" fill="url(#radial-gradient)"/>
          <path id="Path_2553" data-name="Path 2553" d="M556.525,168a14.561,14.561,0,0,1-1.84-1.146l-23.308-17.082c-4.209-3.085-8.542-3.88-11.892-2.18-.087.043-.162.105-.247.152l-.025-.007L487.02,166.419l2.893.962,11.275,5.112,15.336,10.881,12.1,6.422.55.117c2.822-2.376,5.982-4.417,7.715-7.883,3-5.245,11.341-6.745,16.248-11,.495.316.99.609,1.483.864C555.64,170.9,555.912,169.485,556.525,168Z" transform="translate(-482.965 -146.719)" fill="#5793ce"/>
          <path id="Path_2554" data-name="Path 2554" d="M553.811,156.132a2.146,2.146,0,0,0-1.32.46l-.006-.006-31.5,18.235,1.151,4.711,1.18-.564c-1.8,2.814-4.57,4.665-7.076,6.776l3.561.755,30.852-17.952c.143-.062.289-.114.427-.185a7.711,7.711,0,0,0,1.189-.755l.053-.032h-.02c2.349-1.814,3.675-4.968,3.675-8.908V158.3A2.165,2.165,0,0,0,553.811,156.132Z" transform="translate(-470.025 -142.551)" fill="#396caa"/>
          <g id="Group_1467" data-name="Group 1467" transform="translate(4.055 0.007)">
            <path id="Path_2555" data-name="Path 2555" d="M512.379,146.724a13.18,13.18,0,0,1,6.186,2A13.18,13.18,0,0,0,512.379,146.724Z" transform="translate(-475.789 -146.724)" fill="#eaeaea"/>
            <path id="Path_2556" data-name="Path 2556" d="M537.957,178.384v-.369a2.165,2.165,0,0,0-4.33,0v.369c0,2.894-.921,5.021-2.525,5.834-1.814.918-4.57.242-7.373-1.811l-23.31-17.082c-3.587-2.628-7.262-3.575-10.343-2.753L509.327,151.4,487.02,164.345l2.893.962,11.275,5.112L516.524,181.3l12.1,6.422.55.117c2.822-2.376,5.982-4.417,7.715-7.883a8.974,8.974,0,0,1,1.058-1.452C537.951,178.463,537.957,178.426,537.957,178.384Z" transform="translate(-487.02 -144.652)" fill="#5793ce"/>
          </g>
          <g id="Group_1468" data-name="Group 1468" transform="translate(0 18.323)">
            <path id="Path_2557" data-name="Path 2557" d="M529.862,186.1a14.041,14.041,0,0,1-8.113-3.056l-23.31-17.081c-2.8-2.053-5.557-2.731-7.375-1.812-1.6.814-2.524,2.939-2.524,5.834a2.165,2.165,0,0,1-4.33,0c0-4.584,1.785-8.118,4.9-9.695,3.347-1.7,7.683-.9,11.891,2.18l23.31,17.082c2.8,2.055,5.561,2.729,7.373,1.811,1.6-.812,2.525-2.939,2.525-5.834v-.369a2.165,2.165,0,0,1,4.33,0v.369c0,4.584-1.785,8.118-4.9,9.7A8.284,8.284,0,0,1,529.862,186.1Z" transform="translate(-484.21 -159.418)" fill="#d4ecff"/>
          </g>
        </g>
      </g>
      <g id="Group_1475" data-name="Group 1475" transform="translate(0)">
        <g id="Group_1472" data-name="Group 1472" transform="translate(3.306)">
          <path id="Path_2558" data-name="Path 2558" d="M507.376,204.6s-4.389-2.213-7.086,1.082-6.551,11.08-6.669,16.338,4.161,4.9,6.705,3.659,9.979-12.028,10.429-14.14-.531-4.971-1.247-5.529S507.376,204.6,507.376,204.6Z" transform="translate(-477.032 -21.95)" fill="#173d7a"/>
          <path id="Path_2559" data-name="Path 2559" d="M506.368,203.97l.2,4.548a2.578,2.578,0,0,1-1.286,2.366,5.07,5.07,0,0,1-3.386.527c-3.307-.532-3.6-1.478-3.838-6.024S506.368,203.97,506.368,203.97Z" transform="translate(-475.067 -22.374)" fill="#5793ce"/>
          <g id="Group_1471" data-name="Group 1471" transform="translate(0 80.693)">
            <path id="Path_2560" data-name="Path 2560" d="M496.239,198.542s-4.391-2.215-7.086,1.082-6.551,11.08-6.671,16.338,4.161,4.9,6.707,3.659,9.978-12.028,10.428-14.14-.531-4.971-1.245-5.529S496.239,198.542,496.239,198.542Z" transform="translate(-481.965 -105.328)" fill="#173d7a"/>
            <path id="Path_2561" data-name="Path 2561" d="M495.232,197.908l.2,4.548a2.58,2.58,0,0,1-1.284,2.366,5.074,5.074,0,0,1-3.386.527c-3.307-.532-3.6-1.476-3.84-6.024S495.232,197.908,495.232,197.908Z" transform="translate(-479.999 -105.752)" fill="#5793ce"/>
            <path id="Path_2562" data-name="Path 2562" d="M536.528,142.369c-1.3-21.141-22.9,3.111-22.9,3.111L498.85,159.968l-13.309,14.621a13.117,13.117,0,0,0-3.306,10.54l5.383,41a4.031,4.031,0,0,0,4.04,3.5,13.821,13.821,0,0,0,2-.175,5.009,5.009,0,0,0,4.448-5.316l-.984-38.346,27.953-16.85S537.827,163.51,536.528,142.369Z" transform="translate(-482.123 -133.717)" fill="#fdd762"/>
          </g>
          <path id="Path_2563" data-name="Path 2563" d="M547.665,147.952c-1.3-21.141-22.9,3.111-22.9,3.111l-14.781,14.487-13.311,14.622a13.119,13.119,0,0,0-3.306,10.54l5.385,41a4.03,4.03,0,0,0,4.04,3.5,13.827,13.827,0,0,0,1.994-.176,5.007,5.007,0,0,0,4.448-5.314l-.984-38.346,27.953-16.852S548.964,169.093,547.665,147.952Z" transform="translate(-477.191 -50.551)" fill="#fdd762"/>
          <path id="Path_2564" data-name="Path 2564" d="M531.807,98.983c16.374,6.789,16.045,16.468,16.045,16.468s-3.206,35.482-2.112,59.18c.457,9.905-52.632,10.662-44.715-15.768,9.336-31.161,5.836-56.388,10.207-60.193S527.572,97.228,531.807,98.983Z" transform="translate(-474.109 -69.448)" fill="#ff2c9c"/>
          <ellipse id="Ellipse_6" data-name="Ellipse 6" cx="6.216" cy="8.445" rx="6.216" ry="8.445" transform="translate(45.06 39.924) rotate(-75.555)" fill="#ffc2b0"/>
          <path id="Path_2565" data-name="Path 2565" d="M524.134,112.108a12.018,12.018,0,0,1-2.988-.384,10.893,10.893,0,0,1-5.741-3.518,6.258,6.258,0,0,1-1.45-5.562c.964-3.737,5.756-5.74,10.683-4.476a10.885,10.885,0,0,1,5.738,3.518,5.918,5.918,0,0,1-2.506,9.732A10.038,10.038,0,0,1,524.134,112.108Zm-2.495-12.759c-3.042,0-5.583,1.414-6.168,3.687a4.738,4.738,0,0,0,1.147,4.183,9.923,9.923,0,0,0,10.667,2.747,4.736,4.736,0,0,0,3.024-3.107h0a4.733,4.733,0,0,0-1.147-4.183,9.316,9.316,0,0,0-4.917-2.99A10.48,10.48,0,0,0,521.639,99.349Z" transform="translate(-468.103 -68.935)" fill="#fff"/>
          <path id="Path_2566" data-name="Path 2566" d="M517.606,98.752a40.71,40.71,0,0,1-.143,5.845c-.089,1.63,5.623,3.154,7.1,1.678s.886-3.011,1.24-8.564S517.606,98.752,517.606,98.752Z" transform="translate(-466.472 -69.954)" fill="#ffc2b0"/>
          <path id="Path_2567" data-name="Path 2567" d="M525.8,97.029s-1.407,5.148-8.34,7.122l.105-4.678Z" transform="translate(-466.472 -69.272)" fill="#ea9c92"/>
          <path id="Path_2568" data-name="Path 2568" d="M533.9,90.867a12.6,12.6,0,1,1-15.357-9.047A12.6,12.6,0,0,1,533.9,90.867Z" transform="translate(-470.179 -76.187)" fill="#ffc2b0"/>
          <path id="Path_2569" data-name="Path 2569" d="M524.621,91.407s-6.939,2.972-11.744,3.007-3.746-3.99-3.746-3.99l14.262-2.062Z" transform="translate(-470.206 -73.11)" fill="#ea9c92"/>
          <path id="Path_2570" data-name="Path 2570" d="M513.126,96.873s6.044-2.565,11.348-1.5a5.551,5.551,0,0,1,3.2,1.9,1.9,1.9,0,0,0,.971.7c.939.214,2.479-3.688,4.307-3.777s3.047,1.206,1.548,3.6-.991,5.085-.3,5.47,8-5.216,1.553-18-22.839-5.9-25.388-3.306c0,0-2.685,2.339-4.87.257C505.5,82.233,503.049,100.57,513.126,96.873Z" transform="translate(-471.887 -77.792)" fill="#fdd762"/>
          <path id="Path_2571" data-name="Path 2571" d="M533.3,129.315V138.9a3.908,3.908,0,0,1-1.276,2.887l-19.7,17.957,2.238,3.423,26.011-18.864a5.286,5.286,0,0,0,2.153-3.727l1.759-16.722Z" transform="translate(-468.744 -57.39)" fill="#ffc2b0"/>
          <path id="Path_2572" data-name="Path 2572" d="M535.106,106.351s5.975,8.986,8.2,32.641c0,0-10.207,3.3-16,1.427S535.106,106.351,535.106,106.351Z" transform="translate(-462.748 -65.143)" fill="#ff2c9c"/>
          <path id="Path_2573" data-name="Path 2573" d="M526.869,114.226s-2.34,12.52-2.473,18.4a3.755,3.755,0,0,0,2.473,3.626h0Z" transform="translate(-463.401 -61.655)" fill="#d3008d"/>
        </g>
        <g id="Group_1473" data-name="Group 1473" transform="translate(3.148 95.198)">
          <path id="Path_2574" data-name="Path 2574" d="M540.529,162.635l-4.353-.574-28.1-16.224a3.905,3.905,0,0,0-3.515.144l-19.912,11.493-2.632-.348v2.62h0a1.023,1.023,0,0,0,.6.922l31.846,18.387a3.906,3.906,0,0,0,3.515-.146L539.669,166.4a1.418,1.418,0,0,0,.86-1.182h0Z" transform="translate(-482.013 -143.009)" fill="#173d7a"/>
          <path id="Path_2575" data-name="Path 2575" d="M519.415,150.62l-2-1.153H495.468l-10.822,6.243-2.632-.348v2.62h0a1.023,1.023,0,0,0,.6.922l31.846,18.387a3.289,3.289,0,0,0,1.814.341Z" transform="translate(-482.013 -141.246)" fill="#396caa"/>
          <path id="Path_2576" data-name="Path 2576" d="M483.182,153.707l-1.167-.154v2.62h0a1.023,1.023,0,0,0,.6.922l.56.325Z" transform="translate(-482.013 -139.436)" fill="#5793ce"/>
          <path id="Path_2577" data-name="Path 2577" d="M504.729,170.28a4.076,4.076,0,0,0,2.987-.185v-4.459h-2.987Z" transform="translate(-471.954 -134.084)" fill="#274f89"/>
          <path id="Path_2578" data-name="Path 2578" d="M514.469,177.2l-31.846-18.387c-.9-.519-.789-1.428.251-2.029l21.685-12.516a3.9,3.9,0,0,1,3.515-.146l31.847,18.387c.9.519.788,1.428-.253,2.029l-21.685,12.516A3.906,3.906,0,0,1,514.469,177.2Z" transform="translate(-482.014 -143.769)" fill="#fff"/>
          <path id="Path_2579" data-name="Path 2579" d="M512.418,172.349,485.936,157.06c-.749-.433-.655-1.188.211-1.687l11.62-6.535a3.249,3.249,0,0,1,2.923-.121l26.48,15.289c.749.431.655,1.188-.209,1.687l-11.621,6.535A3.251,3.251,0,0,1,512.418,172.349Z" transform="translate(-480.501 -141.707)" fill="#d4ecff"/>
        </g>
        <path id="Path_2580" data-name="Path 2580" d="M498.649,144.034l-.329,2.2a16.245,16.245,0,0,0,.143,5.634l.392,1.936a2.725,2.725,0,0,0,2.182,2.14h0a1.5,1.5,0,0,0,1.762-1.312l.525-4.7s1.2,1.574,1.782,1.574-.649-4.7-1.961-7.367S498.649,144.034,498.649,144.034Z" transform="translate(-471.723 -48.943)" fill="#ffc2b0"/>
        <path id="Path_2581" data-name="Path 2581" d="M509.924,121.526l-3.418,6.764a13.273,13.273,0,0,0-1.4,5.134l-1.483,23.132-4.5-.107-2.04-25.979a9.494,9.494,0,0,1,.115-2.4l2.332-13.174Z" transform="translate(-472.203 -61.359)" fill="#ffc2b0"/>
        <g id="Group_1474" data-name="Group 1474" transform="translate(0 81.423)">
          <path id="Path_2582" data-name="Path 2582" d="M514.185,183.192l-2.669-3.486-28.082-16.258a3.906,3.906,0,0,1-1.628-3.118l.024-22.991-1.615-2.108,1.516-.879,0,0a1.022,1.022,0,0,1,1.1.063l31.824,18.426a3.906,3.906,0,0,1,1.628,3.118L516.262,181a1.419,1.419,0,0,1-.6,1.335h0Z" transform="translate(-479.661 -134.222)" fill="#173d7a"/>
          <path id="Path_2583" data-name="Path 2583" d="M494.767,170.008l-2-1.154L481.82,149.831l.012-12.493-1.615-2.108,1.516-.879,0,0a1.022,1.022,0,0,1,1.1.063l31.824,18.426a3.293,3.293,0,0,1,1.2,1.4Z" transform="translate(-479.661 -134.222)" fill="#396caa"/>
          <path id="Path_2584" data-name="Path 2584" d="M480.934,136.167l-.717-.936,1.516-.879,0,0a1.022,1.022,0,0,1,1.1.063l.56.325Z" transform="translate(-479.661 -134.222)" fill="#5793ce"/>
          <path id="Path_2585" data-name="Path 2585" d="M505.293,147.269a4.072,4.072,0,0,1,1.329,2.681l-3.109,1.795-1.49-2.589Z" transform="translate(-470.004 -128.444)" fill="#274f89"/>
          <path id="Path_2586" data-name="Path 2586" d="M513.316,153.452l-31.824-18.426c-.9-.521-1.63.03-1.632,1.231l-.027,25.038a3.9,3.9,0,0,0,1.628,3.118l31.824,18.426c.9.522,1.63-.03,1.632-1.231l.027-25.038A3.906,3.906,0,0,0,513.316,153.452Z" transform="translate(-479.832 -133.953)" fill="#5793ce"/>
        </g>
        <path id="Path_2587" data-name="Path 2587" d="M517.1,152.154l-.509,1.056a7.078,7.078,0,0,1-2.661,2.948l-3.161,1.949a3.146,3.146,0,0,1-3.226.074q-.054-.03-.108-.065a1.9,1.9,0,0,1-.268-2.92l3.3-3.4s-1.855,1.421-2.376.848c-.381-.418,1.8-2.467,3.474-2.534a6.617,6.617,0,0,0,3.3-1.382Z" transform="translate(-467.972 -46.374)" fill="#ffc2b0"/>
        <path id="Path_2588" data-name="Path 2588" d="M513.295,98.01s-12.11,13.176-17,25.264a24.722,24.722,0,0,0,14.277,10.389C520.714,136.59,513.295,98.01,513.295,98.01Z" transform="translate(-472.539 -68.837)" fill="#ff2c9c"/>
        <path id="Path_2589" data-name="Path 2589" d="M505.431,128l1.964-18.961L502.769,126.8A26.4,26.4,0,0,0,505.431,128Z" transform="translate(-469.673 -63.954)" fill="#d3008d"/>
        <path id="Path_2590" data-name="Path 2590" d="M515.363,96.442l-3.254-.895a7.849,7.849,0,0,0,3.821,3.068c2.268.623,2.622-1.3,2.622-1.3Z" transform="translate(-465.537 -69.928)" fill="#fff"/>
      </g>
    </g>
    <path id="Path_2591" data-name="Path 2591" d="M503.871,114.34,374.714,39.755c-4.244-2.45-8.1-2.511-11.014-.671l-.006-.03-16.207,9.387,10.868,2.026c-.035.557-.066,1.117-.066,1.7V356.8c0,12.093,7.353,26.144,16.424,31.38L502.056,461.72c-1.159,3.638-3.626,11.289-3.626,11.289l15.847-9.191h0c3.675-1.895,6.021-6.636,6.021-13.465V145.72C520.294,133.625,512.941,119.576,503.871,114.34Z" transform="translate(63.289 0)" fill="#ff2c9c"/>
    <g id="Group_1477" data-name="Group 1477" transform="translate(645.992 337.282)">
      <path id="Path_2592" data-name="Path 2592" d="M551.919,275.526l-19.4-11.2-19.4,11.2,19.4,11.2Z" transform="translate(-509.345 -236.956)" fill="#d4ecff"/>
      <path id="Path_2593" data-name="Path 2593" d="M526.566,280.631v-12.62l23.176-13.381v12.62Z" transform="translate(-503.391 -241.25)" fill="#e8a200"/>
      <path id="Path_2594" data-name="Path 2594" d="M533.68,268.011,510.5,254.631v12.62l23.176,13.381Z" transform="translate(-510.504 -241.25)" fill="#f9bf30"/>
      <path id="Path_2595" data-name="Path 2595" d="M556.856,258.738,533.68,245.357,510.5,258.738l23.176,13.381Z" transform="translate(-510.504 -245.357)" fill="#fdd762"/>
    </g>
    <path id="Path_2596" data-name="Path 2596" d="M488.814,155.427c0,1.983-1.392,2.788-3.109,1.795a6.873,6.873,0,0,1-3.109-5.386c0-1.983,1.392-2.786,3.109-1.795A6.875,6.875,0,0,1,488.814,155.427Z" transform="translate(123.127 49.522)" fill="#fff"/>
    <path id="Path_2597" data-name="Path 2597" d="M464.694,324.2a1.443,1.443,0,0,1-.721-2.692l54.465-31.361a1.077,1.077,0,0,0,0-1.867l-28.825-16.556a13.5,13.5,0,0,1-6.763-11.68V165.2a12.564,12.564,0,0,1,5.5-10.4l4.329-2.945a1.443,1.443,0,0,1,1.623,2.387l-4.329,2.945a9.678,9.678,0,0,0-4.242,8.012v94.845a10.609,10.609,0,0,0,5.314,9.178l28.825,16.554a3.963,3.963,0,0,1,0,6.871l-54.465,31.36A1.43,1.43,0,0,1,464.694,324.2Z" transform="translate(114.559 50.403)" fill="#ff2c9c"/>
    <path id="Path_2598" data-name="Path 2598" d="M354.974,329.5c0,12.094,7.353,26.144,16.424,31.38l127.342,73.537c-1.159,3.638-3.626,11.289-3.626,11.289l15.847-9.191h0c3.675-1.895,6.021-6.636,6.021-13.465V118.422a40.841,40.841,0,0,0-5.215-18.986l-156.79,90.523Z" transform="translate(66.605 27.298)" fill="#d3008d"/>
    <path id="Path_2599" data-name="Path 2599" d="M489.263,469.313,360.106,394.73c-9.07-5.238-16.423-19.287-16.423-31.381V58.718c0-12.094,7.353-17.654,16.423-12.416l129.157,74.583c9.07,5.238,16.424,19.287,16.424,31.381V456.9C505.688,468.991,498.333,474.55,489.263,469.313Z" transform="translate(61.604 2.893)" fill="#ff2c9c"/>
    <path id="Path_2600" data-name="Path 2600" d="M365.042,117.868l-10-6.88-3.906-12.81-3.906,8.3-3.56-1.661v7.054l1.147,1.791-1.147,5.089V123.6l7.466-.99,8.592,11.061-2.273-12.714Z" transform="translate(61.6 26.741)" fill="#d3008d"/>
    <path id="Path_2601" data-name="Path 2601" d="M484.752,456.494,360.646,384.827c-6.741-3.893-12.207-14.335-12.207-23.324V61.2c0-8.989,5.466-13.122,12.207-9.229l124.106,71.667c6.741,3.891,12.207,14.335,12.207,23.324v300.3C496.958,456.254,491.493,460.385,484.752,456.494Z" transform="translate(63.711 5.627)" fill="#fff"/>
    <path id="Path_2602" data-name="Path 2602" d="M426.424,324.205l-60.917-35.172V140.947l28.7,16.57a64.434,64.434,0,0,1,32.215,55.8Z" transform="translate(71.27 45.683)" fill="#ededed"/>
    <g id="Group_1479" data-name="Group 1479" transform="translate(357.001 169.944)">
      <path id="Path_2603" data-name="Path 2603" d="M368.212,131.744l.007.012c-6.148-3.662-14.69-3.21-24.125,2.236-18.68,10.786-33.876,37.105-33.876,58.672v15.564h0l.642.377,61.03,35.9.923-18.625.762-7.233,3.236-11.23.371-1.718,6.939-13.986,5.467-6.828,4.431-5.282,10.8-8.5.949-.706,5.308-2.284,7.138-1.856h5.567L430,167.35Z" transform="translate(-310.218 -129.383)" fill="#d4ecff"/>
      <path id="Path_2604" data-name="Path 2604" d="M355.8,252.9l1.978-1.141V180.845a14.519,14.519,0,0,0-1.978,5.02Z" transform="translate(-290.029 -106.591)" fill="#d4ecff"/>
      <path id="Path_2605" data-name="Path 2605" d="M417.473,299.771,355.8,264.239l.636-67.128,2.355-6.781,7.138-12.277,8.447-10.017,7.614-6.091,8.232-5,14.936-1.713,7.9,4.473,4.414,6.757,1.392,10.374-.476,112.207Z" transform="translate(-290.029 -117.932)" fill="#d4ecff"/>
      <path id="Path_2606" data-name="Path 2606" d="M356.427,131.753c-5.144-3.063-11.967-3.235-19.584-.023l62.836,36.279,6.74-1.752h5.567l6.226,1.091L356.42,131.741Z" transform="translate(-298.426 -129.381)" fill="#5793ce"/>
      <g id="Group_1478" data-name="Group 1478" transform="translate(22.083 1.765)">
        <path id="Path_2607" data-name="Path 2607" d="M340.964,130.606a39.241,39.241,0,0,0-6.021,2.844c-1.377.8-2.73,1.682-4.062,2.636l62.639,36.165,2.144-1.688.949-.706,5.308-2.284,2.118-.55Z" transform="translate(-323.15 -130.606)" fill="#e9f6ff"/>
        <path id="Path_2608" data-name="Path 2608" d="M387.771,177.058l8.522-6.711-62.62-36.153a60.43,60.43,0,0,0-8.149,6.924Z" transform="translate(-325.523 -129.017)" fill="#fff"/>
        <path id="Path_2609" data-name="Path 2609" d="M420.709,299.174l-1.978,1.143v-121c0-20.307-14.309-28.569-31.9-18.414s-31.9,34.938-31.9,55.245v16.313L352.96,233.6V217.291c0-21.568,15.2-47.888,33.875-58.672s33.875-2.011,33.875,19.557Z" transform="translate(-313.371 -120.242)" fill="#5793ce"/>
      </g>
    </g>
    <path id="Path_2610" data-name="Path 2610" d="M326.794,165.221l-3.472,14.191,1.736,22.927-4.4-2.589-5.631-12.462,4.93-15.751Z" transform="translate(48.912 56.434)" fill="#aedeed"/>
    <g id="Group_1481" data-name="Group 1481" transform="translate(428.254 244.045)">
      <path id="Path_2611" data-name="Path 2611" d="M407.958,249.167a2.318,2.318,0,0,1-1.154-.341l-44.849-25.893A5.491,5.491,0,0,1,359.6,218.5V183.211a2.458,2.458,0,0,1,1.05-2.238,1.963,1.963,0,0,1,2.026.105l44.849,25.893a5.494,5.494,0,0,1,2.355,4.437v35.287a2.46,2.46,0,0,1-1.05,2.238A1.724,1.724,0,0,1,407.958,249.167Zm-46.434-66.982a.3.3,0,0,0-.153.036c-.151.089-.329.4-.329.99V218.5a4.051,4.051,0,0,0,1.633,3.186l44.849,25.894c.115.065.4.2.584.105.15-.087.328-.4.328-.988V211.408a4.047,4.047,0,0,0-1.633-3.186l-44.849-25.9A.973.973,0,0,0,361.525,182.185Z" transform="translate(-359.6 -180.739)" fill="#fff" opacity="0.4"/>
      <g id="Group_1480" data-name="Group 1480" transform="translate(13.846 20.736)">
        <path id="Path_2612" data-name="Path 2612" d="M371.629,218.007l-.316-.183a5.067,5.067,0,0,1-2.117-4.044V196.964c0-1.558.948-2.275,2.117-1.6l.316.182a5.071,5.071,0,0,1,2.117,4.044v16.817C373.745,217.965,372.8,218.681,371.629,218.007Z" transform="translate(-369.196 -195.11)" fill="#b2d3ea"/>
        <path id="Path_2613" data-name="Path 2613" d="M377.88,219.475l-.316-.182a5.071,5.071,0,0,1-2.117-4.044v-9.843c0-1.558.948-2.274,2.117-1.6l.316.182A5.071,5.071,0,0,1,380,208.033v9.842C380,219.434,379.048,220.151,377.88,219.475Z" transform="translate(-366.428 -191.371)" fill="#b2d3ea"/>
        <path id="Path_2614" data-name="Path 2614" d="M384.13,227.254l-.315-.182a5.068,5.068,0,0,1-2.117-4.044V199.6c0-1.56.947-2.275,2.117-1.6l.315.182a5.068,5.068,0,0,1,2.118,4.044v23.427C386.248,227.212,385.3,227.929,384.13,227.254Z" transform="translate(-363.659 -193.942)" fill="#396caa"/>
      </g>
    </g>
    <g id="Group_1483" data-name="Group 1483" transform="translate(351.762 218.42)">
      <ellipse id="Ellipse_7" data-name="Ellipse 7" cx="38.585" cy="22.277" rx="38.585" ry="22.277" transform="translate(0 215.838)" fill="#d4ecff"/>
      <g id="Group_1482" data-name="Group 1482" transform="translate(10.766 24.765)">
        <path id="Path_2615" data-name="Path 2615" d="M318.225,322.44a7.367,7.367,0,0,0-4.157,7.365,12.491,12.491,0,0,0,.606,3.6c.856,1.795,3.659,4.259,8.134,2.492s14.412-11.106,14.784-17.217C338.284,307.329,325.3,319.418,318.225,322.44Z" transform="translate(-314.048 -120.897)" fill="#173d7a"/>
        <path id="Path_2616" data-name="Path 2616" d="M335.376,335.49s-1.073,6.545-.553,7.745,3.636,3.76,8.236,3.206,17.837-5.118,20.785-13.842c4.57-13.523-25.549,1.016-25.549,1.016Z" transform="translate(-304.91 -115.17)" fill="#173d7a"/>
        <path id="Path_2617" data-name="Path 2617" d="M357.447,262.171l1.024,102.18c-.107,3.554-2.434,6.555-5.565,7.083-.387.065-.8.118-1.245.157a6.365,6.365,0,0,1-6.07-2.511,7.5,7.5,0,0,1-1.365-4.125l-1.3-43.62-6.513-39L327.4,351.361a5.964,5.964,0,0,1-2.476,4.545,6.9,6.9,0,0,1-4.108,1.114,7.549,7.549,0,0,1-5.461-2.69,5.481,5.481,0,0,1-1.3-3.7L317.62,309.1l1.33-52.973Z" transform="translate(-314.048 -146.488)" fill="#fdd762"/>
        <path id="Path_2618" data-name="Path 2618" d="M335.452,196.929l-1.616,9.31a4.269,4.269,0,0,0,3.487,4.057c3.547.88,4.643-1.41,4.643-1.41l1.6-10.485Z" transform="translate(-305.285 -172.708)" fill="#ffc2b0"/>
        <path id="Path_2619" data-name="Path 2619" d="M356.632,199.263c-2.518,7.976-10.311,12.605-17.406,10.34s-10.8-10.569-8.285-18.545,10.309-12.605,17.4-10.34S359.15,191.287,356.632,199.263Z" transform="translate(-306.916 -180.142)" fill="#ffc2b0"/>
        <path id="Path_2620" data-name="Path 2620" d="M343.266,204.789c-.245-.1-15.049-9.631-20.521.343-8.921,16.264-2.4,34.912-5.58,75.4-.532,6.774,9.118,10.9,13.68,13.51a27.333,27.333,0,0,0,13.279,3.777c4.626.038,13.5-4.076,13.174-10.123-1.48-27.813.978-51.257,3.249-74.006C360.547,213.692,357.709,210.636,343.266,204.789Z" transform="translate(-312.677 -171.088)" fill="#983be9"/>
        <path id="Path_2621" data-name="Path 2621" d="M333.306,274.292,324.3,343.317a5.964,5.964,0,0,1-2.476,4.545,6.491,6.491,0,0,1-.769.434c1.87-1.4,7.331-59.339,8.341-65.784S333.306,274.292,333.306,274.292Z" transform="translate(-310.946 -138.445)" fill="#d8892b"/>
      </g>
      <path id="Path_2622" data-name="Path 2622" d="M369.846,217.644l12.394-24.6-3.888-2.456-12.845,18.738Z" transform="translate(-280.492 -150.751)" fill="#ffc2b0"/>
      <path id="Path_2623" data-name="Path 2623" d="M311.859,199.655l6.029-27.428,4.8.053-1.8,22.747Z" transform="translate(-304.252 -158.883)" fill="#ffc2b0"/>
      <path id="Path_2624" data-name="Path 2624" d="M349.932,212.882s13.862,5.467,25.773-9.558a2.284,2.284,0,0,1,3.825.251c1.071,2.463,2.413,6.183.785,9.675-7.2,15.449-31.758,14.912-37.675,23.573S349.932,212.882,349.932,212.882Z" transform="translate(-291.295 -145.514)" fill="#983be9"/>
      <path id="Path_2625" data-name="Path 2625" d="M336.31,207.542s-11.445.88-13.093-9.027a75.755,75.755,0,0,1-1.151-9.9,2,2,0,0,0-2.244-1.944c-2.741.341-6.985,1.159-7.561,3-.859,2.743-2.476,16.2,8.829,36.838C328.5,240.025,336.31,207.542,336.31,207.542Z" transform="translate(-304.344 -152.494)" fill="#983be9"/>
      <path id="Path_2626" data-name="Path 2626" d="M316.021,176.391l.108-3.128a6.443,6.443,0,0,1,.935-3.122l3.172-5.209.827-1.042a2.41,2.41,0,0,1,3.169-.541l.729.459a3,3,0,0,1,1.394,2.727l-1.639,4.451,2.073-.4a.736.736,0,0,1,.864.593h0a.736.736,0,0,1-.449.812l-3.386,1.366-3.076,4.353Z" transform="translate(-302.409 -162.979)" fill="#ffc2b0"/>
      <path id="Path_2627" data-name="Path 2627" d="M379.532,197.125l1.45-2.773a6.439,6.439,0,0,0,.732-3.177l-.183-6.095-.2-1.314a2.409,2.409,0,0,0-2.488-2.036l-.86.038a2.994,2.994,0,0,0-2.56,1.682l-.775,4.679-1.6-1.374a.736.736,0,0,0-1.045.088h0a.734.734,0,0,0-.012.928l2.27,2.863.587,5.962Z" transform="translate(-277.693 -154.675)" fill="#ffc2b0"/>
      <path id="Path_2628" data-name="Path 2628" d="M341.579,227.892c-1.2,5.493,6.053,46.934-2.017,62.089,4.036-1.635,8.025-4.835,7.807-8.926a378.632,378.632,0,0,1,1.361-54.306c6.9-3.5,17.686-5.581,25.313-11.167C365.864,218.6,342.656,222.988,341.579,227.892Z" transform="translate(-291.983 -139.681)" fill="#721bd5"/>
      <path id="Path_2629" data-name="Path 2629" d="M331.559,202.324l2.056-2.111s3.381,3.454,6.1,4.055a31.677,31.677,0,0,0,4.867,1.006l1.323,3.649S335.136,208.15,331.559,202.324Z" transform="translate(-295.527 -146.488)" fill="#fff"/>
      <path id="Path_2630" data-name="Path 2630" d="M347.772,200.459a1.74,1.74,0,0,0,1.417-.736c.561-.812.206-4.554,1.938-5.171,2.707-.965,9.129,2.421,9.815-7.344.358-5.075-2.112-6.424-2.1-9.2,0,0,.214,1.394-12.846.527s-17.306,10.729-17.615,16.253,2.363,14.606,11.291,15.853c1.479.206,7.695-4.792,7.535-5.447s-2.506-.619-2.167-2.527A2.454,2.454,0,0,1,347.772,200.459Z" transform="translate(-296.946 -156.325)" fill="#173d7a"/>
    </g>
    <g id="Group_1486" data-name="Group 1486" transform="translate(419.145 74.902)">
      <g id="Group_1484" data-name="Group 1484">
        <path id="Path_2631" data-name="Path 2631" d="M401.331,130.535l-39.462-22.783a7.6,7.6,0,0,1-3.174-6.066V72.344c0-2.337,1.421-3.412,3.174-2.4l39.462,22.783a7.6,7.6,0,0,1,3.176,6.066v29.343C404.507,130.473,403.084,131.548,401.331,130.535Z" transform="translate(-350.892 -60.835)" fill="#ededed"/>
        <path id="Path_2632" data-name="Path 2632" d="M399.451,86.665,359.989,63.884a2.019,2.019,0,0,0-2.04-.164l0-.025-3.828,2.211s1.7.618,2.691.983V95.626a7.6,7.6,0,0,0,3.174,6.066l37.717,21.776v3.372l3.867-2.226-.02-.007a2.815,2.815,0,0,0,1.072-2.532V92.733A7.606,7.606,0,0,0,399.451,86.665Z" transform="translate(-352.916 -63.514)" fill="#721bd5"/>
        <path id="Path_2633" data-name="Path 2633" d="M395.923,126.035l-39.46-22.783a7.6,7.6,0,0,1-3.176-6.066V67.844c0-2.337,1.421-3.412,3.176-2.4l39.46,22.783a7.6,7.6,0,0,1,3.176,6.066v29.343C399.1,125.973,397.678,127.048,395.923,126.035Z" transform="translate(-353.287 -62.828)" fill="#983be9"/>
        <path id="Path_2634" data-name="Path 2634" d="M395.7,88.223,356.241,65.442a1.87,1.87,0,0,0-2.457.164,2.372,2.372,0,0,1,1.4.356l39.462,22.783a7.6,7.6,0,0,1,3.174,6.066v29.343a3.21,3.21,0,0,1-.717,2.235c1.047-.087,1.775-1.092,1.775-2.756V94.291A7.6,7.6,0,0,0,395.7,88.223Z" transform="translate(-353.067 -62.825)" fill="#fff"/>
      </g>
      <g id="Group_1485" data-name="Group 1485" transform="translate(11.12 25.339)">
        <path id="Path_2635" data-name="Path 2635" d="M366.32,86.05c0,1.7-1.193,2.385-2.664,1.537a5.886,5.886,0,0,1-2.662-4.611c0-1.7,1.192-2.387,2.662-1.537A5.885,5.885,0,0,1,366.32,86.05Z" transform="translate(-360.994 -81.075)" fill="#fff"/>
        <path id="Path_2636" data-name="Path 2636" d="M371.91,89.277c0,1.7-1.192,2.387-2.662,1.537a5.881,5.881,0,0,1-2.664-4.611c0-1.7,1.192-2.385,2.664-1.537A5.883,5.883,0,0,1,371.91,89.277Z" transform="translate(-358.518 -79.645)" fill="#fff"/>
        <path id="Path_2637" data-name="Path 2637" d="M377.5,92.5c0,1.7-1.192,2.387-2.662,1.538a5.887,5.887,0,0,1-2.664-4.611c0-1.7,1.193-2.387,2.664-1.538A5.888,5.888,0,0,1,377.5,92.5Z" transform="translate(-356.042 -78.216)" fill="#fff"/>
      </g>
    </g>
    <g id="Group_1488" data-name="Group 1488" transform="translate(497.671 193.096)">
      <g id="Group_1487" data-name="Group 1487" transform="translate(0 0)">
        <path id="Path_2638" data-name="Path 2638" d="M455.754,249.143,416.292,226.36a7.6,7.6,0,0,1-3.174-6.066V154.259c0-2.337,1.421-3.412,3.174-2.4l39.462,22.783a7.6,7.6,0,0,1,3.176,6.066v66.035C458.93,249.081,457.508,250.156,455.754,249.143Z" transform="translate(-405.315 -142.75)" fill="#ededed"/>
        <path id="Path_2639" data-name="Path 2639" d="M453.874,168.58,414.412,145.8a2.019,2.019,0,0,0-2.04-.164l0-.026-3.828,2.212s1.7.618,2.691.983v65.431a7.608,7.608,0,0,0,3.174,6.067l37.717,21.775v3.372L456,243.221l-.022-.007a2.814,2.814,0,0,0,1.073-2.531V174.648A7.607,7.607,0,0,0,453.874,168.58Z" transform="translate(-407.339 -145.429)" fill="#5793ce"/>
        <path id="Path_2640" data-name="Path 2640" d="M450.347,244.643,410.886,221.86a7.6,7.6,0,0,1-3.176-6.066V149.759c0-2.337,1.421-3.412,3.176-2.4l39.462,22.783a7.6,7.6,0,0,1,3.174,6.066v66.035C453.522,244.581,452.1,245.656,450.347,244.643Z" transform="translate(-407.71 -144.743)" fill="#d4ecff"/>
        <path id="Path_2641" data-name="Path 2641" d="M450.127,170.138l-39.462-22.782a1.872,1.872,0,0,0-2.459.164,2.371,2.371,0,0,1,1.4.356l39.462,22.783a7.6,7.6,0,0,1,3.176,6.066v66.035a3.21,3.21,0,0,1-.719,2.236c1.047-.088,1.775-1.094,1.775-2.757V176.206A7.606,7.606,0,0,0,450.127,170.138Z" transform="translate(-407.49 -144.74)" fill="#fff"/>
      </g>
    </g>
    <g id="Group_1490" data-name="Group 1490" transform="translate(497.671 282.315)">
      <g id="Group_1489" data-name="Group 1489">
        <path id="Path_2642" data-name="Path 2642" d="M455.754,310.977l-39.462-22.783a7.6,7.6,0,0,1-3.174-6.066V216.093c0-2.339,1.421-3.414,3.174-2.4l39.462,22.783a7.6,7.6,0,0,1,3.176,6.066v66.035C458.93,310.915,457.508,311.989,455.754,310.977Z" transform="translate(-405.315 -204.583)" fill="#ededed"/>
        <path id="Path_2643" data-name="Path 2643" d="M453.874,230.415l-39.462-22.783a2.022,2.022,0,0,0-2.04-.164l0-.025-3.828,2.212s1.7.618,2.691.983v65.429a7.606,7.606,0,0,0,3.174,6.067l37.717,21.776v3.372L456,305.054l-.022-.007a2.812,2.812,0,0,0,1.073-2.531V236.48A7.6,7.6,0,0,0,453.874,230.415Z" transform="translate(-407.339 -207.262)" fill="#d3008d"/>
        <path id="Path_2644" data-name="Path 2644" d="M450.347,306.477l-39.462-22.783a7.6,7.6,0,0,1-3.176-6.066V211.593c0-2.339,1.421-3.414,3.176-2.4l39.462,22.783a7.6,7.6,0,0,1,3.174,6.066v66.035C453.522,306.415,452.1,307.489,450.347,306.477Z" transform="translate(-407.71 -206.576)" fill="#ff2c9c"/>
        <path id="Path_2645" data-name="Path 2645" d="M450.127,231.973l-39.462-22.783a1.872,1.872,0,0,0-2.459.164,2.393,2.393,0,0,1,1.4.356l39.462,22.783a7.606,7.606,0,0,1,3.176,6.066v66.035a3.207,3.207,0,0,1-.719,2.236c1.047-.087,1.775-1.094,1.775-2.757V238.039A7.6,7.6,0,0,0,450.127,231.973Z" transform="translate(-407.49 -206.574)" fill="#fff"/>
      </g>
    </g>
    <g id="Group_1493" data-name="Group 1493" transform="translate(277.488 377.622)">
      <g id="Group_1491" data-name="Group 1491">
        <path id="Path_2646" data-name="Path 2646" d="M259.462,307.056l34.681-19.542a6.643,6.643,0,0,1,5.975.31l22.065,13.049c1.757,1.039,1.933,2.586.392,3.454L287.894,323.87a6.64,6.64,0,0,1-5.974-.31l-22.066-13.048C258.1,309.471,257.921,307.924,259.462,307.056Z" transform="translate(-253.649 -267.279)" fill="#d4ecff"/>
        <path id="Path_2647" data-name="Path 2647" d="M288.854,318.7l39.7-22.369a2.022,2.022,0,0,0,1.18-1.672l.02.016.045-4.421s-1.394,1.144-2.215,1.815L302.846,277.44a7.6,7.6,0,0,0-6.838-.355l-37.944,21.381-2.9-1.717-.052,4.461.017-.013a2.811,2.811,0,0,0,1.632,2.211l25.256,14.937A7.6,7.6,0,0,0,288.854,318.7Z" transform="translate(-255.111 -271.933)" fill="#f9bf30"/>
        <path id="Path_2648" data-name="Path 2648" d="M256.346,296.337l39.7-22.369a7.6,7.6,0,0,1,6.838.355l25.256,14.935c2.011,1.19,2.213,2.961.449,3.955l-39.7,22.369a7.6,7.6,0,0,1-6.838-.355L256.8,300.29C254.783,299.1,254.583,297.331,256.346,296.337Z" transform="translate(-255.096 -273.314)" fill="#fdd762"/>
        <path id="Path_2649" data-name="Path 2649" d="M288.885,310.149l39.7-22.369a1.87,1.87,0,0,0,1.11-2.2,2.384,2.384,0,0,1-1.02,1.024l-39.7,22.369a7.6,7.6,0,0,1-6.836-.355l-25.256-14.937a3.212,3.212,0,0,1-1.56-1.755c-.459.945.038,2.084,1.47,2.93l25.256,14.935A7.6,7.6,0,0,0,288.885,310.149Z" transform="translate(-255.091 -267.882)" fill="#fff"/>
      </g>
      <g id="Group_1492" data-name="Group 1492" transform="translate(25.581 13.539)">
        <path id="Path_2650" data-name="Path 2650" d="M285.174,286.381c-1.462-.864-1.447-2.241.032-3.073a5.886,5.886,0,0,1,5.326.055c1.46.864,1.446,2.241-.033,3.075A5.883,5.883,0,0,1,285.174,286.381Z" transform="translate(-267.859 -282.697)" fill="#fff"/>
        <path id="Path_2651" data-name="Path 2651" d="M279.55,289.55c-1.462-.864-1.447-2.241.033-3.073a5.883,5.883,0,0,1,5.324.055c1.462.864,1.447,2.241-.032,3.075A5.89,5.89,0,0,1,279.55,289.55Z" transform="translate(-270.349 -281.294)" fill="#fff"/>
        <path id="Path_2652" data-name="Path 2652" d="M273.927,292.719c-1.462-.864-1.447-2.241.032-3.075a5.887,5.887,0,0,1,5.324.056c1.462.864,1.447,2.241-.032,3.073A5.883,5.883,0,0,1,273.927,292.719Z" transform="translate(-272.84 -279.89)" fill="#fff"/>
      </g>
    </g>
    <g id="Group_1498" data-name="Group 1498" transform="translate(204.587 158.814)">
      <ellipse id="Ellipse_8" data-name="Ellipse 8" cx="27.752" cy="16.023" rx="27.752" ry="16.023" transform="translate(17.827 195.449)" fill="#d4ecff"/>
      <g id="Group_1497" data-name="Group 1497">
        <path id="Path_2653" data-name="Path 2653" d="M225.3,133.989s.714,14.71,1.834,24.6,24.927-7.592,24.927-7.592V139.736Z" transform="translate(-195.412 -116.213)" fill="#6614cf"/>
        <g id="Group_1495" data-name="Group 1495" transform="translate(12.541 5.148)">
          <path id="Path_2654" data-name="Path 2654" d="M234.166,262.673c.358.893,6.526,8.4,12.695,10.281a14.194,14.194,0,0,0,5.668.784,1.869,1.869,0,0,0,1.519-2.489A23.436,23.436,0,0,0,242.211,258.2C231.752,253.017,234.166,262.673,234.166,262.673Z" transform="translate(-204.134 -67.026)" fill="#173d7a"/>
          <path id="Path_2655" data-name="Path 2655" d="M235.317,262.83a51.02,51.02,0,0,1,3.039,10.014c.437,2.78-1.089,6.393-2.346,8.789a2.568,2.568,0,0,1-4,.693A14.847,14.847,0,0,1,227,272.754c-.714-7.689,0-9.03,0-9.03Z" transform="translate(-207.341 -64.298)" fill="#173d7a"/>
          <path id="Path_2656" data-name="Path 2656" d="M222.478,200.748a146.158,146.158,0,0,0,0,20.427c.8,10.728,3.685,60.9,4.22,72.97,0,0-.268,3.655,6.806,2.85s6.5-4.861,6.5-4.861,9.934-.134,10.247-5.989,10.175-69.928,10.175-92.964Z" transform="translate(-209.363 -95.146)" fill="#fdd762"/>
          <g id="Group_1494" data-name="Group 1494" transform="translate(0 0)">
            <path id="Path_2657" data-name="Path 2657" d="M252.525,163.67l4.868,7.539,16.73,20.209a3.752,3.752,0,0,1-2.658,2.366c-1.628.382-15.7-13.042-21.778-18.934a4.666,4.666,0,0,1-.641-5.93Z" transform="translate(-197.781 -108.215)" fill="#ffc2b0"/>
            <path id="Path_2658" data-name="Path 2658" d="M244.638,142.224s7.732-.2,10.423,10.975,4.8,25.165,2.456,26.328c-7.027,3.49-11.474-.593-11.474-.593Z" transform="translate(-199.39 -117.714)" fill="#8a2ae3"/>
            <path id="Path_2659" data-name="Path 2659" d="M258.743,142.7a6.322,6.322,0,0,0-4.174-.229c-6.587,1.892-31.355,9.161-35.437,12.65-4.715,4.031,7.073,26.683,6.9,34.11s-1.007,16.183-1.662,24.256-1.545,12.5,5.059,15.934,17.879,3.591,26.32-2.841,6.909-10.83,6.556-15.5-3.225-24.861-2.975-30.594a21.671,21.671,0,0,0,5.176-5.948c2.2-3.757-1.687-10.663-3.3-15.153s.912-9.624.411-13.288A4.156,4.156,0,0,0,258.743,142.7Z" transform="translate(-211.18 -117.715)" fill="#983be9"/>
            <path id="Path_2660" data-name="Path 2660" d="M246.481,149.836c.522,4.08-3.219,7.921-8.359,8.579s-9.729-2.115-10.252-6.2,3.221-7.92,8.359-8.578S245.959,145.757,246.481,149.836Z" transform="translate(-206.837 -117.129)" fill="#fff"/>
            <path id="Path_2661" data-name="Path 2661" d="M243.009,149.521c.372,2.916-2.3,5.66-5.975,6.131s-6.953-1.511-7.327-4.427,2.3-5.662,5.974-6.132S242.635,146.605,243.009,149.521Z" transform="translate(-206.018 -116.473)" fill="#ffc2b0"/>
            <path id="Path_2662" data-name="Path 2662" d="M238.517,142.225s-4.47-3.678-5.349-1.815-1.6,9.855-1.6,9.855l8.88,2.385-1.348-8.1S240.875,143.046,238.517,142.225Z" transform="translate(-205.179 -118.75)" fill="#ffc2b0"/>
            <circle id="Ellipse_9" data-name="Ellipse 9" cx="13.257" cy="13.257" r="13.257" transform="matrix(0.052, -0.999, 0.999, 0.052, 20.048, 26.478)" fill="#ffc2b0"/>
            <path id="Path_2663" data-name="Path 2663" d="M232.318,142.049c-.079.417-.154.864-.227,1.322.893,4.611,7.795,6.632,7.795,6.632l-1.019-6.128s.835-.71.6-1.42C236.739,141.593,233.3,140.83,232.318,142.049Z" transform="translate(-204.947 -118.072)" fill="#ea9c92"/>
            <circle id="Ellipse_10" data-name="Ellipse 10" cx="13.257" cy="13.257" r="13.257" transform="matrix(0.052, -0.999, 0.999, 0.052, 20.048, 26.478)" fill="#ffc2b0"/>
            <path id="Path_2664" data-name="Path 2664" d="M214.192,173.786l1.484,35.477,5.186.535,3.376-31.937Z" transform="translate(-212.874 -103.735)" fill="#ffc2b0"/>
            <path id="Path_2665" data-name="Path 2665" d="M228.018,179.193c-.28-1.235-2.551-2.251-2.9-3.861-1.781-8.265-2.209-20.45-2.209-20.45l-1.449,16.647c1.672,4.936,3.108,9.468,3.047,12.094-.1,4.359-.43,9.178-.818,14.047v.014S229.733,186.77,228.018,179.193Z" transform="translate(-209.655 -112.108)" fill="#8a2ae3"/>
            <path id="Path_2666" data-name="Path 2666" d="M222.221,150.657s-4.147,1.584-6.494,14.324-4.1,25.5.082,27.144,7.681,2.881,8.911-.527,1.993-19.824,2.147-25.728S227.246,151.824,222.221,150.657Z" transform="translate(-213.279 -113.979)" fill="#b45ef4"/>
            <path id="Path_2667" data-name="Path 2667" d="M267.184,181.99a11.131,11.131,0,0,1,3.87,2.594,25.212,25.212,0,0,1,2.643,3.549c1.291,1.926,2.381,6.092,1.594,6.611s-5.294-6.975-6.02-5.232.006,3.355-.925,3.381-4.169-7.532-6.715-9.875S267.184,181.99,267.184,181.99Z" transform="translate(-192.083 -100.265)" fill="#ffc2b0"/>
          </g>
          <path id="Path_2668" data-name="Path 2668" d="M234.518,285.789a20.234,20.234,0,0,0,2.838-.294h0L239.3,207.5Z" transform="translate(-203.872 -88.801)" fill="#d8892b"/>
        </g>
        <g id="Group_1496" data-name="Group 1496" transform="translate(0 109.398)">
          <path id="Path_2669" data-name="Path 2669" d="M240.091,248.1l-2.759-3.6-29.022-16.8a4.036,4.036,0,0,1-1.682-3.223l.026-23.76-1.669-2.179,1.568-.908h0a1.061,1.061,0,0,1,1.138.066l32.889,19.042a4.04,4.04,0,0,1,1.682,3.223l-.027,25.877a1.468,1.468,0,0,1-.616,1.379h0Z" transform="translate(-204.411 -197.488)" fill="#983be9"/>
          <path id="Path_2670" data-name="Path 2670" d="M220.022,234.474l-2.062-1.195L206.642,213.62l.012-12.911-1.669-2.179,1.568-.908h0a1.061,1.061,0,0,1,1.138.066l32.889,19.042a3.415,3.415,0,0,1,1.241,1.45Z" transform="translate(-204.411 -197.488)" fill="#d29fff"/>
          <path id="Path_2671" data-name="Path 2671" d="M205.726,199.5l-.742-.967,1.568-.908h0a1.061,1.061,0,0,1,1.138.066l.58.335Z" transform="translate(-204.411 -197.488)" fill="#d29fff"/>
          <path id="Path_2672" data-name="Path 2672" d="M230.9,210.971a4.216,4.216,0,0,1,1.375,2.77L229.06,215.6l-1.54-2.675Z" transform="translate(-194.43 -191.517)" fill="#983be9"/>
          <path id="Path_2673" data-name="Path 2673" d="M239.192,217.361,206.3,198.32c-.931-.54-1.685.03-1.687,1.271l-.027,25.877a4.035,4.035,0,0,0,1.681,3.223l32.891,19.042c.931.54,1.685-.03,1.687-1.271l.027-25.877A4.037,4.037,0,0,0,239.192,217.361Z" transform="translate(-204.587 -197.21)" fill="#b45ef4"/>
        </g>
        <path id="Path_2674" data-name="Path 2674" d="M224.368,228.725l-1.566-.9V214.363l1.566.9Z" transform="translate(-196.52 -80.616)" fill="#fff"/>
        <path id="Path_2675" data-name="Path 2675" d="M221.831,227.261l-1.566-.9V212.9l1.566.9Z" transform="translate(-197.643 -81.265)" fill="#fff"/>
        <path id="Path_2676" data-name="Path 2676" d="M219.3,225.8l-1.567-.9V211.434l1.567.9Z" transform="translate(-198.767 -81.913)" fill="#fff"/>
        <path id="Path_2677" data-name="Path 2677" d="M215.613,199.489s-1.371,8.281-1.164,10.933,1.625,7.028,2.7,6.935.036-10.664,1.928-9.613,2.091,2.86,2.948,2.222-1.493-9.675-.867-13.593S215.613,199.489,215.613,199.489Z" transform="translate(-200.229 -89.11)" fill="#ffc2b0"/>
        <path id="Path_2678" data-name="Path 2678" d="M243.291,137.826c6.65,2.362,7.945.921,8.008.844.061-.4.11-.807.134-1.219a13.212,13.212,0,0,0-.443-4.236l-17.253-2.329S236.462,135.4,243.291,137.826Z" transform="translate(-191.676 -117.587)" fill="#ea9c92"/>
        <path id="Path_2679" data-name="Path 2679" d="M255.651,128.325c-1.567-1.343-7.223-7.986-17.355-6.418-6.333.978-11.67,5.3-12.853,15.153a22.651,22.651,0,0,0,6.128,18.013,5.531,5.531,0,0,0,.72-.365c2.537-1.669,2.811-2.587,2.811-2.6l.56-5.028a1.4,1.4,0,0,0-1.264-1.394,2.527,2.527,0,0,1-1.856-1.131c-1.456-1.9-.785-4.871,2.127-4.982a2.232,2.232,0,0,0,2.324-1.654,1.189,1.189,0,0,1,1.553-.808c3.311,1.2,11.471,3.78,16.722,2.293C261.986,137.5,257.218,129.668,255.651,128.325Z" transform="translate(-195.416 -121.669)" fill="#6614cf"/>
        <path id="Path_2680" data-name="Path 2680" d="M242.317,140.188l4.056-1.114s-1.936,3.046-4.763,3.822-3.267-1.616-3.267-1.616Z" transform="translate(-189.637 -113.961)" fill="#fff"/>
        <path id="Path_2681" data-name="Path 2681" d="M221.088,205.858l-3.456-1.978,1.3,2.119,1.747.645Z" transform="translate(-198.809 -85.259)" fill="#d29fff"/>
      </g>
    </g>
    <g id="Group_1501" data-name="Group 1501" transform="translate(269.318 238.259)">
      <g id="Group_1499" data-name="Group 1499" transform="translate(0 0)">
        <path id="Path_2682" data-name="Path 2682" d="M283.267,222.157l39.6-22.538a2.02,2.02,0,0,0,1.172-1.678l.02.016.026-4.421s-1.39,1.15-2.208,1.825l-24.8-14.523a7.6,7.6,0,0,0-6.839-.326l-37.851,21.542-2.909-1.7-.033,4.463.017-.014a2.815,2.815,0,0,0,1.642,2.2l25.32,14.829A7.6,7.6,0,0,0,283.267,222.157Z" transform="translate(-249.449 -175.348)" fill="#d3008d"/>
        <path id="Path_2683" data-name="Path 2683" d="M250.664,199.932l39.6-22.538a7.6,7.6,0,0,1,6.839.326l25.32,14.827c2.017,1.182,2.226,2.952.466,3.954l-39.6,22.538a7.608,7.608,0,0,1-6.839-.325l-25.32-14.829C249.113,202.7,248.9,200.935,250.664,199.932Z" transform="translate(-249.44 -176.729)" fill="#ff2c9c"/>
        <path id="Path_2684" data-name="Path 2684" d="M283.284,213.647l39.6-22.538a1.872,1.872,0,0,0,1.1-2.2,2.4,2.4,0,0,1-1.016,1.029l-39.6,22.539a7.6,7.6,0,0,1-6.839-.326l-25.32-14.829a3.211,3.211,0,0,1-1.567-1.749c-.454.948.046,2.084,1.482,2.925l25.32,14.827A7.6,7.6,0,0,0,283.284,213.647Z" transform="translate(-249.435 -171.337)" fill="#fff"/>
      </g>
      <g id="Group_1500" data-name="Group 1500" transform="translate(25.562 13.531)">
        <path id="Path_2685" data-name="Path 2685" d="M279.477,189.8c-1.465-.859-1.456-2.235.019-3.075a5.886,5.886,0,0,1,5.326.033c1.465.857,1.456,2.234-.019,3.073A5.886,5.886,0,0,1,279.477,189.8Z" transform="translate(-262.195 -186.107)" fill="#fff"/>
        <path id="Path_2686" data-name="Path 2686" d="M273.867,192.994c-1.465-.857-1.456-2.234.019-3.073a5.886,5.886,0,0,1,5.326.033c1.465.857,1.456,2.234-.019,3.073A5.886,5.886,0,0,1,273.867,192.994Z" transform="translate(-264.68 -184.693)" fill="#fff"/>
        <path id="Path_2687" data-name="Path 2687" d="M268.257,196.187c-1.465-.857-1.456-2.234.019-3.073a5.89,5.89,0,0,1,5.326.032c1.465.859,1.456,2.235-.019,3.075A5.886,5.886,0,0,1,268.257,196.187Z" transform="translate(-267.165 -183.279)" fill="#fff"/>
      </g>
    </g>
    <g id="Group_1502" data-name="Group 1502" transform="translate(509.69 305.907)">
      <path id="Path_2688" data-name="Path 2688" d="M431.109,234.369c0,3.671-2.577,5.16-5.757,3.323a12.723,12.723,0,0,1-5.757-9.97c0-3.671,2.578-5.158,5.757-3.323A12.722,12.722,0,0,1,431.109,234.369Z" transform="translate(-414.466 -223.612)" fill="#d3008d"/>
      <path id="Path_2689" data-name="Path 2689" d="M435.083,241.433c-.007-.056-.016-.114-.025-.17-.245-1.547-1.71-2.9-2.675-2.56a6.584,6.584,0,0,1-5.457-.923,17.065,17.065,0,0,1-5.457-5.379c-.965-1.457-2.43-1.791-2.675-.528-.009.046-.017.094-.025.141l-2.73,17.339,21.775,12.572Z" transform="translate(-416.04 -220.3)" fill="#d3008d"/>
    </g>
    <g id="Group_1503" data-name="Group 1503" transform="translate(509.69 305.907)">
      <path id="Path_2690" data-name="Path 2690" d="M431.109,234.369c0,3.671-2.577,5.16-5.757,3.323a12.723,12.723,0,0,1-5.757-9.97c0-3.671,2.578-5.158,5.757-3.323A12.722,12.722,0,0,1,431.109,234.369Z" transform="translate(-414.466 -223.612)" fill="#fff"/>
      <path id="Path_2691" data-name="Path 2691" d="M435.083,241.433c-.007-.056-.016-.114-.025-.17-.245-1.547-1.71-2.9-2.675-2.56a6.584,6.584,0,0,1-5.457-.923,17.065,17.065,0,0,1-5.457-5.379c-.965-1.457-2.43-1.791-2.675-.528-.009.046-.017.094-.025.141l-2.73,17.339,21.775,12.572Z" transform="translate(-416.04 -220.3)" fill="#fff"/>
    </g>
    <g id="Group_1504" data-name="Group 1504" transform="translate(506.57 343.559)">
      <path id="Path_2692" data-name="Path 2692" d="M440.314,266.876l-26.436-15.263v-1.905l26.436,15.263Z" transform="translate(-413.878 -249.707)" fill="#fff"/>
      <path id="Path_2693" data-name="Path 2693" d="M432.331,268.037l-18.454-10.654v-1.905l18.454,10.654Z" transform="translate(-413.878 -247.152)" fill="#fff"/>
      <path id="Path_2694" data-name="Path 2694" d="M429.842,263.715,413.878,254.5v-1.905l15.965,9.217Z" transform="translate(-413.878 -248.43)" fill="#fff"/>
      <path id="Path_2695" data-name="Path 2695" d="M434.649,266.49l-7.982-4.609v-1.906l7.982,4.609Z" transform="translate(-408.213 -245.16)" fill="#fff"/>
    </g>
    <g id="Group_1505" data-name="Group 1505" transform="translate(506.631 216.24)">
      <path id="Path_2696" data-name="Path 2696" d="M440.356,178.637,413.92,163.374v-1.905l26.436,15.263Z" transform="translate(-413.92 -161.468)" fill="#5793ce"/>
      <path id="Path_2697" data-name="Path 2697" d="M432.373,179.8,413.92,169.143v-1.906l18.454,10.654Z" transform="translate(-413.92 -158.913)" fill="#5793ce"/>
      <path id="Path_2698" data-name="Path 2698" d="M429.884,175.476l-15.965-9.217v-1.906l15.965,9.217Z" transform="translate(-413.92 -160.191)" fill="#5793ce"/>
      <path id="Path_2699" data-name="Path 2699" d="M434.691,178.251l-7.982-4.609v-1.905l7.982,4.609Z" transform="translate(-408.255 -156.92)" fill="#5793ce"/>
    </g>
    <g id="Group_1506" data-name="Group 1506" transform="translate(506.631 232.318)">
      <path id="Path_2700" data-name="Path 2700" d="M440.356,189.78,413.92,174.517v-1.905l26.436,15.263Z" transform="translate(-413.92 -172.611)" fill="#5793ce"/>
      <path id="Path_2701" data-name="Path 2701" d="M432.373,190.941,413.92,180.286v-1.905l18.454,10.654Z" transform="translate(-413.92 -170.056)" fill="#5793ce"/>
      <path id="Path_2702" data-name="Path 2702" d="M429.884,186.619,413.92,177.4V175.5l15.965,9.217Z" transform="translate(-413.92 -171.334)" fill="#5793ce"/>
      <path id="Path_2703" data-name="Path 2703" d="M434.691,189.394l-7.982-4.609V182.88l7.982,4.609Z" transform="translate(-408.255 -168.063)" fill="#5793ce"/>
    </g>
    <g id="Group_1507" data-name="Group 1507" transform="translate(506.631 248.396)">
      <path id="Path_2704" data-name="Path 2704" d="M440.356,200.923,413.92,185.66v-1.905l26.436,15.263Z" transform="translate(-413.92 -183.754)" fill="#5793ce"/>
      <path id="Path_2705" data-name="Path 2705" d="M432.373,202.084,413.92,191.429v-1.906l18.454,10.654Z" transform="translate(-413.92 -181.199)" fill="#5793ce"/>
      <path id="Path_2706" data-name="Path 2706" d="M429.884,197.762l-15.965-9.217v-1.905l15.965,9.217Z" transform="translate(-413.92 -182.477)" fill="#5793ce"/>
      <path id="Path_2707" data-name="Path 2707" d="M434.691,200.537l-7.982-4.609v-1.905l7.982,4.609Z" transform="translate(-408.255 -179.206)" fill="#5793ce"/>
    </g>
    <g id="Group_1508" data-name="Group 1508" transform="translate(430.863 298.015)">
      <path id="Path_2708" data-name="Path 2708" d="M380.293,230.79,361.435,219.9v-1.76l18.857,10.887Z" transform="translate(-361.396 -218.143)" fill="#fff"/>
      <path id="Path_2709" data-name="Path 2709" d="M385.077,233.553l-8.053-4.65v-1.76l8.053,4.65Z" transform="translate(-354.492 -214.157)" fill="#fff"/>
      <path id="Path_2710" data-name="Path 2710" d="M377.427,231.792l-8.053-4.65v-1.76l8.053,4.65Z" transform="translate(-357.88 -214.937)" fill="#fff"/>
      <path id="Path_2711" data-name="Path 2711" d="M391.481,239.906l-14.458-8.347V229.8l14.458,8.347Z" transform="translate(-354.492 -212.981)" fill="#fff"/>
      <path id="Path_2712" data-name="Path 2712" d="M400.465,247.749,379.082,235.4v-1.76l21.382,12.345Z" transform="translate(-353.581 -211.278)" fill="#fff"/>
      <path id="Path_2713" data-name="Path 2713" d="M393.061,238.162l-8.053-4.65v-1.76l8.053,4.65Z" transform="translate(-350.956 -212.116)" fill="#fff"/>
      <path id="Path_2714" data-name="Path 2714" d="M369.489,227.209l-8.053-4.65V220.8l8.053,4.65Z" transform="translate(-361.396 -216.967)" fill="#fff"/>
      <path id="Path_2715" data-name="Path 2715" d="M383.457,237.93,361.408,225.2v-1.76l22.049,12.73Z" transform="translate(-361.408 -215.797)" fill="#fff"/>
      <path id="Path_2716" data-name="Path 2716" d="M374.889,235.639l-13.3-7.68V226.2l13.3,7.68Z" transform="translate(-361.329 -214.575)" fill="#fff"/>
    </g>
    <path id="Path_2717" data-name="Path 2717" d="M506.869,312.2a1.443,1.443,0,0,1-.736-2.685l55.886-33.025a1.019,1.019,0,0,0,.006-1.752l-15.25-9.151a1.443,1.443,0,0,1,1.485-2.475l15.251,9.151a3.906,3.906,0,0,1-.025,6.711L507.6,312A1.447,1.447,0,0,1,506.869,312.2Z" transform="translate(133.238 99.696)" fill="#fdd762"/>
    <g id="Group_1509" data-name="Group 1509" transform="translate(608.459 398.623)">
      <path id="Path_2718" data-name="Path 2718" d="M525.907,318.038l-19.4-11.2-19.4,11.2,19.4,11.2Z" transform="translate(-483.332 -279.468)" fill="#d4ecff"/>
      <path id="Path_2719" data-name="Path 2719" d="M500.554,323.144v-12.62l23.176-13.381v12.62Z" transform="translate(-477.378 -283.762)" fill="#d3008d"/>
      <path id="Path_2720" data-name="Path 2720" d="M507.668,310.524l-23.176-13.381v12.62l23.176,13.381Z" transform="translate(-484.492 -283.762)" fill="#d3008d"/>
      <path id="Path_2721" data-name="Path 2721" d="M530.844,301.25,507.668,287.87,484.492,301.25l23.176,13.381Z" transform="translate(-484.492 -287.87)" fill="#ff2c9c"/>
    </g>
    <path id="Path_2722" data-name="Path 2722" d="M375.2,110.819l3.906,12.81,10,6.88-7.584,3.092,2.273,12.714L375.2,135.254l-8.593,1.139,2.273-10.09L361.3,114.455l10,4.664Z" transform="translate(69.405 32.339)" fill="#ededed"/>
    <path id="Path_2723" data-name="Path 2723" d="M397.283,123.46l3.906,12.81,10,6.88-7.583,3.092,2.273,12.714-8.593-11.061-8.593,1.139,2.273-10.09L383.38,127.1l10,4.664Z" transform="translate(79.186 37.938)" fill="#ededed"/>
    <path id="Path_2724" data-name="Path 2724" d="M362.931,117.868l-10-6.88-3.905-12.81-.589,1.252v23.261l.589-.078,8.592,11.061-2.273-12.714Z" transform="translate(63.71 26.741)" fill="#ededed"/>
    <g id="Group_1520" data-name="Group 1520" transform="translate(323.734 80.021)">
      <g id="Group_1511" data-name="Group 1511">
        <g id="Group_1510" data-name="Group 1510">
          <path id="Path_2725" data-name="Path 2725" d="M304.3,67.061l3.906,12.81,10,6.88-7.584,3.092,2.273,12.714L304.3,91.5l-8.593,1.139,2.273-10.089L290.4,70.7l10,4.664Z" transform="translate(-285.73 -67.061)" fill="#e8a200"/>
          <path id="Path_2726" data-name="Path 2726" d="M287.162,72.259l4.665-2.678,7.206,3.362s-.025,4.845,0,4.961a25.526,25.526,0,0,1-3.171.258C295.659,78.162,287.162,72.259,287.162,72.259Z" transform="translate(-287.162 -65.945)" fill="#f9bf30"/>
          <path id="Path_2727" data-name="Path 2727" d="M308.115,95.475l-4.665,2.678-2.273-12.715s2.261-2.387,2.251-2.387,2.542.431,2.542.431Z" transform="translate(-280.954 -59.979)" fill="#e8a200"/>
          <path id="Path_2728" data-name="Path 2728" d="M301.065,68.917l3.906,12.81,10,6.88L307.385,91.7l2.273,12.714-8.592-11.061-8.592,1.139L294.746,84.4l-7.584-11.848,10,4.664Z" transform="translate(-287.162 -66.239)" fill="#fdd762"/>
          <path id="Path_2729" data-name="Path 2729" d="M309.658,104.414,307.386,91.7l7.582-3.092-10-6.88-3.906-12.81-3.906,8.3-10-4.665.7,1.089,9.634,4.493,3.434-7.3L304.38,82.16l9.142,6.291L306.6,91.269l2.141,11.97Z" transform="translate(-287.162 -66.239)" fill="#fff"/>
          <path id="Path_2730" data-name="Path 2730" d="M296.8,69.739l4.665-2.678,3.906,12.81L300.7,82.549Z" transform="translate(-282.894 -67.061)" fill="#e8a200"/>
          <path id="Path_2731" data-name="Path 2731" d="M314.167,82.819,309.5,85.5l-10-6.88,4.665-2.678Z" transform="translate(-281.696 -63.129)" fill="#f9bf30"/>
        </g>
        <path id="Path_2732" data-name="Path 2732" d="M299.884,79.044l-.711-.41,5.039-2.932.1.342.332.228Z" transform="translate(-281.842 -63.234)" fill="#fff"/>
      </g>
      <g id="Group_1513" data-name="Group 1513" transform="translate(31.865 18.24)">
        <g id="Group_1512" data-name="Group 1512">
          <path id="Path_2733" data-name="Path 2733" d="M326.383,79.7l3.906,12.81,10,6.88-7.584,3.092,2.273,12.714-8.592-11.061-8.593,1.14,2.273-10.09-7.584-11.848,10,4.664Z" transform="translate(-307.814 -79.702)" fill="#e8a200"/>
          <path id="Path_2734" data-name="Path 2734" d="M309.246,84.9l4.666-2.679,7.2,3.362s-.025,4.845,0,4.961a25.5,25.5,0,0,1-3.172.258C317.745,90.8,309.246,84.9,309.246,84.9Z" transform="translate(-309.246 -78.586)" fill="#f9bf30"/>
          <path id="Path_2735" data-name="Path 2735" d="M330.2,108.116l-4.665,2.678L323.262,98.08s2.261-2.387,2.251-2.387,2.542.433,2.542.433Z" transform="translate(-303.038 -72.62)" fill="#e8a200"/>
          <path id="Path_2736" data-name="Path 2736" d="M323.149,81.558l3.906,12.81,10,6.88-7.583,3.092,2.273,12.714-8.593-11.061-8.593,1.139,2.273-10.089-7.584-11.848,10,4.664Z" transform="translate(-309.246 -78.88)" fill="#fdd762"/>
          <path id="Path_2737" data-name="Path 2737" d="M331.742,117.055l-2.273-12.715,7.582-3.091-10-6.881-3.906-12.81-3.906,8.3-10-4.665.7,1.089,9.634,4.493,3.435-7.3L326.464,94.8l9.142,6.291-6.917,2.819,2.141,11.969Z" transform="translate(-309.246 -78.88)" fill="#fff"/>
          <path id="Path_2738" data-name="Path 2738" d="M318.882,82.38l4.665-2.678,3.906,12.81-4.665,2.678Z" transform="translate(-304.978 -79.702)" fill="#e8a200"/>
          <path id="Path_2739" data-name="Path 2739" d="M336.251,95.46l-4.665,2.678-10-6.88,4.665-2.678Z" transform="translate(-303.78 -75.77)" fill="#f9bf30"/>
        </g>
        <path id="Path_2740" data-name="Path 2740" d="M321.968,91.685l-.711-.41,5.039-2.932.1.342.331.228Z" transform="translate(-303.926 -75.875)" fill="#fff"/>
      </g>
      <g id="Group_1515" data-name="Group 1515" transform="translate(63.73 36.479)">
        <g id="Group_1514" data-name="Group 1514">
          <path id="Path_2741" data-name="Path 2741" d="M348.467,92.343l3.906,12.81,10,6.88-7.584,3.092,2.273,12.714-8.593-11.061-8.592,1.139,2.273-10.09L334.564,95.98l10,4.664Z" transform="translate(-329.899 -92.343)" fill="#e8a200"/>
          <path id="Path_2742" data-name="Path 2742" d="M331.331,97.542,336,94.864l7.2,3.36s-.025,4.845,0,4.961a25.229,25.229,0,0,1-3.171.258C339.828,103.443,331.331,97.542,331.331,97.542Z" transform="translate(-331.33 -91.227)" fill="#f9bf30"/>
          <path id="Path_2743" data-name="Path 2743" d="M352.283,120.757l-4.665,2.678-2.273-12.715s2.261-2.387,2.251-2.387,2.544.433,2.544.433Z" transform="translate(-325.123 -85.261)" fill="#e8a200"/>
          <path id="Path_2744" data-name="Path 2744" d="M345.233,94.2l3.906,12.81,10,6.88-7.584,3.092,2.273,12.714-8.593-11.061-8.593,1.14,2.273-10.09-7.584-11.848,10,4.664Z" transform="translate(-331.331 -91.521)" fill="#fdd762"/>
          <path id="Path_2745" data-name="Path 2745" d="M353.826,129.7l-2.273-12.715,7.584-3.091-10-6.88L345.233,94.2l-3.906,8.3-10-4.663.7,1.088,9.634,4.493,3.436-7.3,3.451,11.325,9.142,6.291-6.916,2.819,2.14,11.97Z" transform="translate(-331.33 -91.521)" fill="#fff"/>
          <path id="Path_2746" data-name="Path 2746" d="M340.966,95.021l4.665-2.678,3.906,12.81-4.665,2.678Z" transform="translate(-327.063 -92.343)" fill="#e8a200"/>
          <path id="Path_2747" data-name="Path 2747" d="M358.335,108.1l-4.665,2.678-10-6.88,4.665-2.678Z" transform="translate(-325.864 -88.411)" fill="#f9bf30"/>
        </g>
        <path id="Path_2748" data-name="Path 2748" d="M344.052,104.327l-.711-.41,5.039-2.932.1.342.332.228Z" transform="translate(-326.011 -88.516)" fill="#fff"/>
      </g>
      <g id="Group_1517" data-name="Group 1517" transform="translate(95.595 54.719)">
        <g id="Group_1516" data-name="Group 1516">
          <path id="Path_2749" data-name="Path 2749" d="M370.551,104.984l3.906,12.81,10,6.88-7.584,3.092,2.273,12.714-8.593-11.061-8.593,1.139,2.273-10.09-7.584-11.848,10,4.664Z" transform="translate(-351.983 -104.984)" fill="#e8a200"/>
          <path id="Path_2750" data-name="Path 2750" d="M353.415,110.183l4.665-2.678,7.2,3.36s-.025,4.845,0,4.961a25.231,25.231,0,0,1-3.171.258C361.912,116.084,353.415,110.183,353.415,110.183Z" transform="translate(-353.414 -103.868)" fill="#f9bf30"/>
          <path id="Path_2751" data-name="Path 2751" d="M374.367,133.4l-4.665,2.678-2.273-12.713s2.261-2.387,2.251-2.387,2.544.431,2.544.431Z" transform="translate(-347.207 -97.902)" fill="#e8a200"/>
          <path id="Path_2752" data-name="Path 2752" d="M367.318,106.84l3.906,12.81,10,6.88-7.584,3.092,2.273,12.714-8.593-11.061-8.592,1.139L361,122.325l-7.584-11.848,10,4.664Z" transform="translate(-353.415 -104.162)" fill="#fdd762"/>
          <path id="Path_2753" data-name="Path 2753" d="M375.91,142.337l-2.273-12.713,7.584-3.092-10-6.88-3.906-12.811-3.906,8.3-10-4.663.7,1.088,9.634,4.493,3.435-7.3,3.451,11.325,9.142,6.291-6.916,2.819,2.14,11.97Z" transform="translate(-353.414 -104.162)" fill="#fff"/>
          <path id="Path_2754" data-name="Path 2754" d="M363.05,107.662l4.665-2.678,3.906,12.81-4.665,2.678Z" transform="translate(-349.147 -104.984)" fill="#e8a200"/>
          <path id="Path_2755" data-name="Path 2755" d="M380.419,120.743l-4.665,2.678-10-6.88,4.665-2.678Z" transform="translate(-347.948 -101.052)" fill="#f9bf30"/>
        </g>
        <path id="Path_2756" data-name="Path 2756" d="M366.136,116.968l-.711-.41,5.039-2.932.1.342.332.228Z" transform="translate(-348.095 -101.157)" fill="#fff"/>
      </g>
      <g id="Group_1519" data-name="Group 1519" transform="translate(127.46 72.959)">
        <g id="Group_1518" data-name="Group 1518">
          <path id="Path_2757" data-name="Path 2757" d="M392.635,117.625l3.906,12.81,10,6.88-7.584,3.092,2.273,12.714-8.593-11.061-8.592,1.139,2.273-10.089-7.584-11.848,10,4.664Z" transform="translate(-374.067 -117.625)" fill="#e8a200"/>
          <path id="Path_2758" data-name="Path 2758" d="M375.5,122.824l4.665-2.678,7.206,3.36s-.026,4.845,0,4.961a25.262,25.262,0,0,1-3.171.26C384,128.727,375.5,122.824,375.5,122.824Z" transform="translate(-375.499 -116.509)" fill="#f9bf30"/>
          <path id="Path_2759" data-name="Path 2759" d="M396.453,146.039l-4.666,2.678L389.514,136s2.261-2.387,2.251-2.387,2.544.431,2.544.431Z" transform="translate(-369.292 -110.543)" fill="#e8a200"/>
          <path id="Path_2760" data-name="Path 2760" d="M389.4,119.481l3.906,12.81,10,6.88-7.583,3.092,2.273,12.714L389.4,143.916l-8.593,1.139,2.273-10.09L375.5,123.118l10,4.664Z" transform="translate(-375.499 -116.803)" fill="#fdd762"/>
          <path id="Path_2761" data-name="Path 2761" d="M397.994,154.978l-2.272-12.713,7.584-3.092-10-6.88L389.4,119.481l-3.9,8.3-10-4.663.7,1.088,9.633,4.493,3.435-7.3,3.451,11.325,9.142,6.291-6.916,2.819,2.141,11.97Z" transform="translate(-375.499 -116.804)" fill="#fff"/>
          <path id="Path_2762" data-name="Path 2762" d="M385.134,120.3l4.665-2.678,3.906,12.81-4.665,2.678Z" transform="translate(-371.231 -117.625)" fill="#e8a200"/>
          <path id="Path_2763" data-name="Path 2763" d="M402.5,133.384l-4.665,2.678-10-6.88,4.665-2.678Z" transform="translate(-370.033 -113.693)" fill="#f9bf30"/>
        </g>
        <path id="Path_2764" data-name="Path 2764" d="M388.221,129.609l-.711-.41,5.039-2.932.1.342.331.228Z" transform="translate(-370.179 -113.798)" fill="#fff"/>
      </g>
    </g>
  </g>
</svg>
